<svg xmlns="http://www.w3.org/2000/svg" width="76.563" height="76.563" viewBox="0 0 76.563 76.563">
  <g id="Grupo_1099594" data-name="Grupo 1099594" transform="translate(-1020.967 -3093)">
    <g id="Grupo_1098742" data-name="Grupo 1098742" transform="translate(1020.967 3093)">
      <rect id="Rect치ngulo_400898" data-name="Rect치ngulo 400898" width="76.563" height="76.563" rx="38.281" transform="translate(0 0)" fill="#ffc148"/>
      <rect id="Rect치ngulo_400907" data-name="Rect치ngulo 400907" width="76.563" height="76.563" rx="38.281" transform="translate(0 0)" fill="none"/>
    </g>
    <g id="_x31_9_Know_How" transform="translate(1034.319 3105.222)">
      <g id="Grupo_1099808" data-name="Grupo 1099808" transform="translate(0 0.9)">
        <g id="Grupo_1099803" data-name="Grupo 1099803" transform="translate(0.81 0.81)">
          <path id="Trazado_1033905" data-name="Trazado 1033905" d="M12.9,1.9H41.665V41.2H12.9Z" transform="translate(-3.258 -1.9)" fill="#fff"/>
          <g id="Grupo_1099802" data-name="Grupo 1099802">
            <path id="Trazado_1033906" data-name="Trazado 1033906" d="M10.642,1.9H5.781A4.721,4.721,0,0,0,1,6.6V45.9a4.789,4.789,0,0,1,4.781-4.781h4.862Z" transform="translate(-1 -1.9)" fill="#4de2c9"/>
          </g>
          <path id="Trazado_1033907" data-name="Trazado 1033907" d="M39.407,59.88a9.071,9.071,0,0,1,0-9.48H5.781A4.738,4.738,0,0,0,1,55.181a4.789,4.789,0,0,0,4.781,4.781Z" transform="translate(-1 -11.101)" fill="#fff"/>
        </g>
        <g id="Grupo_1099804" data-name="Grupo 1099804" transform="translate(35.79 33.708)">
          <path id="Trazado_1033908" data-name="Trazado 1033908" d="M51,54.978a3.415,3.415,0,1,1-6.806-.405l1.3-12.073h4.294C51,55.059,51,54.654,51,54.978Z" transform="translate(-44.17 -42.5)" fill="#ffcd7e"/>
        </g>
        <path id="Trazado_1033909" data-name="Trazado 1033909" d="M51.317,37.7v2.269A1.625,1.625,0,0,1,49.7,41.589H45.321A1.625,1.625,0,0,1,43.7,39.969V37.7a11.511,11.511,0,0,0,7.617,0Z" transform="translate(-8.291 -7.882)" fill="#fff"/>
        <g id="Grupo_1099805" data-name="Grupo 1099805" transform="translate(27.387 6.806)">
          <path id="Trazado_1033910" data-name="Trazado 1033910" d="M57.46,21.13A11.83,11.83,0,1,1,45.63,9.3,11.792,11.792,0,0,1,57.46,21.13Z" transform="translate(-33.8 -9.3)" fill="#ff787d"/>
        </g>
        <g id="Grupo_1099807" data-name="Grupo 1099807">
          <path id="Trazado_1033911" data-name="Trazado 1033911" d="M54.916,21.908A8.508,8.508,0,1,1,46.408,13.4a8.507,8.507,0,0,1,8.508,8.508Z" transform="translate(-7.19 -3.272)" fill="#fff"/>
          <g id="Grupo_1099806" data-name="Grupo 1099806">
            <path id="Trazado_1033912" data-name="Trazado 1033912" d="M23.01,9.921H35.083a.766.766,0,0,0,.81-.81.766.766,0,0,0-.81-.81H23.01a.766.766,0,0,0-.81.81.766.766,0,0,0,.81.81Z" transform="translate(-4.212 -2.304)" fill="#12263f"/>
            <path id="Trazado_1033913" data-name="Trazado 1033913" d="M51.858,19.536A12.674,12.674,0,0,0,40.028,6.9V1.71a.766.766,0,0,0-.81-.81H5.591A5.586,5.586,0,0,0,0,6.41v39.3a5.516,5.516,0,0,0,5.51,5.51H39.137A4.185,4.185,0,0,0,43.35,47c0-.324,0,0-1.215-11.83a2.47,2.47,0,0,0,1.621-2.269V31.123a12.218,12.218,0,0,0,8.1-11.587ZM38.407,6.9A12.833,12.833,0,0,0,29.9,10.947H15.963a.81.81,0,1,0,0,1.621H28.684a24.417,24.417,0,0,0-1.3,2.512H15.963a.81.81,0,1,0,0,1.621H26.9a12.525,12.525,0,0,0-.324,2.512H18.8a.81.81,0,1,0,0,1.621h7.86A12.651,12.651,0,0,0,34.6,31.285v1.783a2.36,2.36,0,0,0,1.621,2.269L35.652,40.2H11.263V2.521H38.407Zm3,26.9H37.03a.812.812,0,0,1-.81-.81V31.772a12.508,12.508,0,0,0,6,0v1.215A.812.812,0,0,1,41.405,33.8ZM1.621,6.41A3.961,3.961,0,0,1,5.51,2.44H9.561V40.118H5.51a5.51,5.51,0,0,0-3.889,1.621Zm0,39.38A3.89,3.89,0,0,1,5.51,41.9h29.9l-.324,3.079H10.372a.812.812,0,0,0-.81.81.766.766,0,0,0,.81.81H34.923a4.112,4.112,0,0,0,.891,3.16H5.591a4.085,4.085,0,0,1-3.97-3.97Zm37.6,3.889a2.588,2.588,0,0,1-1.945-.891,2.668,2.668,0,0,1-.648-2.026L37.84,35.418h2.836c.891,8.994,1.215,11.506,1.215,11.668a2.681,2.681,0,0,1-2.674,2.593Zm0-19.123a11.02,11.02,0,1,1,11.02-11.02A11.031,11.031,0,0,1,39.218,30.556Z" transform="translate(0 -0.9)" fill="#12263f"/>
            <path id="Trazado_1033914" data-name="Trazado 1033914" d="M46.218,12.4a9.318,9.318,0,1,0,9.318,9.318A9.372,9.372,0,0,0,46.218,12.4Zm0,17.016a7.7,7.7,0,1,1,7.7-7.7A7.747,7.747,0,0,1,46.218,29.416Z" transform="translate(-7.001 -3.082)" fill="#12263f"/>
          </g>
        </g>
      </g>
    </g>
  </g>
</svg>
