<svg xmlns="http://www.w3.org/2000/svg" width="76.563" height="76.563" viewBox="0 0 76.563 76.563">
  <g id="Grupo_1099595" data-name="Grupo 1099595" transform="translate(-1020.967 -3093)">
    <g id="Grupo_1098742" data-name="Grupo 1098742" transform="translate(1020.967 3093)">
      <rect id="Rectángulo_400898" data-name="Rectángulo 400898" width="76.563" height="76.563" rx="38.281" transform="translate(0 0)" fill="#ffc148"/>
      <rect id="Rectángulo_400907" data-name="Rectángulo 400907" width="76.563" height="76.563" rx="38.281" transform="translate(0 0)" fill="none"/>
    </g>
    <g id="buscar" transform="translate(1034.644 3106.671)">
      <g id="Grupo_1099814" data-name="Grupo 1099814" transform="translate(0.822 0.827)">
        <path id="Trazado_1033931" data-name="Trazado 1033931" d="M26.265,312.3,13.143,325.421a3.287,3.287,0,0,1-4.642,0,3.222,3.222,0,0,1-.664-.976,3.266,3.266,0,0,1,.664-3.666l13.122-13.122,3,3Z" transform="translate(-7.543 -278.814)" fill="#4e342e"/>
        <path id="Trazado_1033932" data-name="Trazado 1033932" d="M24.626,310.659,11.5,323.78a3.279,3.279,0,0,1-2.321.96,3.209,3.209,0,0,1-1.345-.3,3.266,3.266,0,0,1,.664-3.666l4.1-4.1,2.9-2.9,6.118-6.118Z" transform="translate(-7.544 -278.814)" fill="#795548"/>
        <path id="Trazado_1033933" data-name="Trazado 1033933" d="M132.232,27.223A19.688,19.688,0,0,1,112.55,46.905c-.418,0-.828-.016-1.23-.041a19.68,19.68,0,0,1,0-39.283c.4-.025.812-.041,1.23-.041A19.688,19.688,0,0,1,132.232,27.223Z" transform="translate(-84.667 -7.54)" fill="#283593"/>
        <ellipse id="Elipse_11901" data-name="Elipse 11901" cx="18.453" cy="19.642" rx="18.453" ry="19.642" transform="translate(8.2 0.041)" fill="#3f51b5"/>
        <path id="Trazado_1033934" data-name="Trazado 1033934" d="M159.8,58.075a16.419,16.419,0,0,1-16.4,16.4q-.627,0-1.23-.049a16.4,16.4,0,0,1,0-32.706q.6-.049,1.23-.049A16.419,16.419,0,0,1,159.8,58.075Z" transform="translate(-115.515 -38.393)" fill="#00838f"/>
        <ellipse id="Elipse_11902" data-name="Elipse 11902" cx="15.172" cy="16.353" rx="15.172" ry="16.353" transform="translate(11.481 3.33)" fill="#00bcd4"/>
        <g id="Grupo_1099813" data-name="Grupo 1099813" transform="translate(21.322 8.203)">
          <path id="Trazado_1033935" data-name="Trazado 1033935" d="M235.958,109.3a1.64,1.64,0,0,1-1.64-1.64v-2.525a2.469,2.469,0,0,1,2.113-2.429,3.289,3.289,0,0,0,2.732-3.972,3.241,3.241,0,0,0-2.48-2.481,3.286,3.286,0,0,0-4,3.2,1.64,1.64,0,1,1-3.28,0,6.56,6.56,0,1,1,8.2,6.354v1.848A1.64,1.64,0,0,1,235.958,109.3Z" transform="translate(-229.398 -92.896)" fill="#fff"/>
          <circle id="Elipse_11903" data-name="Elipse 11903" cx="1.64" cy="1.64" r="1.64" transform="translate(4.921 19.68)" fill="#fff"/>
        </g>
        <rect id="Rectángulo_405218" data-name="Rectángulo 405218" width="4.109" height="2.319" transform="translate(12.609 39.599) rotate(135)" fill="#cfd8dc"/>
        <rect id="Rectángulo_405219" data-name="Rectángulo 405219" width="4.109" height="4.245" transform="translate(10.967 37.961) rotate(135)" fill="#fff"/>
      </g>
      <g id="Grupo_1099815" data-name="Grupo 1099815" transform="translate(0.001 0.007)">
        <path id="Trazado_1033936" data-name="Trazado 1033936" d="M230.807,85.451a7.387,7.387,0,0,0-8.941,7.22,2.46,2.46,0,1,0,4.92,0,2.465,2.465,0,0,1,3.017-2.4,2.41,2.41,0,0,1,1.844,1.845,2.5,2.5,0,0,1-.384,1.966,2.467,2.467,0,0,1-1.659,1.026,3.292,3.292,0,0,0-2.818,3.241v2.525a2.46,2.46,0,1,0,4.921,0V99.63a7.384,7.384,0,0,0-.9-14.18Zm3.143,10.512a5.758,5.758,0,0,1-3.268,2.269.819.819,0,0,0-.615.794v1.848a.82.82,0,0,1-1.64,0V98.347a1.643,1.643,0,0,1,1.41-1.617,4.1,4.1,0,0,0,.3-8.067,4.37,4.37,0,0,0-.9-.1,4.039,4.039,0,0,0-2.574.918,4.091,4.091,0,0,0-1.516,3.185.82.82,0,1,1-1.64,0,5.742,5.742,0,1,1,10.443,3.292Z" transform="translate(-200.543 -77.089)"/>
        <path id="Trazado_1033937" data-name="Trazado 1033937" d="M275.526,290.14a2.46,2.46,0,1,0,2.46,2.46A2.46,2.46,0,0,0,275.526,290.14Zm0,3.28a.82.82,0,1,1,.82-.82A.82.82,0,0,1,275.526,293.42Z" transform="translate(-246.823 -262.256)"/>
        <path id="Trazado_1033938" data-name="Trazado 1033938" d="M28.7.007a20.489,20.489,0,0,0-17.1,31.8l-3.4,3.4h0l-2.9,2.9h0l-4.1,4.1a4.1,4.1,0,0,0,5.8,5.8l4.1-4.1h0l2.9-2.9h0l3.4-3.4A20.5,20.5,0,1,0,28.7.007ZM10.523,42.174,7.04,38.692l1.744-1.744,3.482,3.482Zm-4.68,4.681a2.527,2.527,0,0,1-3.482,0,2.466,2.466,0,0,1,0-3.482l3.521-3.521,3.482,3.482Zm7.583-7.584L9.944,35.789l2.637-2.637a20.675,20.675,0,0,0,3.482,3.482Zm15.279.1A18.863,18.863,0,1,1,47.567,20.51,18.863,18.863,0,0,1,28.7,39.372Z" transform="translate(-0.001 -0.007)"/>
        <path id="Trazado_1033939" data-name="Trazado 1033939" d="M136.688,34.14a17.222,17.222,0,1,0,17.222,17.222A17.222,17.222,0,0,0,136.688,34.14Zm0,32.8A15.582,15.582,0,1,1,152.27,51.362,15.582,15.582,0,0,1,136.688,66.944Z" transform="translate(-107.985 -30.86)"/>
      </g>
    </g>
  </g>
</svg>
