<svg xmlns="http://www.w3.org/2000/svg" width="76.563" height="76.563" viewBox="0 0 76.563 76.563">
  <g id="Grupo_1099596" data-name="Grupo 1099596" transform="translate(-1020.967 -3093)">
    <g id="Grupo_1098742" data-name="Grupo 1098742" transform="translate(1020.967 3093)">
      <rect id="Rect치ngulo_400898" data-name="Rect치ngulo 400898" width="76.563" height="76.563" rx="38.281" transform="translate(0 0)" fill="#ffc148"/>
      <rect id="Rect치ngulo_400907" data-name="Rect치ngulo 400907" width="76.563" height="76.563" rx="38.281" transform="translate(0 0)" fill="none"/>
    </g>
    <g id="audiencia" transform="translate(1041.628 3099.317)">
      <g id="Grupo_1099812" data-name="Grupo 1099812" transform="translate(-11.478 8.899)">
        <circle id="Elipse_11896" data-name="Elipse 11896" cx="20.579" cy="20.579" r="20.579" transform="translate(0 29.93) rotate(-45)" fill="#eceff1"/>
        <circle id="Elipse_11897" data-name="Elipse 11897" cx="20.579" cy="20.579" r="20.579" transform="translate(0 29.93) rotate(-45)" fill="#eceff1"/>
        <g id="Grupo_1099809" data-name="Grupo 1099809" transform="translate(11.118 20.979)">
          <path id="Trazado_1033915" data-name="Trazado 1033915" d="M88.737,280.616h13.419a.574.574,0,0,0,.564-.691,7.425,7.425,0,0,0-14.548,0A.574.574,0,0,0,88.737,280.616Z" transform="translate(-88.161 -266.186)" fill="#8ac9fe" fill-rule="evenodd"/>
          <path id="Trazado_1033916" data-name="Trazado 1033916" d="M153.632,280.617h1.312a.574.574,0,0,0,.565-.691,7.426,7.426,0,0,0-7.274-5.934q-.332,0-.656.029a7.428,7.428,0,0,1,6.618,5.905A.574.574,0,0,1,153.632,280.617Z" transform="translate(-140.948 -266.187)" fill="#60b7ff" fill-rule="evenodd"/>
          <circle id="Elipse_11898" data-name="Elipse 11898" cx="3.753" cy="3.753" r="3.753" transform="translate(3.253 0.623) rotate(-4.759)" fill="#f6dccd"/>
          <path id="Trazado_1033917" data-name="Trazado 1033917" d="M149.294,206.715a3.753,3.753,0,1,1-.523,7.47,3.754,3.754,0,0,0,0-7.434A3.793,3.793,0,0,1,149.294,206.715Z" transform="translate(-142.008 -206.417)" fill="#f1cbbc" fill-rule="evenodd"/>
        </g>
        <g id="Grupo_1099810" data-name="Grupo 1099810" transform="translate(32.52 21.051)">
          <path id="Trazado_1033918" data-name="Trazado 1033918" d="M280.535,280.616h13.419a.574.574,0,0,0,.565-.691,7.425,7.425,0,0,0-14.548,0A.574.574,0,0,0,280.535,280.616Z" transform="translate(-279.959 -266.258)" fill="#8ac9fe" fill-rule="evenodd"/>
          <path id="Trazado_1033919" data-name="Trazado 1033919" d="M345.43,280.617h1.312a.574.574,0,0,0,.565-.691,7.426,7.426,0,0,0-7.274-5.934q-.332,0-.656.029a7.428,7.428,0,0,1,6.618,5.905A.574.574,0,0,1,345.43,280.617Z" transform="translate(-332.746 -266.259)" fill="#60b7ff" fill-rule="evenodd"/>
          <circle id="Elipse_11899" data-name="Elipse 11899" cx="3.753" cy="3.753" r="3.753" transform="translate(3.3 7.492) rotate(-86.445)" fill="#f6dccd"/>
          <path id="Trazado_1033920" data-name="Trazado 1033920" d="M341.092,206.715a3.753,3.753,0,1,1-.523,7.47,3.754,3.754,0,0,0,0-7.434A3.793,3.793,0,0,1,341.092,206.715Z" transform="translate(-333.806 -206.489)" fill="#f1cbbc" fill-rule="evenodd"/>
        </g>
        <g id="Grupo_1099811" data-name="Grupo 1099811" transform="translate(21.819 23.234)">
          <path id="Trazado_1033921" data-name="Trazado 1033921" d="M184.636,300.873h13.419a.574.574,0,0,0,.565-.691,7.425,7.425,0,0,0-14.548,0A.574.574,0,0,0,184.636,300.873Z" transform="translate(-184.06 -286.438)" fill="#8ac9fe" fill-rule="evenodd"/>
          <path id="Trazado_1033922" data-name="Trazado 1033922" d="M249.531,300.873h1.312a.574.574,0,0,0,.564-.691,7.426,7.426,0,0,0-7.274-5.934q-.332,0-.656.029a7.428,7.428,0,0,1,6.618,5.905A.574.574,0,0,1,249.531,300.873Z" transform="translate(-236.847 -286.438)" fill="#60b7ff" fill-rule="evenodd"/>
          <circle id="Elipse_11900" data-name="Elipse 11900" cx="3.753" cy="3.753" r="3.753" transform="translate(3.259 0.623) rotate(-4.759)" fill="#f6dccd"/>
          <path id="Trazado_1033923" data-name="Trazado 1033923" d="M245.192,226.971a3.753,3.753,0,1,1-.523,7.47,3.754,3.754,0,0,0,0-7.434A3.815,3.815,0,0,1,245.192,226.971Z" transform="translate(-237.906 -226.668)" fill="#f1cbbc" fill-rule="evenodd"/>
        </g>
        <path id="Trazado_1033924" data-name="Trazado 1033924" d="M344.732,16.036H356.95a1.118,1.118,0,0,1,1.116,1.116V29.369a1.118,1.118,0,0,1-1.116,1.116H344.732a1.118,1.118,0,0,1-1.116-1.116V17.152A1.118,1.118,0,0,1,344.732,16.036Z" transform="translate(-303.993 -16.036)" fill="#fe646f" fill-rule="evenodd"/>
        <path id="Trazado_1033925" data-name="Trazado 1033925" d="M85.51,99.841q.562,0,1.116.03a20.579,20.579,0,0,0,0,41.1q-.554.03-1.116.03a20.579,20.579,0,1,1,0-41.158Z" transform="translate(-56.405 -90.49)" fill="#d1d1d6" fill-rule="evenodd"/>
        <path id="Trazado_1033926" data-name="Trazado 1033926" d="M108.9,277.483a40.048,40.048,0,0,1,13.582,11.945c.833,1.157,1.519,2.227,2.09,3.156.5-.943,1.107-1.995,1.839-3.132a64.821,64.821,0,0,1,13.8-15.02q1-.813,2.079-1.626,1.334-1.008,2.778-2.009,2.764-1.913,5.945-3.767a48.986,48.986,0,0,0-5.864,1.723,42.739,42.739,0,0,0-4.143,1.763,41.744,41.744,0,0,0-6.44,3.916q-1.332.982-2.633,2.1l-.187.161a57.319,57.319,0,0,0-7.21,7.606C121.517,280.354,118.211,276.717,108.9,277.483Z" transform="translate(-95.469 -239.023)" fill="#6cf5c2" fill-rule="evenodd"/>
        <path id="Trazado_1033927" data-name="Trazado 1033927" d="M108.9,277.483a40.048,40.048,0,0,1,13.582,11.945c.833,1.157,1.519,2.227,2.09,3.156.5-.943,1.107-1.995,1.839-3.132a64.821,64.821,0,0,1,13.8-15.02q1-.813,2.079-1.626,1.334-1.008,2.778-2.009,2.764-1.913,5.945-3.767-2.118.486-4.134,1.13-.927.607-1.811,1.22-1.445,1-2.778,2.009-1.074.812-2.079,1.625a64.824,64.824,0,0,0-13.8,15.02c-.732,1.137-1.341,2.189-1.839,3.132-.571-.929-1.257-2-2.09-3.156a39.864,39.864,0,0,0-11.331-10.629c-.709,0-1.458.036-2.251.1Z" transform="translate(-95.469 -239.023)" fill="#00e499" fill-rule="evenodd"/>
        <path id="Trazado_1033928" data-name="Trazado 1033928" d="M26.72,16.036H38.938a1.118,1.118,0,0,1,1.116,1.116V29.369a1.118,1.118,0,0,1-1.116,1.116H26.72A1.118,1.118,0,0,1,25.6,29.369V17.152A1.118,1.118,0,0,1,26.72,16.036Z" transform="translate(-21.466 -16.036)" fill="#ffe177" fill-rule="evenodd"/>
        <path id="Trazado_1033929" data-name="Trazado 1033929" d="M185.726,16.036h12.218a1.118,1.118,0,0,1,1.116,1.116V29.369a1.118,1.118,0,0,1-1.116,1.116H185.726a1.118,1.118,0,0,1-1.116-1.116V17.152A1.118,1.118,0,0,1,185.726,16.036Z" transform="translate(-162.73 -16.036)" fill="#6cf5c2" fill-rule="evenodd"/>
      </g>
      <path id="Trazado_1033930" data-name="Trazado 1033930" d="M62.805,42.6A67.653,67.653,0,0,0,47.18,58.165,19.634,19.634,0,0,0,62.805,42.6ZM63.9,39.643C52.075,47.722,46.04,56.2,43.43,60.705A41.246,41.246,0,0,0,30.909,48.151c6.381.181,9.086,2.983,11.828,6.561a.894.894,0,0,0,1.408.015C50.032,47.344,56.293,42.527,63.9,39.643ZM39.328,58.074a39.152,39.152,0,0,0-11.943-9.935.893.893,0,0,1,.352-1.674,22.21,22.21,0,0,1,7.579.514.857.857,0,0,1-.1-.509,8.413,8.413,0,0,1,.236-1.274H25.4a.888.888,0,0,1-.651-.285A19.59,19.59,0,0,0,39.328,58.074ZM54.181,36.786a2.861,2.861,0,1,0-2.857-2.861A2.863,2.863,0,0,0,54.181,36.786Zm4.254,3.358a43,43,0,0,0-7.043,4.641,8.331,8.331,0,0,0-2.4-3.644,6.533,6.533,0,0,1,9.443-1ZM36.786,47.457h11.56a59.185,59.185,0,0,0-4.884,5.279,17.03,17.03,0,0,0-5.042-4.522A12.86,12.86,0,0,0,36.786,47.457Zm1.182-6.325a6.533,6.533,0,0,0-11.5,2.278h9.69A8.141,8.141,0,0,1,37.968,41.133Zm5.515-.3a6.543,6.543,0,0,1,6.308,4.839H37.169A6.523,6.523,0,0,1,43.483,40.832Zm0-1.785a2.861,2.861,0,1,0-2.862-2.861A2.868,2.868,0,0,0,43.483,39.047Zm-10.7-2.261a2.861,2.861,0,1,0-2.857-2.861A2.863,2.863,0,0,0,32.779,36.786ZM23.8,38.825a19.687,19.687,0,0,1,6.471-14.588h1.581a2.008,2.008,0,0,0,2.006-2.008v-.579q.74-.414,1.513-.763v1.342a2.008,2.008,0,0,0,2.006,2.008H49.591A2.013,2.013,0,0,0,51.6,22.228V20.885c.509.232,1.014.487,1.507.763v.579a2.008,2.008,0,0,0,2.006,2.008H56.7a19.7,19.7,0,0,1,6.455,13.778q-1.544.588-3.015,1.281a8.352,8.352,0,0,0-2.852-1.913,4.648,4.648,0,1,0-6.192.006,8.341,8.341,0,0,0-3.556,2.718,8.562,8.562,0,0,0-.961-.46,4.649,4.649,0,1,0-6.192-.006,8.57,8.57,0,0,0-.961.456,8.361,8.361,0,0,0-3.551-2.709,4.644,4.644,0,1,0-6.192-.007,8.285,8.285,0,0,0-5.158,6.772,19.842,19.842,0,0,1-.725-5.329ZM19.633,22.451H31.849a.224.224,0,0,0,.221-.223V10.01a.224.224,0,0,0-.221-.223H19.633a.229.229,0,0,0-.226.223V22.228A.228.228,0,0,0,19.633,22.451Zm17.516-.223a.228.228,0,0,0,.226.223H49.591a.228.228,0,0,0,.226-.223V10.01a.229.229,0,0,0-.226-.223H37.374a.229.229,0,0,0-.226.223Zm17.742,0a.228.228,0,0,0,.226.223H67.332a.228.228,0,0,0,.226-.223V10.01a.229.229,0,0,0-.226-.223H55.116a.229.229,0,0,0-.226.223ZM70.373,37.674c-1.98,1.148-3.829,2.319-5.546,3.5a21.482,21.482,0,0,1-18.981,19c-.672,1.065-1.192,1.98-1.576,2.7a.884.884,0,0,1-.756.475h-.032a.892.892,0,0,1-.762-.425c-.525-.856-1.129-1.793-1.833-2.782a21.475,21.475,0,0,1-13.162-35.9H19.633a2.013,2.013,0,0,1-2.012-2.008V10.01A2.013,2.013,0,0,1,19.633,8H31.849a2.009,2.009,0,0,1,2.006,2.008v9.617q.74-.371,1.513-.685V10.01A2.009,2.009,0,0,1,37.374,8H49.591A2.013,2.013,0,0,1,51.6,10.01v8.932c.509.209,1.014.438,1.507.685V10.01A2.009,2.009,0,0,1,55.116,8H67.332a2.013,2.013,0,0,1,2.012,2.008V22.228a2.013,2.013,0,0,1-2.012,2.008h-8.1a21.511,21.511,0,0,1,5.672,13.149c1.549-.521,3.151-.971,4.816-1.353a.893.893,0,0,1,.651,1.642ZM61.256,19.911a.84.84,0,1,0,.835.839A.838.838,0,0,0,61.256,19.911Zm-2.715-5.04a.892.892,0,0,1-.893-.893,3.608,3.608,0,1,1,5.158,3.246,1.276,1.276,0,0,0-.746,1.157l-.01.44a.893.893,0,0,1-.893.873h-.021a.893.893,0,0,1-.872-.913l.01-.441a3.052,3.052,0,0,1,1.759-2.726,1.8,1.8,0,0,0,1.045-1.636,1.823,1.823,0,1,0-3.645,0,.9.9,0,0,1-.893.893Zm-15.032,5.04a.84.84,0,1,0,.84.839A.837.837,0,0,0,43.509,19.911Zm-2.715-5.04a.9.9,0,0,1-.893-.893,3.611,3.611,0,1,1,5.163,3.246,1.276,1.276,0,0,0-.746,1.157l-.01.44a.893.893,0,0,1-.893.873h-.021a.893.893,0,0,1-.872-.913l.01-.441a3.052,3.052,0,0,1,1.759-2.726,1.8,1.8,0,0,0,1.045-1.636,1.825,1.825,0,0,0-3.65,0,.892.892,0,0,1-.893.893Zm-15.026,5.04a.84.84,0,1,0,.84.839A.841.841,0,0,0,25.767,19.911Zm3.608-5.933a3.619,3.619,0,0,1-2.054,3.246,1.276,1.276,0,0,0-.746,1.157l-.01.44a.893.893,0,0,1-.893.873h-.021a.893.893,0,0,1-.872-.913l.01-.441a3.043,3.043,0,0,1,1.759-2.726,1.817,1.817,0,0,0-.783-3.46,1.826,1.826,0,0,0-1.823,1.824.893.893,0,1,1-1.786,0,3.608,3.608,0,1,1,7.217,0Z" transform="translate(-25.852)" fill="#242222" fill-rule="evenodd"/>
    </g>
  </g>
</svg>
