<svg xmlns="http://www.w3.org/2000/svg" width="76.563" height="76.563" viewBox="0 0 76.563 76.563">
  <g id="Grupo_1099553" data-name="Grupo 1099553" transform="translate(-1020.967 -3093)">
    <g id="Grupo_1098742" data-name="Grupo 1098742" transform="translate(1020.967 3093)">
      <rect id="Rect치ngulo_400898" data-name="Rect치ngulo 400898" width="76.563" height="76.563" rx="38.281" transform="translate(0 0)" fill="#ffc148"/>
      <rect id="Rect치ngulo_400907" data-name="Rect치ngulo 400907" width="76.563" height="76.563" rx="38.281" transform="translate(0 0)" fill="none"/>
    </g>
    <g id="conversacion" transform="translate(1034.905 3106.938)">
      <path id="Trazado_1033940" data-name="Trazado 1033940" d="M36.245,184H15.705A5.705,5.705,0,0,0,10,189.705v14.644a5.705,5.705,0,0,0,5.705,5.705h6.179l-.086.007,4.177,4.177,0-4.184H36.245a5.705,5.705,0,0,0,5.705-5.705V189.705A5.705,5.705,0,0,0,36.245,184Z" transform="translate(-9.049 -166.503)" fill="#c7eaff"/>
      <path id="Trazado_1033941" data-name="Trazado 1033941" d="M16.926,206.14a.951.951,0,0,1-.673-.279l-3.905-3.905H6.656A6.664,6.664,0,0,1,0,195.3V180.656A6.664,6.664,0,0,1,6.656,174h9.6a.951.951,0,0,1,0,1.9h-9.6A4.76,4.76,0,0,0,1.9,180.656V195.3a4.76,4.76,0,0,0,4.754,4.754h6.179a.951.951,0,0,1,.872.571l2.27,2.27V201a.951.951,0,0,1,.951-.95H27.2A4.76,4.76,0,0,0,31.95,195.3v-6.561a.951.951,0,0,1,1.9,0V195.3a6.664,6.664,0,0,1-6.656,6.656H17.879l0,3.234a.951.951,0,0,1-.951.95Z" transform="translate(0 -157.454)"/>
      <path id="Trazado_1033942" data-name="Trazado 1033942" d="M221.277,10H218.87A12.87,12.87,0,0,0,206,22.87h0a12.87,12.87,0,0,0,12.87,12.87h2.407a12.867,12.867,0,0,0,3.785-.566l3.95,3.948V33.156a12.85,12.85,0,0,0,5.135-10.287h0A12.87,12.87,0,0,0,221.277,10Z" transform="translate(-186.412 -9.049)" fill="#ff6e22"/>
      <path id="Trazado_1033943" data-name="Trazado 1033943" d="M219.963,31.023a.951.951,0,0,1-.672-.278l-3.555-3.553a13.847,13.847,0,0,1-3.508.45h-2.407a13.821,13.821,0,0,1,0-27.642h2.407a13.837,13.837,0,0,1,13.821,13.821,13.672,13.672,0,0,1-1.5,6.271,13.953,13.953,0,0,1-3.633,4.479v5.5a.951.951,0,0,1-.951.951Zm-3.95-5.85a.951.951,0,0,1,.672.278l2.327,2.326v-3.67a.951.951,0,0,1,.379-.76A11.919,11.919,0,0,0,212.228,1.9h-2.407a11.919,11.919,0,0,0,0,23.838h2.407a11.922,11.922,0,0,0,3.506-.524A.95.95,0,0,1,216.012,25.174Z" transform="translate(-177.362)"/>
      <path id="Trazado_1033944" data-name="Trazado 1033944" d="M318.488,81.161a.951.951,0,0,1-.951-.951V77.926a1.8,1.8,0,0,1,1.418-1.764,2.124,2.124,0,1,0-2.591-2.073.951.951,0,0,1-1.9,0,4.04,4.04,0,0,1,1.279-2.943,4,4,0,0,1,3.03-1.073A4.026,4.026,0,0,1,319.439,78V80.21A.951.951,0,0,1,318.488,81.161Z" transform="translate(-284.56 -63.401)"/>
      <path id="Trazado_1033945" data-name="Trazado 1033945" d="M347.751,208.232a.95.95,0,1,1,.672-.278A.957.957,0,0,1,347.751,208.232Z" transform="translate(-313.823 -186.71)"/>
      <path id="Trazado_1033946" data-name="Trazado 1033946" d="M75.015,311.9H54.951a.951.951,0,0,1,0-1.9H75.015a.951.951,0,0,1,0,1.9Z" transform="translate(-48.865 -280.522)"/>
      <path id="Trazado_1033947" data-name="Trazado 1033947" d="M265.951,367.9a.951.951,0,1,1,.672-.279A.958.958,0,0,1,265.951,367.9Z" transform="translate(-239.801 -331.197)"/>
      <path id="Trazado_1033948" data-name="Trazado 1033948" d="M71.275,367.9H54.951a.951.951,0,0,1,0-1.9H71.275a.951.951,0,0,1,0,1.9Z" transform="translate(-48.865 -331.197)"/>
      <path id="Trazado_1033949" data-name="Trazado 1033949" d="M68.834,255.9H54.951a.951.951,0,1,1,0-1.9H68.834a.951.951,0,1,1,0,1.9Z" transform="translate(-48.865 -229.847)"/>
    </g>
  </g>
</svg>
