<svg xmlns="http://www.w3.org/2000/svg" width="46.332" height="44.352" viewBox="0 0 46.332 44.352">
  <g id="Grupo_1099491" data-name="Grupo 1099491" transform="translate(-1.997 -4.044)">
    <g id="education_325670" transform="translate(1.997 4.044)">
      <path id="Trazado_1033461" data-name="Trazado 1033461" d="M21.324,276.1v2.957H48.475a2.957,2.957,0,0,0,2.957-2.957l-15.054-.986Z" transform="translate(-19.394 -251.205)" fill="#f89890"/>
      <path id="Trazado_1033462" data-name="Trazado 1033462" d="M48.475,253.323H21.324v2.957H51.432A2.957,2.957,0,0,0,48.475,253.323Z" transform="translate(-19.394 -231.39)" fill="#ffc5bf"/>
      <circle id="Elipse_11859" data-name="Elipse 11859" cx="1.479" cy="1.479" r="1.479" transform="translate(32.038 23.412)" fill="#f89890"/>
      <path id="Trazado_1033463" data-name="Trazado 1033463" d="M130.723,57.238v3.943l19.715,9.386,2.957-.514V57.238Z" transform="translate(-118.894 -53.049)" fill="#4d2564"/>
      <path id="Trazado_1033464" data-name="Trazado 1033464" d="M130.723,100.813v8.872l11.336,1.972,8.379-1.457v-9.386Z" transform="translate(-118.894 -92.68)" fill="#9e52b6"/>
      <path id="Trazado_1033465" data-name="Trazado 1033465" d="M451.333,30l-1.972,1.725,1.972,1.725h2.957V30Z" transform="translate(-408.698 -28.279)" fill="#4d2564"/>
      <rect id="Rectángulo_405184" data-name="Rectángulo 405184" width="41.895" height="3.45" transform="translate(0.739 1.725)" fill="#763c8d"/>
      <circle id="Elipse_11860" data-name="Elipse 11860" cx="0.739" cy="0.739" r="0.739" transform="translate(17.744 9.611)"/>
      <circle id="Elipse_11861" data-name="Elipse 11861" cx="0.739" cy="0.739" r="0.739" transform="translate(14.787 12.568)"/>
      <path id="Trazado_1033466" data-name="Trazado 1033466" d="M17.037,427.576l-2.955,2.955-5.911-2.955Z" transform="translate(-7.432 -389.874)" fill="#4d2564"/>
      <path id="Trazado_1033467" data-name="Trazado 1033467" d="M14.082,394.917l2.955,2.216-2.955,2.216-5.911-1.478Z" transform="translate(-7.432 -360.171)" fill="#763c8d"/>
      <path id="Trazado_1033468" data-name="Trazado 1033468" d="M82.354,443.9,79.4,448.337l-5.911-2.955V443.9Z" transform="translate(-66.838 -404.725)" fill="#ffc5bf"/>
      <path id="Trazado_1033469" data-name="Trazado 1033469" d="M79.4,362.259l6.249,5.911L79.4,371.125l-5.911-1.478v-4.433Z" transform="translate(-66.838 -330.468)" fill="#ffd8d4"/>
      <path id="Trazado_1033470" data-name="Trazado 1033470" d="M163.956,438.462,161,443.387H138.8v-2.955Z" transform="translate(-126.243 -399.775)" fill="#8a9d29"/>
      <path id="Trazado_1033471" data-name="Trazado 1033471" d="M405.872,427.576l1.97,5.911h3.939a2.964,2.964,0,0,0,2.955-2.955v-2.955Z" transform="translate(-369.144 -389.874)" fill="#d6baed"/>
      <path id="Trazado_1033472" data-name="Trazado 1033472" d="M138.8,362.259v5.911l2.955,1.773h22.2L161,362.259Z" transform="translate(-126.243 -330.468)" fill="#c4ce94"/>
      <rect id="Rectángulo_405185" data-name="Rectángulo 405185" width="23.18" height="2.955" transform="translate(12.561 37.702)" fill="#a7b65f"/>
      <path id="Trazado_1033473" data-name="Trazado 1033473" d="M414.736,365.214v2.955a2.964,2.964,0,0,1-2.955,2.955h-5.909l1.97-8.866h3.939A2.964,2.964,0,0,1,414.736,365.214Z" transform="translate(-369.144 -330.468)" fill="#e4d1f3"/>
      <rect id="Rectángulo_405186" data-name="Rectángulo 405186" width="3.94" height="2.955" transform="translate(34.757 40.657)" fill="#eaeaea"/>
      <rect id="Rectángulo_405187" data-name="Rectángulo 405187" width="3.94" height="8.866" transform="translate(34.757 31.791)" fill="#fff"/>
      <path id="Trazado_1033474" data-name="Trazado 1033474" d="M41.043,221.343H13.892a.739.739,0,1,0,0,1.479H41.043a3.7,3.7,0,0,0,3.2-1.854,2.216,2.216,0,0,0,3.324-1.1h1.113a6.661,6.661,0,0,0,6.654-6.654.739.739,0,1,0-1.479,0,5.181,5.181,0,0,1-5.175,5.175H47.57a2.216,2.216,0,0,0-3.324-1.1,3.7,3.7,0,0,0-3.2-1.854H13.892a.739.739,0,1,0,0,1.479H41.043a2.221,2.221,0,0,1,2.091,1.479H13.892a.739.739,0,0,0,0,1.479H43.134A2.221,2.221,0,0,1,41.043,221.343Zm4.436-2.957a.739.739,0,1,1-.739.739A.74.74,0,0,1,45.479,218.386Z" transform="translate(-11.963 -194.234)"/>
      <path id="Trazado_1033475" data-name="Trazado 1033475" d="M.739,16.856H33.763V27.324l-10.6,1.843-10.6-1.843v-8.25a.739.739,0,1,0-1.479,0v8.872a.739.739,0,0,0,.613.728l11.336,1.972a.738.738,0,0,0,.253,0l11.336-1.972a.739.739,0,0,0,.613-.728V16.856H41.9v10.1a.739.739,0,0,0,1.479,0v-10.1h2.218a.739.739,0,0,0,.739-.739v-3.45a.739.739,0,0,0-.739-.739H43.374V11.68a.739.739,0,0,0-1.479,0v.246H.739A.739.739,0,0,0,0,12.666v3.45A.739.739,0,0,0,.739,16.856Zm44.113-3.45v1.972H43.374V13.405Zm-43.374,0H41.9v1.972H1.479Z" transform="translate(0 -10.941)"/>
      <path id="Trazado_1033476" data-name="Trazado 1033476" d="M42.639,354.089H12.562a.768.768,0,0,0-.082,0l-.02,0-.061.011-.022.006-.056.017-.022.008-.054.023-.013.006L.411,360.078a.739.739,0,0,0,0,1.322l11.821,5.91.013.006.054.023.022.008.056.017.022.006.061.011.02,0a.736.736,0,0,0,.082,0H42.639a3.7,3.7,0,0,0,3.695-3.695v-5.911A3.7,3.7,0,0,0,42.639,354.089ZM11.823,365.453l-4.432-2.216v-5l4.432-2.216Zm1.479-9.885H34.02V360h-18.5a.739.739,0,1,0,0,1.479h18.5v2.216a.739.739,0,1,0,1.479,0v-8.127H37.96V365.91H13.3ZM5.913,358.98V362.5l-3.518-1.759Zm38.942,4.714a2.218,2.218,0,0,1-2.216,2.216h-3.2V355.568h3.2a2.218,2.218,0,0,1,2.216,2.216v5.911Z" transform="translate(-0.002 -323.037)"/>
    </g>
  </g>
</svg>
