<svg xmlns="http://www.w3.org/2000/svg" xmlns:xlink="http://www.w3.org/1999/xlink" width="254.658" height="199.031" viewBox="0 0 254.658 199.031">
  <defs>
    <linearGradient id="linear-gradient" x1="0.5" x2="0.5" y2="1" gradientUnits="objectBoundingBox">
      <stop offset="0" stop-color="#2f50ba"/>
      <stop offset="1" stop-color="#18285d"/>
    </linearGradient>
    <clipPath id="clip-path">
      <rect id="Rectángulo_400902" data-name="Rectángulo 400902" width="86.865" height="77.01" fill="#ffc148"/>
    </clipPath>
    <clipPath id="clip-path-2">
      <rect id="Rectángulo_402594" data-name="Rectángulo 402594" width="204.359" height="185.174" transform="translate(-1 0)" fill="none" stroke="#707070" stroke-width="1"/>
    </clipPath>
  </defs>
  <g id="Grupo_1099593" data-name="Grupo 1099593" transform="translate(-1124.963 -2354.275)">
    <rect id="Rectángulo_402586" data-name="Rectángulo 402586" width="254.658" height="199.031" rx="14" transform="translate(1124.963 2354.275)" fill="none"/>
    <path id="Rectángulo_402593" data-name="Rectángulo 402593" d="M117.192,0h0A117.192,117.192,0,0,1,234.383,117.192V190.6a4.764,4.764,0,0,1-4.764,4.764H4.764A4.764,4.764,0,0,1,0,190.6V117.192A117.192,117.192,0,0,1,117.192,0Z" transform="translate(1145.238 2357.596)" fill="url(#linear-gradient)"/>
    <g id="Grupo_1099354" data-name="Grupo 1099354" transform="translate(1124.963 2354.393)">
      <g id="Grupo_1098724" data-name="Grupo 1098724" transform="translate(0 0)">
        <g id="Grupo_1098723" data-name="Grupo 1098723" clip-path="url(#clip-path)">
          <path id="Trazado_872910" data-name="Trazado 872910" d="M3.468,1.734A1.734,1.734,0,1,1,1.734,0,1.734,1.734,0,0,1,3.468,1.734" fill="#ffc148"/>
          <path id="Trazado_872911" data-name="Trazado 872911" d="M32.422,1.734A1.734,1.734,0,1,1,30.688,0a1.734,1.734,0,0,1,1.734,1.734" transform="translate(-12.274)" fill="#ffc148"/>
          <path id="Trazado_872912" data-name="Trazado 872912" d="M61.375,1.734A1.734,1.734,0,1,1,59.641,0a1.734,1.734,0,0,1,1.734,1.734" transform="translate(-24.548)" fill="#ffc148"/>
          <path id="Trazado_872913" data-name="Trazado 872913" d="M90.328,1.734A1.734,1.734,0,1,1,88.594,0a1.734,1.734,0,0,1,1.734,1.734" transform="translate(-36.822)" fill="#ffc148"/>
          <path id="Trazado_872914" data-name="Trazado 872914" d="M119.282,1.734A1.734,1.734,0,1,1,117.548,0a1.734,1.734,0,0,1,1.734,1.734" transform="translate(-49.096)" fill="#ffc148"/>
          <path id="Trazado_872915" data-name="Trazado 872915" d="M148.235,1.734A1.734,1.734,0,1,1,146.5,0a1.734,1.734,0,0,1,1.734,1.734" transform="translate(-61.37)" fill="#ffc148"/>
          <path id="Trazado_872916" data-name="Trazado 872916" d="M3.468,33.649a1.734,1.734,0,1,1-1.734-1.734,1.734,1.734,0,0,1,1.734,1.734" transform="translate(0 -13.529)" fill="#ffc148"/>
          <path id="Trazado_872917" data-name="Trazado 872917" d="M32.422,33.649a1.734,1.734,0,1,1-1.734-1.734,1.734,1.734,0,0,1,1.734,1.734" transform="translate(-12.274 -13.529)" fill="#ffc148"/>
          <path id="Trazado_872918" data-name="Trazado 872918" d="M61.375,33.649a1.734,1.734,0,1,1-1.734-1.734,1.734,1.734,0,0,1,1.734,1.734" transform="translate(-24.548 -13.529)" fill="#ffc148"/>
          <path id="Trazado_872919" data-name="Trazado 872919" d="M90.328,33.649a1.734,1.734,0,1,1-1.734-1.734,1.734,1.734,0,0,1,1.734,1.734" transform="translate(-36.822 -13.529)" fill="#ffc148"/>
          <path id="Trazado_872920" data-name="Trazado 872920" d="M119.282,33.649a1.734,1.734,0,1,1-1.734-1.734,1.735,1.735,0,0,1,1.734,1.734" transform="translate(-49.096 -13.529)" fill="#ffc148"/>
          <path id="Trazado_872921" data-name="Trazado 872921" d="M148.235,33.649a1.734,1.734,0,1,1-1.734-1.734,1.734,1.734,0,0,1,1.734,1.734" transform="translate(-61.37 -13.529)" fill="#ffc148"/>
          <path id="Trazado_872922" data-name="Trazado 872922" d="M3.468,65.564A1.734,1.734,0,1,1,1.734,63.83a1.734,1.734,0,0,1,1.734,1.734" transform="translate(0 -27.059)" fill="#ffc148"/>
          <path id="Trazado_872923" data-name="Trazado 872923" d="M32.422,65.564a1.734,1.734,0,1,1-1.734-1.734,1.734,1.734,0,0,1,1.734,1.734" transform="translate(-12.274 -27.059)" fill="#ffc148"/>
          <path id="Trazado_872924" data-name="Trazado 872924" d="M61.375,65.564a1.734,1.734,0,1,1-1.734-1.734,1.734,1.734,0,0,1,1.734,1.734" transform="translate(-24.548 -27.059)" fill="#ffc148"/>
          <path id="Trazado_872925" data-name="Trazado 872925" d="M90.328,65.564a1.734,1.734,0,1,1-1.734-1.734,1.734,1.734,0,0,1,1.734,1.734" transform="translate(-36.822 -27.059)" fill="#ffc148"/>
          <path id="Trazado_872926" data-name="Trazado 872926" d="M119.282,65.564a1.734,1.734,0,1,1-1.734-1.734,1.735,1.735,0,0,1,1.734,1.734" transform="translate(-49.096 -27.059)" fill="#ffc148"/>
          <path id="Trazado_872927" data-name="Trazado 872927" d="M148.235,65.564A1.734,1.734,0,1,1,146.5,63.83a1.734,1.734,0,0,1,1.734,1.734" transform="translate(-61.37 -27.059)" fill="#ffc148"/>
          <path id="Trazado_872928" data-name="Trazado 872928" d="M3.468,97.479a1.734,1.734,0,1,1-1.734-1.734,1.734,1.734,0,0,1,1.734,1.734" transform="translate(0 -40.588)" fill="#ffc148"/>
          <path id="Trazado_872929" data-name="Trazado 872929" d="M32.422,97.479a1.734,1.734,0,1,1-1.734-1.734,1.734,1.734,0,0,1,1.734,1.734" transform="translate(-12.274 -40.588)" fill="#ffc148"/>
          <path id="Trazado_872930" data-name="Trazado 872930" d="M61.375,97.479a1.734,1.734,0,1,1-1.734-1.734,1.734,1.734,0,0,1,1.734,1.734" transform="translate(-24.548 -40.588)" fill="#ffc148"/>
          <path id="Trazado_872931" data-name="Trazado 872931" d="M90.328,97.479a1.734,1.734,0,1,1-1.734-1.734,1.734,1.734,0,0,1,1.734,1.734" transform="translate(-36.822 -40.588)" fill="#ffc148"/>
          <path id="Trazado_872932" data-name="Trazado 872932" d="M119.282,97.479a1.734,1.734,0,1,1-1.734-1.734,1.735,1.735,0,0,1,1.734,1.734" transform="translate(-49.096 -40.588)" fill="#ffc148"/>
          <path id="Trazado_872933" data-name="Trazado 872933" d="M148.235,97.479a1.734,1.734,0,1,1-1.734-1.734,1.734,1.734,0,0,1,1.734,1.734" transform="translate(-61.37 -40.588)" fill="#ffc148"/>
          <path id="Trazado_872934" data-name="Trazado 872934" d="M3.468,129.394a1.734,1.734,0,1,1-1.734-1.734,1.734,1.734,0,0,1,1.734,1.734" transform="translate(0 -54.118)" fill="#ffc148"/>
          <path id="Trazado_872935" data-name="Trazado 872935" d="M32.422,129.394a1.734,1.734,0,1,1-1.734-1.734,1.734,1.734,0,0,1,1.734,1.734" transform="translate(-12.274 -54.118)" fill="#ffc148"/>
          <path id="Trazado_872936" data-name="Trazado 872936" d="M61.375,129.394a1.734,1.734,0,1,1-1.734-1.734,1.734,1.734,0,0,1,1.734,1.734" transform="translate(-24.548 -54.118)" fill="#ffc148"/>
          <path id="Trazado_872937" data-name="Trazado 872937" d="M90.328,129.394a1.734,1.734,0,1,1-1.734-1.734,1.734,1.734,0,0,1,1.734,1.734" transform="translate(-36.822 -54.118)" fill="#ffc148"/>
          <path id="Trazado_872938" data-name="Trazado 872938" d="M119.282,129.394a1.734,1.734,0,1,1-1.734-1.734,1.735,1.735,0,0,1,1.734,1.734" transform="translate(-49.096 -54.118)" fill="#ffc148"/>
          <path id="Trazado_872939" data-name="Trazado 872939" d="M148.235,129.394a1.734,1.734,0,1,1-1.734-1.734,1.734,1.734,0,0,1,1.734,1.734" transform="translate(-61.37 -54.118)" fill="#ffc148"/>
        </g>
      </g>
    </g>
    <g id="Enmascarar_grupo_1098679" data-name="Enmascarar grupo 1098679" transform="translate(1150.113 2362.693)" clip-path="url(#clip-path-2)">
      <g id="goal_3315578" transform="translate(35.234 22.901)">
        <g id="Grupo_1099592" data-name="Grupo 1099592" transform="translate(5.941 2.22)">
          <path id="Trazado_1033293" data-name="Trazado 1033293" d="M144.6,78.8A68.955,68.955,0,0,1,75.643,147.76q-2.086,0-4.139-.123a68.957,68.957,0,0,1,0-137.666q2.054-.121,4.139-.123A68.953,68.953,0,0,1,144.6,78.8Z" transform="translate(-6.687 -4.678)" fill="#ddeafb"/>
          <path id="Trazado_1033294" data-name="Trazado 1033294" d="M166.149,78.8A68.955,68.955,0,0,1,97.2,147.76q-2.086,0-4.139-.123a68.958,68.958,0,0,0,0-137.666q2.054-.121,4.139-.123A68.953,68.953,0,0,1,166.149,78.8Z" transform="translate(-28.241 -4.678)" fill="#cbe2ff"/>
          <path id="Trazado_1033295" data-name="Trazado 1033295" d="M131.4,85.377a49.187,49.187,0,0,1-49.185,49.185q-2.09,0-4.139-.173a49.188,49.188,0,0,1,0-98.026q2.046-.175,4.139-.173A49.187,49.187,0,0,1,131.4,85.377Z" transform="translate(-13.261 -11.251)" fill="#fe646f"/>
          <path id="Trazado_1033296" data-name="Trazado 1033296" d="M146.382,85.377A49.187,49.187,0,0,1,97.2,134.563q-2.09,0-4.139-.173a49.188,49.188,0,0,0,0-98.026q2.046-.175,4.139-.173A49.187,49.187,0,0,1,146.382,85.377Z" transform="translate(-28.241 -11.251)" fill="#fd4755"/>
          <path id="Trazado_1033297" data-name="Trazado 1033297" d="M117.477,92.315A28.336,28.336,0,1,1,89.153,63.988,28.325,28.325,0,0,1,117.477,92.315Z" transform="translate(-20.198 -18.189)" fill="#ddeafb"/>
          <path id="Trazado_1033298" data-name="Trazado 1033298" d="M125.52,92.315a28.336,28.336,0,0,1-32.462,28.024,28.329,28.329,0,0,0,0-56.048A28.336,28.336,0,0,1,125.52,92.315Z" transform="translate(-28.241 -18.189)" fill="#cbe2ff"/>
          <path id="Trazado_1033299" data-name="Trazado 1033299" d="M104.816,98.623a9.358,9.358,0,1,1-9.354-9.354A9.356,9.356,0,0,1,104.816,98.623Z" transform="translate(-26.506 -24.497)" fill="#fe646f"/>
          <path id="Trazado_1033300" data-name="Trazado 1033300" d="M106.659,98.623a9.358,9.358,0,0,1-13.167,8.544,9.357,9.357,0,0,0,0-17.088,9.358,9.358,0,0,1,13.167,8.544Z" transform="translate(-28.349 -24.497)" fill="#fd4755"/>
          <path id="Trazado_1033301" data-name="Trazado 1033301" d="M67.9,96.153l-5.508,5.505a9.741,9.741,0,0,1-13.777,0L43.952,97v21.647H10V91.775a8.259,8.259,0,0,1,8.256-8.263h3.935l8.911,1.453,8.911-1.453h3.935l9.022,9.025a3.361,3.361,0,0,0,4.635.12c.041-.038.086-.079.127-.12l3.273-3.273Z" transform="translate(-7.515 -23.061)" fill="#ffd15b"/>
          <g id="Grupo_1099591" data-name="Grupo 1099591" transform="translate(29.627 60.45)">
            <path id="Trazado_1033302" data-name="Trazado 1033302" d="M46.166,101.483h6.809v21.645H46.166Z" transform="translate(-46.166 -87.996)" fill="#ffc344"/>
            <path id="Trazado_1033303" data-name="Trazado 1033303" d="M55.728,92.536l-7.4-7.4,1.253-1.624h3.936l9.022,9.025a3.358,3.358,0,0,0,4.635.12c-5.395,5.263-10.138,1.187-11.445-.12Z" transform="translate(-46.705 -83.511)" fill="#ffc344"/>
            <path id="Trazado_1033304" data-name="Trazado 1033304" d="M80.866,99.223l-5.509,5.506a9.734,9.734,0,0,1-13.383.374,4.656,4.656,0,0,0,6.543-.341.157.157,0,0,0,.03-.033l8.912-8.912Z" transform="translate(-50.111 -86.582)" fill="#ffc344"/>
          </g>
          <path id="Trazado_1033305" data-name="Trazado 1033305" d="M44.068,63.137v6.382a8.91,8.91,0,0,1-8.908,8.911h0a8.742,8.742,0,0,1-2.523-.367c-.133-.038-.263-.079-.393-.124-.041-.016-.086-.028-.126-.044a8.913,8.913,0,0,1-5.866-8.376V63.137Z" transform="translate(-11.568 -17.976)" fill="#ffcebf"/>
          <path id="Trazado_1033306" data-name="Trazado 1033306" d="M46.19,63.136v6.382a8.908,8.908,0,0,1-8.906,8.912h-.006a8.784,8.784,0,0,1-2.521-.365,8.915,8.915,0,0,0,6.385-8.547V63.136Z" transform="translate(-13.692 -17.976)" fill="#ffb09e"/>
          <path id="Trazado_1033307" data-name="Trazado 1033307" d="M18.259,130.327v5.012a4.129,4.129,0,0,1-8.257,0v-5.012h8.257Z" transform="translate(-7.514 -34.743)" fill="#ffcebf"/>
          <path id="Trazado_1033308" data-name="Trazado 1033308" d="M77.969,89.6l3.544-3.544a4.129,4.129,0,0,1,5.839,5.839l-3.544,3.544Z" transform="translate(-24.476 -23.393)" fill="#ffcebf"/>
          <path id="Trazado_1033309" data-name="Trazado 1033309" d="M44.071,83.512,35.159,95.057l-2.526-3.273-6.385-8.272Z" transform="translate(-11.569 -23.061)" fill="#ddeafb"/>
          <path id="Trazado_1033310" data-name="Trazado 1033310" d="M46.193,83.511,37.284,95.057l-2.527-3.275,6.385-8.272Z" transform="translate(-13.692 -23.06)" fill="#cbe2ff"/>
          <path id="Trazado_1033311" data-name="Trazado 1033311" d="M48.006,54.164a5.38,5.38,0,0,1-2.65,4.635l-1.288.757H26.248V54.547a4.575,4.575,0,0,1,4.575-4.574h3.685a15.192,15.192,0,0,0,2.859-.272l2.571-.494,1.678-.323a5.377,5.377,0,0,1,6.391,5.28Z" transform="translate(-11.569 -14.395)" fill="#5a5a5a"/>
          <path id="Trazado_1033312" data-name="Trazado 1033312" d="M52.342,54.166a5.374,5.374,0,0,1-2.65,4.632l-1.289.757H43.628l1.286-.757a5.376,5.376,0,0,0-.64-9.591l1.678-.323A5.377,5.377,0,0,1,52.342,54.166Z" transform="translate(-15.906 -14.395)" fill="#444"/>
          <path id="Trazado_1033313" data-name="Trazado 1033313" d="M168.427,19.9l-17.07,17.07-1.13-9.785-.873-7.584L166,2.958l1.062,7.4Z" transform="translate(-42.29 -2.958)" fill="#fff0ad"/>
          <path id="Trazado_1033314" data-name="Trazado 1033314" d="M168.717,22.359l-17.07,17.07-1.13-9.785,16.831-16.831Z" transform="translate(-42.58 -5.418)" fill="#ffd15b"/>
          <path id="Trazado_1033315" data-name="Trazado 1033315" d="M186.035,27.965,169.392,44.607l-17.369-2,17.07-17.07,7.569,1.086Z" transform="translate(-42.956 -8.592)" fill="#fff0ad"/>
          <path id="Trazado_1033316" data-name="Trazado 1033316" d="M186.035,28.326,169.392,44.968l-17.369-2,12.01-3.355L176.662,26.98Z" transform="translate(-42.956 -8.953)" fill="#ffd15b"/>
          <path id="Trazado_1033317" data-name="Trazado 1033317" d="M21.005,130.327H46.7v45.2H21.005Z" transform="translate(-10.26 -34.743)" fill="#5a5a5a"/>
          <path id="Trazado_1033318" data-name="Trazado 1033318" d="M46.166,130.326h6.809v45.2H46.166Z" transform="translate(-16.539 -34.743)" fill="#444"/>
          <path id="Trazado_1033319" data-name="Trazado 1033319" d="M29.84,130.326h6.216v45.2H29.84Z" transform="translate(-12.465 -34.743)" fill="#444"/>
          <path id="Trazado_1033320" data-name="Trazado 1033320" d="M38.123,190.563V198.4H51.54a3.444,3.444,0,0,0,3.654-3.186,3.023,3.023,0,0,0-1.222-2.377l-3-2.279Z" transform="translate(-14.532 -49.775)" fill="#ddeafb"/>
          <path id="Trazado_1033321" data-name="Trazado 1033321" d="M57.2,195.22a3.444,3.444,0,0,1-3.654,3.185H46.738a3.444,3.444,0,0,0,3.654-3.185,2.839,2.839,0,0,0-.32-1.3,3.273,3.273,0,0,0-.9-1.074l-3-2.279h6.809l3,2.279a3.273,3.273,0,0,1,.9,1.074A2.839,2.839,0,0,1,57.2,195.22Z" transform="translate(-16.539 -49.775)" fill="#cbe2ff"/>
          <path id="Trazado_1033322" data-name="Trazado 1033322" d="M32.447,190.563V198.4H19.03a3.444,3.444,0,0,1-3.654-3.186,3.023,3.023,0,0,1,1.222-2.377l3-2.279Z" transform="translate(-8.855 -49.775)" fill="#ddeafb"/>
          <path id="Trazado_1033323" data-name="Trazado 1033323" d="M29.84,190.563h6.217V198.4H29.84Z" transform="translate(-12.465 -49.775)" fill="#cbe2ff"/>
        </g>
        <path id="Trazado_1033324" data-name="Trazado 1033324" d="M132.121,40.463a2.26,2.26,0,0,0,1.843-.642l16.642-16.642a2.271,2.271,0,0,0-1.267-3.806L134.06,17.18,131.867,1.9A2.27,2.27,0,0,0,128.061.634L112.693,16A71.232,71.232,0,0,0,6.186,95.063v7.753a6.427,6.427,0,0,0,5.5,6.309c.856,1.646,1.78,3.266,2.761,4.839v27.931l-2.137,1.621c-4.32,3.359-1.2,9.576,3.809,9.576H42.949c5.036,0,8.116-6.227,3.788-9.592l-2.116-1.606V140.8a71.23,71.23,0,0,0,94.891-94.392,2.243,2.243,0,0,0-4.069,1.888,66.733,66.733,0,0,1-90.822,87.5V81.574A31.141,31.141,0,0,0,74.9,106.915,30.553,30.553,0,0,0,98.067,56.432l11.57-11.625A46.921,46.921,0,0,1,74.9,123.288c-1.339,0-2.667-.056-3.953-.166a46.463,46.463,0,0,1-17.652-5.09,2.243,2.243,0,0,0-2.067,3.981,50.918,50.918,0,0,0,19.342,5.579c1.407.121,2.864.182,4.33.182A51.4,51.4,0,0,0,112.8,41.626l3.029-3.043Zm-.563-4.581-11.681-1.347,12.994-12.994,11.394,1.635ZM128.064,6.975,129.7,18.369,116.7,31.364l-1.347-11.682ZM70.89,9.752A66.981,66.981,0,0,1,110.9,20.174l1.758,15.241-3.025,3.039a51.378,51.378,0,0,0-67.306-1.912c-3.2-3.122-7.17-1.958-11.01-1.219a32.675,32.675,0,0,1-6.121.232,6.781,6.781,0,0,0-4.106,1.379A66.553,66.553,0,0,1,70.89,9.752ZM82.008,76.346a7.111,7.111,0,0,1-14.193.646,2.3,2.3,0,0,0,.535-2.635c1.343-1.343,2.918-2.616,3.562-4.465a7.161,7.161,0,0,1,6.277.153l-4.884,4.907a2.243,2.243,0,0,0,.007,3.172,2.275,2.275,0,0,0,3.172-.007l4.823-4.846a7.068,7.068,0,0,1,.7,3.075ZM67.232,69.133,65.274,71.09l-2.667-2.667,1.958-1.957A1.887,1.887,0,0,1,67.232,69.133Zm14.21-2.354A11.574,11.574,0,0,0,71.709,65.2a6.436,6.436,0,0,0-10.317-1.9l-6.817,6.817c-.019.02-.041.039-.045.043a1.12,1.12,0,0,1-1.544-.043l-2.626-2.627A26.347,26.347,0,0,1,74.9,50.263,25.963,25.963,0,0,1,91.73,56.441Zm-6.544-21A30.878,30.878,0,0,0,46.914,64.036l-2.949-2.95a2.242,2.242,0,0,0-1.586-.657h-3.91a11.1,11.1,0,0,0,2.215-6.665v-5.1a7.71,7.71,0,0,0,3.805-8.083,46.9,46.9,0,0,1,61.979,1.052L94.9,53.253A30.432,30.432,0,0,0,74.9,45.777ZM40.136,140.765h-8.36V100.047h8.36ZM18.929,100.047h8.36v40.718h-8.36ZM9.463,63.321a66.448,66.448,0,0,1,9.176-22.809,6.794,6.794,0,0,0-.26,1.862v11.39a11.154,11.154,0,0,0,2.22,6.665H16.686a10.454,10.454,0,0,0-7.223,2.892Zm24.416,1.594-4.347,5.631-4.347-5.631Zm-4.44-4.486a6.746,6.746,0,0,1-6.575-6.665V49.624H36.2v4.139a6.74,6.74,0,0,1-6.759,6.665Zm10.7-18.439c0,1.537-1.065,2.473-2.3,3.148H22.864V42.373A2.334,2.334,0,0,1,25.2,40.041a36.932,36.932,0,0,0,6.967-.313c1.982-.381,5.084-1.6,6.836-.155A3.126,3.126,0,0,1,40.136,41.99ZM10.672,100.047h3.771v2.768a1.887,1.887,0,0,1-3.771,0ZM14.7,147.664a.793.793,0,0,1,.334-.591l2.4-1.823H27.29v3.356H16.116C15.284,148.606,14.7,148.11,14.7,147.664Zm28.245.943H31.775v-3.356h9.849l2.381,1.807c.952.74-.286,1.549-1.056,1.549Zm1.016-74.035a2.265,2.265,0,0,0-3.829,1.586v19.4H18.929V76.535a2.243,2.243,0,0,0-4.486,0V95.561H10.672V70.934a6.023,6.023,0,0,1,6.013-6.02h2.833l8.238,10.673a2.265,2.265,0,0,0,3.551,0l8.238-10.673h1.9l8.366,8.368a5.662,5.662,0,0,0,7.933,0L59.435,71.6l3.716,3.716-3.922,3.92a7.577,7.577,0,0,1-10.6,0Zm57.012,1.775A26.111,26.111,0,0,1,74.9,102.43,26.4,26.4,0,0,1,50.433,85.392,12.078,12.078,0,0,0,62.4,82.4l1.738-1.737A11.694,11.694,0,0,0,74.9,87.944c9.036,0,14.686-10.381,9.687-17.963l10.31-10.359a25.964,25.964,0,0,1,6.084,16.725Z"/>
      </g>
    </g>
  </g>
</svg>
