<svg xmlns="http://www.w3.org/2000/svg" width="76.563" height="76.563" viewBox="0 0 76.563 76.563">
  <g id="Grupo_1099368" data-name="Grupo 1099368" transform="translate(-1020.967 -3093)">
    <g id="Grupo_1098742" data-name="Grupo 1098742" transform="translate(1020.967 3093)">
      <rect id="Rect치ngulo_400898" data-name="Rect치ngulo 400898" width="76.563" height="76.563" rx="38.281" transform="translate(0 0)" fill="#ffc148"/>
      <rect id="Rect치ngulo_400907" data-name="Rect치ngulo 400907" width="76.563" height="76.563" rx="38.281" transform="translate(0 0)" fill="none"/>
    </g>
    <g id="investigacion-del-consumidor" transform="translate(1024.768 3095.764)">
      <path id="Trazado_1033767" data-name="Trazado 1033767" d="M43.862,15.127a13.268,13.268,0,1,0,0,18.766A13.176,13.176,0,0,0,43.862,15.127ZM31.469,34.809V35.9a11.628,11.628,0,0,1-3.036-1.279V26.93h3.036Zm1.495,1.378V23.334H36V36.187a11.948,11.948,0,0,1-3.033,0Zm4.528-13.6V19.766h3.036V34.618A11.625,11.625,0,0,1,37.492,35.9V22.587Zm5.313,10.25q-.377.377-.782.715V19.018a.747.747,0,0,0-.747-.747H36.744a.747.747,0,0,0-.747.747v2.821H32.216a.747.747,0,0,0-.747.747v2.848H27.685a.747.747,0,0,0-.747.747v7.369q-.4-.338-.782-.715a11.789,11.789,0,0,1,0-16.653h0A11.774,11.774,0,0,1,42.805,32.837ZM55.677,58.968v1.277a.747.747,0,1,1-1.495,0V58.968a.747.747,0,1,1,1.495,0Zm-9.867,0v1.277a.747.747,0,1,1-1.495,0V58.968a.747.747,0,0,1,1.495,0ZM56.4,54a4.443,4.443,0,0,0,1.157-2.975V47.736a1.837,1.837,0,0,0,0-.63V44.721a7.571,7.571,0,0,0-15.142,0v6.3a4.443,4.443,0,0,0,1.17,2.991c-.135.069-.266.14-.392.213a3.926,3.926,0,0,0-2.276,3.431v2.588a.747.747,0,0,0,1.495,0V57.658c0-1.076.882-1.875,2.106-2.431a4.561,4.561,0,0,0,4.441,3.544h2.194a4.559,4.559,0,0,0,4.426-3.493c1.168.553,2.008,1.339,2.008,2.38v2.588a.747.747,0,0,0,1.495,0V57.658c0-1.525-.958-2.79-2.682-3.659ZM52.94,52.952v-.971a6.311,6.311,0,0,0,1.793-2.553h.837a2,2,0,0,0,.487-.062v1.657a2.958,2.958,0,0,1-1.2,2.366,14.235,14.235,0,0,0-1.915-.437Zm-6.769-6.087A5.423,5.423,0,0,0,50,44.81a5.423,5.423,0,0,0,3.824,2.055c-.208,2.044-1.313,4.672-3.824,4.672S46.379,48.909,46.171,46.866Zm-1.5.041a9.066,9.066,0,0,0,.152,1.026h-.4a.513.513,0,1,1,0-1.026Zm11.385.668a.521.521,0,0,1-.487.358h-.4a9.078,9.078,0,0,0,.145-1.026h.251a.521.521,0,0,1,.487.36Zm-6.075-8.928a6.082,6.082,0,0,1,6.075,6.075v.753a2,2,0,0,0-.487-.062h-.965a4.169,4.169,0,0,1-3.962-2.3.747.747,0,0,0-1.294,0,4.169,4.169,0,0,1-3.962,2.3h-.965a2,2,0,0,0-.515.069v-.76A6.083,6.083,0,0,1,49.983,38.646ZM43.906,51.023V49.358a2,2,0,0,0,.515.069h.852a7.407,7.407,0,0,0,.566,1.141,5.533,5.533,0,0,0,1.451,1.6v.743a14.406,14.406,0,0,0-2.169.485,2.957,2.957,0,0,1-1.215-2.375Zm7.243,6.253H48.954a3.064,3.064,0,0,1-3.018-2.553,14.145,14.145,0,0,1,2.182-.409.747.747,0,0,0,.667-.743v-.691A4.789,4.789,0,0,0,50,53.033a4.662,4.662,0,0,0,1.45-.226v.8a.747.747,0,0,0,.657.742,13.559,13.559,0,0,1,2.056.411,3.061,3.061,0,0,1-3.009,2.521ZM19.713,60.246a.748.748,0,1,1-.748-.748A.749.749,0,0,1,19.713,60.246Zm2.2-8.845v-.506A6.31,6.31,0,0,0,23.7,48.341h.837a2.006,2.006,0,0,0,1.068-3.706l.209-.746c.406-1.462.031-2.106-.472-2.553a2.818,2.818,0,0,0,.085-2.768c-.953-1.49-3.62-1.447-6.443-1.4h-.031c-1.96,0-4.567.614-6.012,2.331a3.936,3.936,0,0,0-.881,3.3l.314,1.8a2.006,2.006,0,0,0,1.012,3.74h.852a7.408,7.408,0,0,0,.566,1.141,5.533,5.533,0,0,0,1.451,1.6v.28a11.6,11.6,0,0,0-4.1,1.313,3.923,3.923,0,0,0-2.276,3.428v4.141a.747.747,0,0,0,1.495,0V56.1c0-1.524,1.774-2.494,3.781-3l1,3.331a.748.748,0,0,0,1.211.344l1.714-1.519L20.8,56.782a.748.748,0,0,0,1.212-.344l.983-3.272c1.9.519,3.559,1.478,3.559,2.939v4.141a.747.747,0,0,0,1.495,0V56.1c0-2.35-2.281-4.084-6.138-4.7Zm-2.824,1.772L17.8,51.805a4.8,4.8,0,0,0,1.162.141,4.662,4.662,0,0,0,1.45-.226v.034Zm5.455-6.326h-.4a9.078,9.078,0,0,0,.145-1.026h.251a.513.513,0,1,1,0,1.026Zm-11.15,0a.513.513,0,1,1,0-1.026h.253a9.066,9.066,0,0,0,.152,1.026h-.4Zm.963-3.515a2.258,2.258,0,0,0-.547.761l-.27-1.549a2.42,2.42,0,0,1,.552-2.084,6.572,6.572,0,0,1,4.874-1.8h.049c1.965-.031,4.656-.074,5.16.713.218.34,0,.967-.228,1.433a1.2,1.2,0,0,0,.36,1.605c.163.135.3.251.074,1.076l-.1.352a1.666,1.666,0,0,0-1.488-1.247c-.323-.024-.674-.054-1.042-.086-2.645-.229-5.938-.513-7.4.825Zm.75,1.741a.8.8,0,0,1,.26-.639,4.931,4.931,0,0,1,2.987-.624c1.1,0,2.3.1,3.27.187.375.032.732.063,1.06.087a.164.164,0,0,1,.156.166l-.009.814v.008c0,2.08-1.049,5.379-3.862,5.379s-3.862-3.3-3.862-5.379Zm2.153,9.816-.622-2.067.065-.009,1.316,1.4Zm3.661,0-.759-.673,1.286-1.373.083.012ZM14.78,57.96v2.285a.747.747,0,0,1-1.495,0V57.96a.747.747,0,0,1,1.495,0Zm9.867,0v2.285a.747.747,0,0,1-1.495,0V57.96a.747.747,0,0,1,1.495,0ZM60.674,29.646l-5.158-4.026a.747.747,0,0,0-1.207.589v.73H50.782a16.711,16.711,0,0,0,.177-2.429,16.479,16.479,0,0,0-28.13-11.653,16.64,16.64,0,0,0-2.14,2.626H14.652v-.727a.747.747,0,0,0-1.207-.589L8.288,18.193a.747.747,0,0,0,0,1.178L13.445,23.4a.747.747,0,0,0,1.207-.589v-.727h3.526A16.716,16.716,0,0,0,18,24.51,16.487,16.487,0,0,0,31.236,40.667v1.4H31.03a.747.747,0,0,0-.747.747v1.2a.747.747,0,0,0-.663.742v2.279a.747.747,0,0,0,.663.742V56.8a4.189,4.189,0,1,0,8.378,0V47.779a.747.747,0,0,0,.663-.742V44.758a.747.747,0,0,0-.663-.742v-1.2a.747.747,0,0,0-.747-.747h-.2v-1.4a16.328,16.328,0,0,0,8.422-4.507,16.63,16.63,0,0,0,2.141-2.626h6.036v.73a.747.747,0,0,0,1.208.589l5.158-4.029a.748.748,0,0,0,0-1.178ZM13.9,20.586a.747.747,0,0,0-.745.691l-3.2-2.5,3.2-2.5a.748.748,0,0,0,.745.692h5.911a16.272,16.272,0,0,0-1.346,3.608H13.9Zm17.21,24.919h6.714v.784H31.115Zm6.051-1.946v.451H31.778v-.451Zm0,13.245a2.694,2.694,0,1,1-5.388,0v-9.02h5.388Zm7.91-21.7a14.845,14.845,0,0,1-8.229,4.2.748.748,0,0,0-.631.738v2.022H32.731V40.042A.747.747,0,0,0,32.1,39.3a14.987,14.987,0,1,1,12.974-4.2ZM55.8,32.733a.748.748,0,0,0-.746-.694h-5.91a16.265,16.265,0,0,0,1.345-3.605h4.565a.748.748,0,0,0,.746-.694l3.2,2.5ZM19.713,57.857a.748.748,0,1,1-.748-.748A.749.749,0,0,1,19.713,57.857ZM51.936,21.334a.746.746,0,1,1,.748.748A.749.749,0,0,1,51.936,21.334Zm2.043,0a.748.748,0,1,1,.748.748A.749.749,0,0,1,53.979,21.334Zm2.046,0a.746.746,0,1,1,.745.748A.747.747,0,0,1,56.025,21.334Zm2.043,0a.748.748,0,1,1,.748.748A.749.749,0,0,1,58.068,21.334Zm-41.79,7.1a.748.748,0,1,1,.748-.748A.749.749,0,0,1,16.278,28.434Zm-2.043,0a.748.748,0,1,1,.748-.748A.749.749,0,0,1,14.235,28.434Zm-2.046,0a.748.748,0,1,1,.748-.748A.747.747,0,0,1,12.189,28.434Zm-2.043,0a.748.748,0,1,1,.748-.748A.749.749,0,0,1,10.146,28.434Z" transform="translate(0 0)"/>
      <path id="Trazado_1033768" data-name="Trazado 1033768" d="M159.208,362.884h.4a.513.513,0,1,0,0-1.026h-.251A9.087,9.087,0,0,1,159.208,362.884Z" transform="translate(-135.063 -316.038)" fill="#fcc9c0"/>
      <path id="Trazado_1033769" data-name="Trazado 1033769" d="M54.178,361.856a.513.513,0,1,0,0,1.026h.4a9.066,9.066,0,0,1-.152-1.026h-.253Z" transform="translate(-40.787 -316.036)" fill="#fcc9c0"/>
      <path id="Trazado_1033770" data-name="Trazado 1033770" d="M82.25,344.281l.009-.814a.165.165,0,0,0-.156-.166c-.328-.024-.685-.055-1.06-.087-.969-.084-2.166-.187-3.27-.187a4.931,4.931,0,0,0-2.987.624.8.8,0,0,0-.26.639c0,2.08,1.049,5.379,3.862,5.379s3.862-3.3,3.862-5.379Z" transform="translate(-59.422 -299.217)" fill="#ffdbd3"/>
      <path id="Trazado_1033771" data-name="Trazado 1033771" d="M121.86,429l.759.673.611-2.033-.083-.012Z" transform="translate(-101.702 -374.782)" fill="#f96353"/>
      <path id="Trazado_1033772" data-name="Trazado 1033772" d="M67.689,298.544c.368.032.718.062,1.042.086a1.666,1.666,0,0,1,1.488,1.247l.1-.352c.229-.825.089-.941-.074-1.076a1.2,1.2,0,0,1-.36-1.605c.224-.465.446-1.092.228-1.432-.5-.787-3.195-.745-5.16-.713H64.9a6.573,6.573,0,0,0-4.874,1.8,2.42,2.42,0,0,0-.552,2.084l.27,1.549a2.255,2.255,0,0,1,.547-.761C61.752,298.031,65.044,298.315,67.689,298.544Z" transform="translate(-45.94 -256.037)" fill="#656d78"/>
      <path id="Trazado_1033773" data-name="Trazado 1033773" d="M102.427,417.114a4.662,4.662,0,0,1-1.45.226,4.8,4.8,0,0,1-1.162-.141l1.283,1.367,1.329-1.418v-.034Z" transform="translate(-82.011 -365.394)" fill="#fcc9c0"/>
      <path id="Trazado_1033774" data-name="Trazado 1033774" d="M88.859,427.358l.622,2.067.759-.673-1.316-1.4Z" transform="translate(-72.225 -374.536)" fill="#f96353"/>
      <path id="Trazado_1033775" data-name="Trazado 1033775" d="M347.653,397.81a5.531,5.531,0,0,1-1.451-1.6,7.419,7.419,0,0,1-.566-1.141h-.852a2,2,0,0,1-.515-.069v1.665a2.957,2.957,0,0,0,1.215,2.375,14.4,14.4,0,0,1,2.169-.485Z" transform="translate(-300.363 -345.639)" fill="#b27946"/>
      <path id="Trazado_1033776" data-name="Trazado 1033776" d="M399.256,196.831a.747.747,0,0,1,.745.694l3.2-2.5-3.2-2.5a.747.747,0,0,1-.746.694h-4.565a16.267,16.267,0,0,1-1.345,3.605Z" transform="translate(-344.2 -164.791)" fill="#b4dd7f"/>
      <path id="Trazado_1033777" data-name="Trazado 1033777" d="M199.363,192.633a11.625,11.625,0,0,0,3.036,1.279v-8.967h-3.036Z" transform="translate(-170.93 -158.015)" fill="#ff826e"/>
      <path id="Trazado_1033778" data-name="Trazado 1033778" d="M230.686,340.682h5.388v.451h-5.388Z" transform="translate(-198.908 -297.123)" fill="#abc5c9"/>
      <path id="Trazado_1033779" data-name="Trazado 1033779" d="M241.8,154.118v10a11.948,11.948,0,0,0,3.033,0V151.27H241.8Z" transform="translate(-208.833 -127.936)" fill="#ff826e"/>
      <path id="Trazado_1033780" data-name="Trazado 1033780" d="M350.347,294.675a6.083,6.083,0,0,0-6.078,6.075v.76a2,2,0,0,1,.515-.069h.965a4.169,4.169,0,0,0,3.962-2.3.747.747,0,0,1,1.294,0,4.168,4.168,0,0,0,3.962,2.3h.965a2,2,0,0,1,.487.062v-.753A6.081,6.081,0,0,0,350.347,294.675Z" transform="translate(-300.363 -256.029)" fill="#b27946"/>
      <path id="Trazado_1033781" data-name="Trazado 1033781" d="M284.2,120.671v13.31a11.628,11.628,0,0,0,3.036-1.279V117.85H284.2Z" transform="translate(-246.711 -98.084)" fill="#ff826e"/>
      <path id="Trazado_1033782" data-name="Trazado 1033782" d="M30.32,89.566h4.565a16.276,16.276,0,0,1,1.346-3.608H30.32a.747.747,0,0,1-.745-.692l-3.2,2.5,3.2,2.5A.747.747,0,0,1,30.32,89.566Z" transform="translate(-16.415 -68.979)" fill="#b4dd7f"/>
      <path id="Trazado_1033783" data-name="Trazado 1033783" d="M149.233,72.1q.377.377.782.715V65.448a.747.747,0,0,1,.747-.747h3.784V61.852a.747.747,0,0,1,.747-.747h3.781V58.284a.747.747,0,0,1,.747-.747h4.531a.747.747,0,0,1,.747.747V72.817q.4-.338.782-.715a11.774,11.774,0,1,0-16.649-16.653h0A11.789,11.789,0,0,0,149.233,72.1Z" transform="translate(-123.077 -39.266)" fill="#69d6f4"/>
      <path id="Trazado_1033784" data-name="Trazado 1033784" d="M120.059,47.6a14.875,14.875,0,0,0,8.216,4.2.747.747,0,0,1,.629.738v2.022h3.484V52.54a.748.748,0,0,1,.631-.738,14.982,14.982,0,0,0,8.229-25.39A14.983,14.983,0,1,0,120.059,47.6Zm1.213-19.976a13.268,13.268,0,1,1,0,18.766A13.176,13.176,0,0,1,121.272,27.625Z" transform="translate(-96.173 -12.498)" fill="#cfd2d3"/>
      <path id="Trazado_1033785" data-name="Trazado 1033785" d="M230.686,389.274a2.694,2.694,0,1,0,5.388,0v-9.02h-5.388Z" transform="translate(-198.908 -332.47)" fill="#abc5c9"/>
      <path id="Trazado_1033786" data-name="Trazado 1033786" d="M224.478,358.909h6.714v.784h-6.714Z" transform="translate(-193.363 -313.404)" fill="#bacace"/>
      <path id="Trazado_1033787" data-name="Trazado 1033787" d="M345.189,373.059a9.062,9.062,0,0,1-.151-1.026h-.253a.513.513,0,1,0,0,1.026Z" transform="translate(-300.363 -325.127)" fill="#fcc9c0"/>
      <path id="Trazado_1033788" data-name="Trazado 1033788" d="M368.8,428.086v-.8a4.662,4.662,0,0,1-1.45.226,4.789,4.789,0,0,1-1.211-.152v.691a.747.747,0,0,1-.667.743,14.148,14.148,0,0,0-2.182.409,3.064,3.064,0,0,0,3.018,2.553H368.5a3.062,3.062,0,0,0,3.009-2.521,13.559,13.559,0,0,0-2.056-.411A.747.747,0,0,1,368.8,428.086Z" transform="translate(-317.352 -374.484)" fill="#fcc9c0"/>
      <path id="Trazado_1033789" data-name="Trazado 1033789" d="M369.311,359.129c2.512,0,3.616-2.629,3.824-4.672a5.423,5.423,0,0,1-3.824-2.055,5.423,5.423,0,0,1-3.824,2.055C365.7,356.5,366.8,359.129,369.311,359.129Z" transform="translate(-319.316 -307.591)" fill="#ffdbd3"/>
      <path id="Trazado_1033790" data-name="Trazado 1033790" d="M430.675,395.125a6.311,6.311,0,0,1-1.793,2.553v.971a14.236,14.236,0,0,1,1.915.437,2.958,2.958,0,0,0,1.2-2.366v-1.658a2,2,0,0,1-.487.062Z" transform="translate(-375.942 -345.697)" fill="#b27946"/>
      <path id="Trazado_1033791" data-name="Trazado 1033791" d="M450.209,372.033h-.251a9.079,9.079,0,0,1-.145,1.026h.4a.521.521,0,0,0,.487-.358v-.308A.521.521,0,0,0,450.209,372.033Z" transform="translate(-394.639 -325.127)" fill="#fcc9c0"/>
      <g id="Grupo_1099799" data-name="Grupo 1099799" transform="translate(10.63 53.107)">
        <path id="Trazado_1033792" data-name="Trazado 1033792" d="M48.553,437.242V433.1c0-1.461-1.661-2.42-3.559-2.939l-.983,3.272a.748.748,0,0,1-1.212.344l-1.714-1.519-1.714,1.519a.747.747,0,0,1-1.211-.344l-1-3.331c-2.007.5-3.781,1.474-3.781,3v4.141a.747.747,0,0,1-.747.747h3.4a.747.747,0,0,1-.747-.747v-2.285a.747.747,0,1,1,1.495,0v2.285a.747.747,0,0,1-.747.747h4.931a.748.748,0,1,1,.006,0H45.9a.747.747,0,0,1-.747-.747v-2.285a.747.747,0,1,1,1.495,0v2.285a.747.747,0,0,1-.747.747h3.4a.747.747,0,0,1-.747-.747ZM40.965,435.6a.748.748,0,1,1,.748-.748A.749.749,0,0,1,40.965,435.6Z" transform="translate(-32.629 -430.104)" fill="#ff826e"/>
        <path id="Trazado_1033793" data-name="Trazado 1033793" d="M339.162,454.977v-2.588c0-1.041-.841-1.827-2.008-2.38a4.559,4.559,0,0,1-4.426,3.493h-2.194a4.561,4.561,0,0,1-4.441-3.544c-1.224.555-2.106,1.355-2.106,2.431v2.588a.747.747,0,0,1-.747.747h3.4a.747.747,0,0,1-.747-.747V453.7a.747.747,0,0,1,1.495,0v1.277a.747.747,0,0,1-.747.747h9.867a.747.747,0,0,1-.747-.747V453.7a.747.747,0,1,1,1.495,0v1.277a.747.747,0,0,1-.747.747h3.4a.747.747,0,0,1-.747-.747Z" transform="translate(-292.208 -447.838)" fill="#ff826e"/>
      </g>
    </g>
  </g>
</svg>
