<svg xmlns="http://www.w3.org/2000/svg" width="76.563" height="76.563" viewBox="0 0 76.563 76.563">
  <g id="Grupo_1099375" data-name="Grupo 1099375" transform="translate(-1020.967 -3092.999)">
    <g id="Grupo_1098742" data-name="Grupo 1098742" transform="translate(1020.967 3093)">
      <rect id="Rectángulo_400898" data-name="Rectángulo 400898" width="76.563" height="76.563" rx="38.281" transform="translate(0 0)" fill="#ffc148"/>
      <rect id="Rectángulo_400907" data-name="Rectángulo 400907" width="76.563" height="76.563" rx="38.281" transform="translate(0 0)" fill="none"/>
    </g>
    <g id="audiences_16080805" transform="translate(1004.166 3095.529)">
      <g id="Grupo_1099800" data-name="Grupo 1099800" transform="translate(30.543 6.776)">
        <path id="Trazado_1033824" data-name="Trazado 1033824" d="M46.894,75.585H30.545V64.17a4.988,4.988,0,0,1,4.988-4.988h6.373a4.988,4.988,0,0,1,4.988,4.988V75.585Z" transform="translate(-30.545 -53.47)" fill="#f696c3"/>
        <path id="Trazado_1033825" data-name="Trazado 1033825" d="M33,76.786V65.371a4.98,4.98,0,0,1,.469-2.068,4.988,4.988,0,0,0-2.92,4.539V79.257H46.895V76.786Z" transform="translate(-30.546 -57.142)" fill="#f072ae"/>
        <rect id="Rectángulo_405210" data-name="Rectángulo 405210" width="3.27" height="3.71" transform="translate(6.54 7.757)" fill="#b25e1e"/>
        <path id="Trazado_1033826" data-name="Trazado 1033826" d="M78.815,14.972h0a3.27,3.27,0,0,1-3.27-3.27V10.047a3.27,3.27,0,0,1,3.27-3.27h0a3.27,3.27,0,0,1,3.27,3.27V11.7A3.27,3.27,0,0,1,78.815,14.972Z" transform="translate(-70.64 -6.777)" fill="#eb975d"/>
        <path id="Trazado_1033827" data-name="Trazado 1033827" d="M78.045,11.263V9.607a3.266,3.266,0,0,1,1.5-2.748,3.279,3.279,0,0,0-.73-.083h0a3.27,3.27,0,0,0-3.27,3.27V11.7a3.27,3.27,0,0,0,3.27,3.27h0a3.253,3.253,0,0,0,1.77-.521A3.27,3.27,0,0,1,78.045,11.263Z" transform="translate(-70.64 -6.776)" fill="#b25e1e"/>
        <path id="Trazado_1033828" data-name="Trazado 1033828" d="M70.354,122.591H60.545v-8.907l3.27-1.7h3.27l3.27,1.7Z" transform="translate(-57.275 -100.522)" fill="#5b92f2"/>
        <path id="Trazado_1033829" data-name="Trazado 1033829" d="M62.974,123.769v-7.782l-2.429,1.259V126.2h9.809v-2.429Z" transform="translate(-57.275 -104.084)" fill="#006dee"/>
        <path id="Trazado_1033830" data-name="Trazado 1033830" d="M347.192,75.585H330.843V64.17a4.988,4.988,0,0,1,4.988-4.988H342.2a4.988,4.988,0,0,1,4.988,4.988V75.585Z" transform="translate(-298.113 -53.47)" fill="#f696c3"/>
        <path id="Trazado_1033831" data-name="Trazado 1033831" d="M333.295,76.786V65.371a4.979,4.979,0,0,1,.469-2.068,4.988,4.988,0,0,0-2.92,4.539V79.257h16.349V76.786Z" transform="translate(-298.113 -57.142)" fill="#f072ae"/>
        <rect id="Rectángulo_405211" data-name="Rectángulo 405211" width="3.27" height="3.71" transform="translate(39.27 7.757)" fill="#ffe1ba"/>
        <path id="Trazado_1033832" data-name="Trazado 1033832" d="M379.113,14.972h0a3.27,3.27,0,0,1-3.27-3.27V10.047a3.27,3.27,0,0,1,3.27-3.27h0a3.27,3.27,0,0,1,3.27,3.27V11.7A3.27,3.27,0,0,1,379.113,14.972Z" transform="translate(-338.208 -6.777)" fill="#fef2e2"/>
        <path id="Trazado_1033833" data-name="Trazado 1033833" d="M378.343,11.263V9.607a3.266,3.266,0,0,1,1.5-2.748,3.279,3.279,0,0,0-.73-.083h0a3.27,3.27,0,0,0-3.27,3.27V11.7a3.27,3.27,0,0,0,3.27,3.27h0a3.253,3.253,0,0,0,1.77-.521A3.27,3.27,0,0,1,378.343,11.263Z" transform="translate(-338.208 -6.776)" fill="#ffe1ba"/>
        <path id="Trazado_1033834" data-name="Trazado 1033834" d="M370.652,122.591h-9.809v-8.907l3.27-1.7h3.27l3.27,1.7Z" transform="translate(-324.843 -100.522)" fill="#b6e6fa"/>
        <path id="Trazado_1033835" data-name="Trazado 1033835" d="M363.272,123.769v-7.782l-2.429,1.259V126.2h9.809v-2.429Z" transform="translate(-324.843 -104.084)" fill="#8ad8f6"/>
        <path id="Trazado_1033836" data-name="Trazado 1033836" d="M196.891,74.842H180.542V64.17a4.988,4.988,0,0,1,4.988-4.988H191.9a4.988,4.988,0,0,1,4.988,4.988V74.842Z" transform="translate(-164.193 -53.47)" fill="#f696c3"/>
        <path id="Trazado_1033837" data-name="Trazado 1033837" d="M182.995,76.043V65.371a4.979,4.979,0,0,1,.469-2.068,4.988,4.988,0,0,0-2.92,4.539V78.514h16.349V76.043Z" transform="translate(-164.194 -57.142)" fill="#f072ae"/>
        <rect id="Rectángulo_405212" data-name="Rectángulo 405212" width="3.27" height="3.71" transform="translate(22.888 7.757)" fill="#ffb680"/>
        <path id="Trazado_1033838" data-name="Trazado 1033838" d="M228.812,14.972h0a3.27,3.27,0,0,1-3.27-3.27V10.047a3.27,3.27,0,0,1,3.27-3.27h0a3.27,3.27,0,0,1,3.27,3.27V11.7A3.27,3.27,0,0,1,228.812,14.972Z" transform="translate(-204.289 -6.777)" fill="#ffdaaa"/>
        <path id="Trazado_1033839" data-name="Trazado 1033839" d="M228.043,11.263V9.607a3.266,3.266,0,0,1,1.5-2.748,3.279,3.279,0,0,0-.73-.083h0a3.27,3.27,0,0,0-3.27,3.27V11.7a3.27,3.27,0,0,0,3.27,3.27h0a3.253,3.253,0,0,0,1.77-.521A3.27,3.27,0,0,1,228.043,11.263Z" transform="translate(-204.29 -6.776)" fill="#ffb680"/>
        <path id="Trazado_1033840" data-name="Trazado 1033840" d="M220.351,126.479h-9.809V113.684l3.27-1.7h3.27l3.27,1.709Z" transform="translate(-190.924 -100.522)" fill="#c3f839"/>
        <path id="Trazado_1033841" data-name="Trazado 1033841" d="M210.543,129.055h9.809v-5.322a7.41,7.41,0,0,0-4.881,1.9,7.453,7.453,0,0,0-2.5-1.483v-8.166l-.711.369-1.718.891Z" transform="translate(-190.925 -104.084)" fill="#abe700"/>
        <path id="Trazado_1033842" data-name="Trazado 1033842" d="M121.891,225.2H105.542V214.531a4.988,4.988,0,0,1,4.988-4.988H116.9a4.988,4.988,0,0,1,4.988,4.988V225.2Z" transform="translate(-97.368 -187.443)" fill="#f696c3"/>
        <path id="Trazado_1033843" data-name="Trazado 1033843" d="M107.995,226.4V215.733a4.98,4.98,0,0,1,.469-2.068,4.988,4.988,0,0,0-2.92,4.539v10.672h16.349V226.4Z" transform="translate(-97.369 -191.116)" fill="#f072ae"/>
        <rect id="Rectángulo_405213" data-name="Rectángulo 405213" width="3.27" height="3.71" transform="translate(14.714 24.145)" fill="#ffb680"/>
        <path id="Trazado_1033844" data-name="Trazado 1033844" d="M153.812,165.333h0a3.27,3.27,0,0,1-3.27-3.27v-1.656a3.27,3.27,0,0,1,3.27-3.27h0a3.27,3.27,0,0,1,3.27,3.27v1.656A3.27,3.27,0,0,1,153.812,165.333Z" transform="translate(-137.463 -140.75)" fill="#ffdaaa"/>
        <path id="Trazado_1033845" data-name="Trazado 1033845" d="M153.043,161.625v-1.656a3.266,3.266,0,0,1,1.5-2.748,3.279,3.279,0,0,0-.73-.083h0a3.27,3.27,0,0,0-3.27,3.27v1.656a3.27,3.27,0,0,0,3.27,3.27h0a3.253,3.253,0,0,0,1.77-.521A3.27,3.27,0,0,1,153.043,161.625Z" transform="translate(-137.464 -140.75)" fill="#ffb680"/>
        <path id="Trazado_1033846" data-name="Trazado 1033846" d="M145.351,276.84h-9.809V264.046l3.27-1.7h3.27l3.27,1.709Z" transform="translate(-124.098 -234.495)" fill="#57758d"/>
        <path id="Trazado_1033847" data-name="Trazado 1033847" d="M135.543,279.417h9.809V274.1a7.41,7.41,0,0,0-4.881,1.9,7.452,7.452,0,0,0-2.5-1.483v-8.166l-.711.368-1.718.891Z" transform="translate(-124.099 -238.057)" fill="#4b6276"/>
        <path id="Trazado_1033848" data-name="Trazado 1033848" d="M271.893,225.2H255.544V214.531a4.988,4.988,0,0,1,4.988-4.988H266.9a4.988,4.988,0,0,1,4.988,4.988V225.2Z" transform="translate(-231.021 -187.443)" fill="#f696c3"/>
        <path id="Trazado_1033849" data-name="Trazado 1033849" d="M258,226.4V215.733a4.979,4.979,0,0,1,.469-2.068,4.988,4.988,0,0,0-2.92,4.539v10.672h16.349V226.4Z" transform="translate(-231.021 -191.116)" fill="#f072ae"/>
        <rect id="Rectángulo_405214" data-name="Rectángulo 405214" width="3.27" height="3.71" transform="translate(31.063 24.145)" fill="#b25e1e"/>
        <path id="Trazado_1033850" data-name="Trazado 1033850" d="M303.814,165.333h0a3.27,3.27,0,0,1-3.27-3.27v-1.656a3.27,3.27,0,0,1,3.27-3.27h0a3.27,3.27,0,0,1,3.27,3.27v1.656A3.27,3.27,0,0,1,303.814,165.333Z" transform="translate(-271.116 -140.75)" fill="#eb975d"/>
        <path id="Trazado_1033851" data-name="Trazado 1033851" d="M303.044,161.625v-1.656a3.266,3.266,0,0,1,1.5-2.748,3.28,3.28,0,0,0-.73-.083h0a3.27,3.27,0,0,0-3.27,3.27v1.656a3.27,3.27,0,0,0,3.27,3.27h0a3.253,3.253,0,0,0,1.77-.521A3.27,3.27,0,0,1,303.044,161.625Z" transform="translate(-271.116 -140.75)" fill="#b25e1e"/>
        <path id="Trazado_1033852" data-name="Trazado 1033852" d="M295.353,276.84h-9.809V264.046l3.27-1.7h3.27l3.27,1.709Z" transform="translate(-257.751 -234.495)" fill="#5b92f2"/>
        <path id="Trazado_1033853" data-name="Trazado 1033853" d="M285.544,279.417h9.809V274.1a7.41,7.41,0,0,0-4.881,1.9,7.452,7.452,0,0,0-2.5-1.483v-8.166l-.711.368-1.718.891Z" transform="translate(-257.751 -238.057)" fill="#006dee"/>
        <path id="Trazado_1033854" data-name="Trazado 1033854" d="M46.894,375.565H30.545V364.893a4.988,4.988,0,0,1,4.988-4.988h6.373a4.988,4.988,0,0,1,4.988,4.988v10.672Z" transform="translate(-30.545 -321.417)" fill="#f696c3"/>
        <path id="Trazado_1033855" data-name="Trazado 1033855" d="M33,376.766V366.094a4.98,4.98,0,0,1,.469-2.068,4.988,4.988,0,0,0-2.92,4.539v10.672H46.895v-2.471Z" transform="translate(-30.546 -325.088)" fill="#f072ae"/>
        <rect id="Rectángulo_405215" data-name="Rectángulo 405215" width="3.27" height="3.71" transform="translate(6.54 40.534)" fill="#ffb680"/>
        <path id="Trazado_1033856" data-name="Trazado 1033856" d="M78.815,315.7h0a3.27,3.27,0,0,1-3.27-3.27V310.77a3.27,3.27,0,0,1,3.27-3.27h0a3.27,3.27,0,0,1,3.27,3.27v1.656A3.27,3.27,0,0,1,78.815,315.7Z" transform="translate(-70.64 -274.723)" fill="#ffdaaa"/>
        <path id="Trazado_1033857" data-name="Trazado 1033857" d="M78.045,311.986V310.33a3.266,3.266,0,0,1,1.5-2.748,3.28,3.28,0,0,0-.73-.083h0a3.27,3.27,0,0,0-3.27,3.27v1.656a3.27,3.27,0,0,0,3.27,3.27h0a3.254,3.254,0,0,0,1.77-.521A3.27,3.27,0,0,1,78.045,311.986Z" transform="translate(-70.64 -274.722)" fill="#ffb680"/>
        <path id="Trazado_1033858" data-name="Trazado 1033858" d="M70.354,422.617H60.545v-8.209l3.27-1.7h3.27l3.27,1.7Z" transform="translate(-57.275 -368.469)" fill="#b6e6fa"/>
        <path id="Trazado_1033859" data-name="Trazado 1033859" d="M62.974,423.75v-7.039l-2.429,1.259v8.209h9.809V423.75Z" transform="translate(-57.275 -372.031)" fill="#8ad8f6"/>
        <path id="Trazado_1033860" data-name="Trazado 1033860" d="M196.893,375.565H180.544V364.893a4.988,4.988,0,0,1,4.988-4.988H191.9a4.988,4.988,0,0,1,4.988,4.988v10.672Z" transform="translate(-164.195 -321.417)" fill="#f696c3"/>
        <path id="Trazado_1033861" data-name="Trazado 1033861" d="M183,376.766V366.094a4.98,4.98,0,0,1,.469-2.068,4.988,4.988,0,0,0-2.92,4.539v10.672h16.349v-2.471Z" transform="translate(-164.195 -325.088)" fill="#f072ae"/>
        <rect id="Rectángulo_405216" data-name="Rectángulo 405216" width="3.27" height="3.71" transform="translate(22.888 40.534)" fill="#ffe1ba"/>
        <path id="Trazado_1033862" data-name="Trazado 1033862" d="M228.814,315.7h0a3.27,3.27,0,0,1-3.27-3.27V310.77a3.27,3.27,0,0,1,3.27-3.27h0a3.27,3.27,0,0,1,3.27,3.27v1.656A3.27,3.27,0,0,1,228.814,315.7Z" transform="translate(-204.291 -274.723)" fill="#fef2e2"/>
        <path id="Trazado_1033863" data-name="Trazado 1033863" d="M228.044,311.986V310.33a3.266,3.266,0,0,1,1.5-2.748,3.28,3.28,0,0,0-.73-.083h0a3.27,3.27,0,0,0-3.27,3.27v1.656a3.27,3.27,0,0,0,3.27,3.27h0a3.254,3.254,0,0,0,1.77-.521A3.27,3.27,0,0,1,228.044,311.986Z" transform="translate(-204.291 -274.722)" fill="#ffe1ba"/>
        <path id="Trazado_1033864" data-name="Trazado 1033864" d="M220.353,422.617h-9.809v-8.209l3.27-1.7h3.27l3.27,1.7Z" transform="translate(-190.925 -368.469)" fill="#c3f839"/>
        <path id="Trazado_1033865" data-name="Trazado 1033865" d="M212.973,423.75v-7.039l-2.429,1.259v8.209h9.809V423.75Z" transform="translate(-190.925 -372.031)" fill="#abe700"/>
        <path id="Trazado_1033866" data-name="Trazado 1033866" d="M346.891,375.565H330.542V364.893a4.988,4.988,0,0,1,4.988-4.988H341.9a4.988,4.988,0,0,1,4.988,4.988v10.672Z" transform="translate(-297.845 -321.417)" fill="#f696c3"/>
        <path id="Trazado_1033867" data-name="Trazado 1033867" d="M332.995,376.766V366.094a4.98,4.98,0,0,1,.469-2.068,4.988,4.988,0,0,0-2.92,4.539v10.672h16.349v-2.471Z" transform="translate(-297.845 -325.088)" fill="#f072ae"/>
        <rect id="Rectángulo_405217" data-name="Rectángulo 405217" width="3.27" height="3.71" transform="translate(39.237 40.534)" fill="#b25e1e"/>
        <path id="Trazado_1033868" data-name="Trazado 1033868" d="M378.812,315.7h0a3.27,3.27,0,0,1-3.27-3.27V310.77a3.27,3.27,0,0,1,3.27-3.27h0a3.27,3.27,0,0,1,3.27,3.27v1.656A3.27,3.27,0,0,1,378.812,315.7Z" transform="translate(-337.94 -274.723)" fill="#eb975d"/>
        <path id="Trazado_1033869" data-name="Trazado 1033869" d="M378.043,311.986V310.33a3.266,3.266,0,0,1,1.5-2.748,3.28,3.28,0,0,0-.73-.083h0a3.27,3.27,0,0,0-3.27,3.27v1.656a3.27,3.27,0,0,0,3.27,3.27h0a3.254,3.254,0,0,0,1.77-.521A3.27,3.27,0,0,1,378.043,311.986Z" transform="translate(-337.941 -274.722)" fill="#b25e1e"/>
        <path id="Trazado_1033870" data-name="Trazado 1033870" d="M370.351,422.617h-9.809v-8.209l3.27-1.7h3.27l3.27,1.7Z" transform="translate(-324.575 -368.469)" fill="#fee95d"/>
        <path id="Trazado_1033871" data-name="Trazado 1033871" d="M362.972,423.75v-7.039l-2.429,1.259v8.209h9.809V423.75Z" transform="translate(-324.576 -372.031)" fill="#f7d700"/>
        <line id="Línea_3836" data-name="Línea 3836" y2="1.635" transform="translate(14.714 31.141)" fill="none" stroke="#fff" stroke-miterlimit="10" stroke-width="1.5"/>
        <line id="Línea_3837" data-name="Línea 3837" y2="1.635" transform="translate(31.063 31.141)" fill="none" stroke="#fff" stroke-miterlimit="10" stroke-width="1.5"/>
      </g>
      <g id="Grupo_1099801" data-name="Grupo 1099801" transform="translate(30.543 6.855)">
        <path id="Trazado_1033872" data-name="Trazado 1033872" d="M78.815,315.7h0a3.27,3.27,0,0,1-3.27-3.27V310.77a3.27,3.27,0,0,1,3.27-3.27h0a3.27,3.27,0,0,1,3.27,3.27v1.656A3.27,3.27,0,0,1,78.815,315.7Z" transform="translate(-70.64 -274.802)" fill="none" stroke="#000" stroke-miterlimit="10" stroke-width="1.5"/>
        <line id="Línea_3838" data-name="Línea 3838" y2="3.711" transform="translate(6.54 40.455)" fill="none" stroke="#000" stroke-miterlimit="10" stroke-width="1.5"/>
        <line id="Línea_3839" data-name="Línea 3839" y2="3.711" transform="translate(9.81 40.455)" fill="none" stroke="#000" stroke-miterlimit="10" stroke-width="1.5"/>
        <path id="Trazado_1033873" data-name="Trazado 1033873" d="M70.354,422.617H60.545v-8.209l3.27-1.7h3.27l3.27,1.7Z" transform="translate(-57.275 -368.548)" fill="none" stroke="#000" stroke-miterlimit="10" stroke-width="1.5"/>
        <path id="Trazado_1033874" data-name="Trazado 1033874" d="M33.815,375.565h-3.27v-10.66a5,5,0,0,1,5-5h0" transform="translate(-30.545 -321.495)" fill="none" stroke="#000" stroke-miterlimit="10" stroke-width="1.5"/>
        <path id="Trazado_1033875" data-name="Trazado 1033875" d="M136.4,375.565h3.27v-10.66a5,5,0,0,0-5-5h0" transform="translate(-123.317 -321.495)" fill="none" stroke="#000" stroke-miterlimit="10" stroke-width="1.5"/>
        <path id="Trazado_1033876" data-name="Trazado 1033876" d="M228.814,315.7h0a3.27,3.27,0,0,1-3.27-3.27V310.77a3.27,3.27,0,0,1,3.27-3.27h0a3.27,3.27,0,0,1,3.27,3.27v1.656A3.27,3.27,0,0,1,228.814,315.7Z" transform="translate(-204.29 -274.802)" fill="none" stroke="#000" stroke-miterlimit="10" stroke-width="1.5"/>
        <line id="Línea_3840" data-name="Línea 3840" y2="3.711" transform="translate(22.889 40.455)" fill="none" stroke="#000" stroke-miterlimit="10" stroke-width="1.5"/>
        <line id="Línea_3841" data-name="Línea 3841" y2="3.711" transform="translate(26.158 40.455)" fill="none" stroke="#000" stroke-miterlimit="10" stroke-width="1.5"/>
        <path id="Trazado_1033877" data-name="Trazado 1033877" d="M220.353,422.617h-9.809v-8.209l3.27-1.7h3.27l3.27,1.7Z" transform="translate(-190.925 -368.548)" fill="none" stroke="#000" stroke-miterlimit="10" stroke-width="1.5"/>
        <path id="Trazado_1033878" data-name="Trazado 1033878" d="M183.814,375.565h-3.27v-10.66a5,5,0,0,1,5-5h0" transform="translate(-164.195 -321.495)" fill="none" stroke="#000" stroke-miterlimit="10" stroke-width="1.5"/>
        <path id="Trazado_1033879" data-name="Trazado 1033879" d="M286.4,375.565h3.27v-10.66a5,5,0,0,0-5-5h0" transform="translate(-256.968 -321.495)" fill="none" stroke="#000" stroke-miterlimit="10" stroke-width="1.5"/>
        <path id="Trazado_1033880" data-name="Trazado 1033880" d="M378.813,315.748h0a3.27,3.27,0,0,1-3.27-3.27V310.77a3.27,3.27,0,0,1,3.27-3.27h0a3.27,3.27,0,0,1,3.27,3.27v1.708A3.27,3.27,0,0,1,378.813,315.748Z" transform="translate(-337.94 -274.802)" fill="none" stroke="#000" stroke-miterlimit="10" stroke-width="1.5"/>
        <line id="Línea_3842" data-name="Línea 3842" y2="3.798" transform="translate(39.237 40.368)" fill="none" stroke="#000" stroke-miterlimit="10" stroke-width="1.5"/>
        <line id="Línea_3843" data-name="Línea 3843" y2="3.734" transform="translate(42.507 40.368)" fill="none" stroke="#000" stroke-miterlimit="10" stroke-width="1.5"/>
        <path id="Trazado_1033881" data-name="Trazado 1033881" d="M364.63,422.617h-4.087v-8.209l3.27-1.7h3.27l3.27,1.7v8.209h-4.087" transform="translate(-324.575 -368.548)" fill="none" stroke="#000" stroke-miterlimit="10" stroke-width="1.5"/>
        <path id="Trazado_1033882" data-name="Trazado 1033882" d="M333.813,374.746h-3.27V364.018a5.017,5.017,0,0,1,5-5.032h0" transform="translate(-297.845 -320.677)" fill="none" stroke="#000" stroke-miterlimit="10" stroke-width="1.5"/>
        <path id="Trazado_1033883" data-name="Trazado 1033883" d="M436.395,374.746h3.27V364.018a5.017,5.017,0,0,0-5-5.032h0" transform="translate(-390.618 -320.677)" fill="none" stroke="#000" stroke-miterlimit="10" stroke-width="1.5"/>
        <path id="Trazado_1033884" data-name="Trazado 1033884" d="M378.813,15.7h0a3.27,3.27,0,0,1-3.27-3.27V10.77a3.27,3.27,0,0,1,3.27-3.27h0a3.27,3.27,0,0,1,3.27,3.27v1.656A3.27,3.27,0,0,1,378.813,15.7Z" transform="translate(-337.94 -7.5)" fill="none" stroke="#000" stroke-miterlimit="10" stroke-width="1.5"/>
        <line id="Línea_3844" data-name="Línea 3844" y2="3.711" transform="translate(39.237 7.757)" fill="none" stroke="#000" stroke-miterlimit="10" stroke-width="1.5"/>
        <line id="Línea_3845" data-name="Línea 3845" y2="3.711" transform="translate(42.507 7.757)" fill="none" stroke="#000" stroke-miterlimit="10" stroke-width="1.5"/>
        <path id="Trazado_1033885" data-name="Trazado 1033885" d="M370.352,123.336h-9.809v-8.949l3.27-1.674h3.27l3.27,1.674Z" transform="translate(-324.575 -101.246)" fill="none" stroke="#000" stroke-miterlimit="10" stroke-width="1.5"/>
        <path id="Trazado_1033886" data-name="Trazado 1033886" d="M330.543,70.419V64.905a5,5,0,0,1,5-5h0" transform="translate(-297.845 -54.193)" fill="none" stroke="#000" stroke-miterlimit="10" stroke-width="1.5"/>
        <path id="Trazado_1033887" data-name="Trazado 1033887" d="M436.395,76.284h3.27V64.905a5,5,0,0,0-5-5h0" transform="translate(-390.618 -54.193)" fill="none" stroke="#000" stroke-miterlimit="10" stroke-width="1.5"/>
        <path id="Trazado_1033888" data-name="Trazado 1033888" d="M228.813,15.7h0a3.27,3.27,0,0,1-3.27-3.27V10.77a3.27,3.27,0,0,1,3.27-3.27h0a3.27,3.27,0,0,1,3.27,3.27v1.656A3.27,3.27,0,0,1,228.813,15.7Z" transform="translate(-204.289 -7.5)" fill="none" stroke="#000" stroke-miterlimit="10" stroke-width="1.5"/>
        <line id="Línea_3846" data-name="Línea 3846" y2="3.711" transform="translate(22.888 7.757)" fill="none" stroke="#000" stroke-miterlimit="10" stroke-width="1.5"/>
        <line id="Línea_3847" data-name="Línea 3847" y2="3.711" transform="translate(26.158 7.757)" fill="none" stroke="#000" stroke-miterlimit="10" stroke-width="1.5"/>
        <path id="Trazado_1033889" data-name="Trazado 1033889" d="M210.543,122.508v-8.121l3.27-1.674h3.27l3.27,1.674v8.121" transform="translate(-190.924 -101.246)" fill="none" stroke="#000" stroke-miterlimit="10" stroke-width="1.5"/>
        <path id="Trazado_1033890" data-name="Trazado 1033890" d="M180.543,70.518V64.906a5,5,0,0,1,5-5h0" transform="translate(-164.194 -54.194)" fill="none" stroke="#000" stroke-miterlimit="10" stroke-width="1.5"/>
        <path id="Trazado_1033891" data-name="Trazado 1033891" d="M289.665,70.518V64.906a5,5,0,0,0-5-5h0" transform="translate(-256.967 -54.194)" fill="none" stroke="#000" stroke-miterlimit="10" stroke-width="1.5"/>
        <path id="Trazado_1033892" data-name="Trazado 1033892" d="M78.813,15.7h0a3.27,3.27,0,0,1-3.27-3.27V10.77a3.27,3.27,0,0,1,3.27-3.27h0a3.27,3.27,0,0,1,3.27,3.27v1.656A3.27,3.27,0,0,1,78.813,15.7Z" transform="translate(-70.638 -7.5)" fill="none" stroke="#000" stroke-miterlimit="10" stroke-width="1.5"/>
        <line id="Línea_3848" data-name="Línea 3848" y2="3.711" transform="translate(6.54 7.757)" fill="none" stroke="#000" stroke-miterlimit="10" stroke-width="1.5"/>
        <line id="Línea_3849" data-name="Línea 3849" y2="3.711" transform="translate(9.809 7.757)" fill="none" stroke="#000" stroke-miterlimit="10" stroke-width="1.5"/>
        <path id="Trazado_1033893" data-name="Trazado 1033893" d="M70.352,123.281H60.543v-8.894l3.27-1.674h3.27l3.27,1.674Z" transform="translate(-57.273 -101.246)" fill="none" stroke="#000" stroke-miterlimit="10" stroke-width="1.5"/>
        <path id="Trazado_1033894" data-name="Trazado 1033894" d="M30.543,68.11v-3.2a5,5,0,0,1,5-5h0" transform="translate(-30.543 -54.193)" fill="none" stroke="#000" stroke-miterlimit="10" stroke-width="1.5"/>
        <path id="Trazado_1033895" data-name="Trazado 1033895" d="M33.813,156.666h-3.27v-6.485" transform="translate(-30.543 -134.63)" fill="none" stroke="#000" stroke-miterlimit="10" stroke-width="1.5"/>
        <path id="Trazado_1033896" data-name="Trazado 1033896" d="M139.664,70.518V64.906a5,5,0,0,0-5-5h0" transform="translate(-123.316 -54.194)" fill="none" stroke="#000" stroke-miterlimit="10" stroke-width="1.5"/>
        <path id="Trazado_1033897" data-name="Trazado 1033897" d="M153.814,165.467h0a3.27,3.27,0,0,1-3.27-3.27v-1.656a3.27,3.27,0,0,1,3.27-3.27h0a3.27,3.27,0,0,1,3.27,3.27V162.2A3.27,3.27,0,0,1,153.814,165.467Z" transform="translate(-137.465 -140.948)" fill="none" stroke="#000" stroke-miterlimit="10" stroke-width="1.5"/>
        <line id="Línea_3850" data-name="Línea 3850" y2="3.71" transform="translate(14.714 24.081)" fill="none" stroke="#000" stroke-miterlimit="10" stroke-width="1.5"/>
        <line id="Línea_3851" data-name="Línea 3851" y2="3.71" transform="translate(17.984 24.081)" fill="none" stroke="#000" stroke-miterlimit="10" stroke-width="1.5"/>
        <path id="Trazado_1033898" data-name="Trazado 1033898" d="M135.544,270.661V264.18l3.27-1.695h3.27l3.27,1.695v6.481" transform="translate(-124.1 -234.693)" fill="none" stroke="#000" stroke-miterlimit="10" stroke-width="1.5"/>
        <path id="Trazado_1033899" data-name="Trazado 1033899" d="M105.544,220.34v-5.661a5,5,0,0,1,5-5h0" transform="translate(-97.369 -187.642)" fill="none" stroke="#000" stroke-miterlimit="10" stroke-width="1.5"/>
        <path id="Trazado_1033900" data-name="Trazado 1033900" d="M214.665,220.34v-5.661a5,5,0,0,0-5-5h0" transform="translate(-190.142 -187.642)" fill="none" stroke="#000" stroke-miterlimit="10" stroke-width="1.5"/>
        <path id="Trazado_1033901" data-name="Trazado 1033901" d="M303.814,165.467h0a3.27,3.27,0,0,1-3.27-3.27v-1.656a3.27,3.27,0,0,1,3.27-3.27h0a3.27,3.27,0,0,1,3.27,3.27V162.2A3.27,3.27,0,0,1,303.814,165.467Z" transform="translate(-271.116 -140.948)" fill="none" stroke="#000" stroke-miterlimit="10" stroke-width="1.5"/>
        <line id="Línea_3852" data-name="Línea 3852" y2="3.71" transform="translate(31.063 24.081)" fill="none" stroke="#000" stroke-miterlimit="10" stroke-width="1.5"/>
        <line id="Línea_3853" data-name="Línea 3853" y2="3.71" transform="translate(34.333 24.081)" fill="none" stroke="#000" stroke-miterlimit="10" stroke-width="1.5"/>
        <path id="Trazado_1033902" data-name="Trazado 1033902" d="M285.544,270.661V264.18l3.27-1.695h3.27l3.27,1.695v6.481" transform="translate(-257.751 -234.693)" fill="none" stroke="#000" stroke-miterlimit="10" stroke-width="1.5"/>
        <path id="Trazado_1033903" data-name="Trazado 1033903" d="M255.544,220.34v-5.661a5,5,0,0,1,5-5h0" transform="translate(-231.021 -187.642)" fill="none" stroke="#000" stroke-miterlimit="10" stroke-width="1.5"/>
        <path id="Trazado_1033904" data-name="Trazado 1033904" d="M364.665,220.34v-5.661a5,5,0,0,0-5-5h0" transform="translate(-323.793 -187.642)" fill="none" stroke="#000" stroke-miterlimit="10" stroke-width="1.5"/>
      </g>
    </g>
  </g>
</svg>
