<svg xmlns="http://www.w3.org/2000/svg" xmlns:xlink="http://www.w3.org/1999/xlink" width="244.045" height="238.054" viewBox="0 0 244.045 238.054">
  <defs>
    <linearGradient id="linear-gradient" x1="-1.844" y1="3.468" x2="-2.135" y2="4.65" gradientUnits="objectBoundingBox">
      <stop offset="0" stop-color="#09005d"/>
      <stop offset="1" stop-color="#1a0f91"/>
    </linearGradient>
    <linearGradient id="linear-gradient-2" x1="-6.881" y1="10.137" x2="-7.203" y2="13.584" xlink:href="#linear-gradient"/>
    <linearGradient id="linear-gradient-3" x1="74.698" y1="-1.308" x2="71.861" y2="5.08" xlink:href="#linear-gradient"/>
    <linearGradient id="linear-gradient-4" x1="294.732" y1="-1.081" x2="295.739" y2="-1.081" gradientUnits="objectBoundingBox">
      <stop offset="0" stop-color="#febbba"/>
      <stop offset="1" stop-color="#ff928e"/>
    </linearGradient>
    <linearGradient id="linear-gradient-5" x1="94.278" y1="-0.073" x2="91.261" y2="0.782" xlink:href="#linear-gradient"/>
    <linearGradient id="linear-gradient-6" x1="185.542" y1="-3.175" x2="178.522" y2="4.39" xlink:href="#linear-gradient"/>
    <linearGradient id="linear-gradient-7" x1="343.594" y1="-0.682" x2="344.608" y2="-0.682" xlink:href="#linear-gradient-4"/>
    <linearGradient id="linear-gradient-8" x1="63.163" y1="-0.139" x2="61.145" y2="0.704" xlink:href="#linear-gradient"/>
    <linearGradient id="linear-gradient-9" x1="56.86" y1="0.222" x2="57.853" y2="0.222" xlink:href="#linear-gradient-4"/>
    <linearGradient id="linear-gradient-10" x1="-70.451" y1="1.023" x2="-68.471" y2="3.707" xlink:href="#linear-gradient-4"/>
    <linearGradient id="linear-gradient-11" x1="409.415" y1="-0.657" x2="411.416" y2="-2.437" xlink:href="#linear-gradient-4"/>
    <linearGradient id="linear-gradient-12" x1="45.312" y1="0.037" x2="46.314" y2="0.037" xlink:href="#linear-gradient-4"/>
    <linearGradient id="linear-gradient-13" x1="-0.103" y1="1.691" x2="0.844" y2="-0.028" xlink:href="#linear-gradient-4"/>
    <linearGradient id="linear-gradient-14" x1="33.139" y1="46.635" x2="32.815" y2="45.569" xlink:href="#linear-gradient-4"/>
    <linearGradient id="linear-gradient-15" x1="25.118" y1="34.693" x2="25.322" y2="35.876" xlink:href="#linear-gradient"/>
    <linearGradient id="linear-gradient-16" x1="106.614" y1="221.979" x2="105.667" y2="217.367" xlink:href="#linear-gradient-4"/>
    <linearGradient id="linear-gradient-17" x1="41.57" y1="-0.062" x2="42.084" y2="2.428" xlink:href="#linear-gradient"/>
    <linearGradient id="linear-gradient-18" x1="141.632" y1="0.5" x2="142.632" y2="0.5" xlink:href="#linear-gradient-4"/>
    <linearGradient id="linear-gradient-19" x1="9.972" y1="-0.407" x2="8.878" y2="0.795" xlink:href="#linear-gradient-4"/>
    <linearGradient id="linear-gradient-20" x1="-24.57" y1="1.893" x2="-25.182" y2="2.513" xlink:href="#linear-gradient"/>
    <linearGradient id="linear-gradient-21" x1="-115.065" y1="7.711" x2="-114.841" y2="6.801" xlink:href="#linear-gradient-4"/>
    <linearGradient id="linear-gradient-22" x1="-66.571" y1="5.644" x2="-65.362" y2="6.807" xlink:href="#linear-gradient-4"/>
    <linearGradient id="linear-gradient-23" x1="-76.74" y1="5.01" x2="-78.62" y2="6.915" xlink:href="#linear-gradient"/>
    <linearGradient id="linear-gradient-24" x1="-187.299" y1="18.446" x2="-183.923" y2="22.764" xlink:href="#linear-gradient-4"/>
    <linearGradient id="linear-gradient-25" x1="7.286" y1="1.272" x2="8.687" y2="0.135" xlink:href="#linear-gradient-4"/>
    <linearGradient id="linear-gradient-26" x1="16.645" y1="0.43" x2="17.64" y2="0.43" xlink:href="#linear-gradient"/>
    <linearGradient id="linear-gradient-27" x1="15.83" y1="0.377" x2="11.933" y2="0.708" xlink:href="#linear-gradient-4"/>
    <linearGradient id="linear-gradient-28" x1="15.631" y1="0.421" x2="16.624" y2="0.421" xlink:href="#linear-gradient"/>
    <linearGradient id="linear-gradient-29" x1="1.968" y1="-0.231" x2="0.935" y2="0.314" xlink:href="#linear-gradient"/>
    <linearGradient id="linear-gradient-30" x1="8.911" y1="0.789" x2="11.881" y2="-1.387" xlink:href="#linear-gradient-4"/>
    <linearGradient id="linear-gradient-31" x1="-9.604" y1="-1.469" x2="-10.014" y2="-0.35" xlink:href="#linear-gradient"/>
    <linearGradient id="linear-gradient-32" x1="-30.264" y1="-0.93" x2="-29.136" y2="-0.93" xlink:href="#linear-gradient-4"/>
    <linearGradient id="linear-gradient-33" x1="-4.436" y1="0.383" x2="-3.744" y2="-0.528" xlink:href="#linear-gradient"/>
    <linearGradient id="linear-gradient-34" x1="-8.487" y1="-1.105" x2="-9.728" y2="2.368" xlink:href="#linear-gradient"/>
    <linearGradient id="linear-gradient-35" x1="-8.81" y1="-1.332" x2="-7.877" y2="-1.332" gradientUnits="objectBoundingBox">
      <stop offset="0" stop-color="#4f52ff"/>
      <stop offset="1" stop-color="#4042e2"/>
    </linearGradient>
    <linearGradient id="linear-gradient-36" x1="-26.908" y1="-1.077" x2="-26.006" y2="-1.077" xlink:href="#linear-gradient-4"/>
    <linearGradient id="linear-gradient-37" x1="-3.986" y1="0.705" x2="-3.955" y2="-0.272" xlink:href="#linear-gradient"/>
    <linearGradient id="linear-gradient-38" x1="-6.41" y1="0.002" x2="-5.417" y2="0.002" xlink:href="#linear-gradient-4"/>
    <linearGradient id="linear-gradient-39" x1="-15.914" y1="-0.516" x2="-14.795" y2="-0.516" xlink:href="#linear-gradient-4"/>
    <linearGradient id="linear-gradient-40" x1="-4.698" y1="0.781" x2="-5.941" y2="7.598" xlink:href="#linear-gradient-4"/>
    <linearGradient id="linear-gradient-41" x1="-9.537" y1="-10.969" x2="-10.634" y2="-9.655" xlink:href="#linear-gradient-4"/>
    <linearGradient id="linear-gradient-42" x1="-11.662" y1="-10.689" x2="-10.387" y2="-10.689" xlink:href="#linear-gradient"/>
    <linearGradient id="linear-gradient-43" x1="-36.21" y1="-39.653" x2="-33.79" y2="-42.329" xlink:href="#linear-gradient-4"/>
    <linearGradient id="linear-gradient-44" x1="31.102" y1="22.047" x2="30.362" y2="24.484" xlink:href="#linear-gradient"/>
    <linearGradient id="linear-gradient-45" x1="23.832" y1="0.134" x2="23.432" y2="0.8" xlink:href="#linear-gradient"/>
  </defs>
  <g id="_12084748_20943892" data-name="12084748_20943892" transform="translate(-10.075 -21.776)">
    <g id="Illustration" transform="translate(10.075 21.777)">
      <g id="Grupo_1099633" data-name="Grupo 1099633" transform="translate(0 0)">
        <g id="Grupo_1099604" data-name="Grupo 1099604" transform="translate(0 0)">
          <g id="Grupo_1099602" data-name="Grupo 1099602">
            <circle id="Elipse_11851" data-name="Elipse 11851" cx="84.165" cy="84.165" r="84.165" transform="translate(0 119.027) rotate(-45)" fill="#aab8e3"/>
            <g id="Grupo_1099599" data-name="Grupo 1099599" transform="translate(43.599 43.597)">
              <circle id="Elipse_11852" data-name="Elipse 11852" cx="71.832" cy="71.832" r="71.832" transform="translate(3.598 3.598)" fill="#2f50ba"/>
              <path id="Trazado_1033326" data-name="Trazado 1033326" d="M773.33,1012.966a75.43,75.43,0,1,1,75.43-75.43A75.515,75.515,0,0,1,773.33,1012.966Zm0-147.262a71.832,71.832,0,1,0,71.831,71.832A71.913,71.913,0,0,0,773.33,865.7Z" transform="translate(-697.9 -862.106)" fill="#fff"/>
            </g>
            <g id="Grupo_1099600" data-name="Grupo 1099600" transform="translate(71.639 71.637)">
              <circle id="Elipse_11853" data-name="Elipse 11853" cx="43.792" cy="43.792" r="43.792" transform="translate(3.598 3.597)" fill="#2f50ba"/>
              <path id="Trazado_1033327" data-name="Trazado 1033327" d="M1103.189,1314.792a47.39,47.39,0,1,1,47.39-47.391A47.444,47.444,0,0,1,1103.189,1314.792Zm0-87.585a40.195,40.195,0,1,0,40.195,40.194A40.24,40.24,0,0,0,1103.189,1227.208Z" transform="translate(-1055.799 -1220.012)" fill="#fff"/>
            </g>
            <g id="Grupo_1099601" data-name="Grupo 1099601" transform="translate(98.464 98.462)">
              <circle id="Elipse_11854" data-name="Elipse 11854" cx="16.966" cy="16.966" r="16.966" transform="translate(3.598 3.598)" fill="#f7c148"/>
              <path id="Trazado_1033328" data-name="Trazado 1033328" d="M1418.768,1603.538a20.565,20.565,0,1,1,20.564-20.564A20.588,20.588,0,0,1,1418.768,1603.538Zm0-33.933a13.369,13.369,0,1,0,13.369,13.369A13.384,13.384,0,0,0,1418.768,1569.6Z" transform="translate(-1398.204 -1562.409)" fill="#fff"/>
            </g>
          </g>
          <g id="Grupo_1099603" data-name="Grupo 1099603" transform="translate(118.679 29.87)">
            <path id="Trazado_1033329" data-name="Trazado 1033329" d="M1889.669,802.6l1.787,1.787-67.67,67.67L1822,870.273Z" transform="translate(-1809.011 -793.537)" fill="url(#linear-gradient)"/>
            <path id="Trazado_1033330" data-name="Trazado 1033330" d="M1670.48,1609.643c1.025-1.025,5.858,3.808,4.833,4.833l-17.926,14.093a.712.712,0,0,1-1-1Z" transform="translate(-1656.227 -1537.22)" fill="url(#linear-gradient-2)"/>
            <path id="Trazado_1033331" data-name="Trazado 1033331" d="M2484.937,825.905l9.1.9-12.5,12.5a19.32,19.32,0,0,1-15.573,5.564h0Z" transform="translate(-2402.531 -815.014)" fill="#aab8e3"/>
            <path id="Trazado_1033332" data-name="Trazado 1033332" d="M2461.01,696l-.9-9.1-12.5,12.5a19.321,19.321,0,0,0-5.564,15.573h0Z" transform="translate(-2380.391 -686.895)" fill="#aab8e3"/>
          </g>
        </g>
        <g id="Grupo_1099615" data-name="Grupo 1099615" transform="translate(29.998 11.883)">
          <g id="Grupo_1099609" data-name="Grupo 1099609" transform="translate(0 5.935)">
            <g id="Grupo_1099605" data-name="Grupo 1099605" opacity="0.3">
              <path id="Trazado_1033333" data-name="Trazado 1033333" d="M577.455,541.611a.651.651,0,0,1-.921,0c-.494-.494-1.017-.974-1.554-1.427a.651.651,0,0,1-.086-.908l.008-.01a.651.651,0,0,1,.918-.078c.565.477,1.116.982,1.636,1.5a.651.651,0,0,1,.046.87A.624.624,0,0,1,577.455,541.611Zm-5.241-3.451c-.594-.375-1.209-.728-1.829-1.05a.651.651,0,1,1,.6-1.156c.653.339,1.3.71,1.925,1.1a.651.651,0,0,1,.2.9.62.62,0,0,1-.045.063A.651.651,0,0,1,572.214,538.159Zm-4.972-2.412c-.66-.233-1.339-.44-2.017-.615a.651.651,0,0,1,.326-1.261c.714.185,1.429.4,2.124.648a.651.651,0,1,1-.433,1.228Zm-5.386-1.24c-.7-.08-1.4-.13-2.1-.149a.651.651,0,1,1,.036-1.3c.737.021,1.482.074,2.216.157a.651.651,0,0,1-.147,1.294Zm-5.529-.009c-.7.077-1.4.185-2.085.321a.651.651,0,1,1-.252-1.278c.724-.143,1.463-.256,2.194-.337a.651.651,0,1,1,.143,1.294Zm-5.393,1.215c-.662.229-1.322.489-1.962.774a.651.651,0,0,1-.529-1.19c.674-.3,1.369-.573,2.065-.815a.651.651,0,0,1,.426,1.231Zm-16.611,17.575a.651.651,0,0,1-.466-.794c.186-.713.405-1.428.652-2.124a.651.651,0,0,1,1.227.435c-.235.661-.443,1.339-.619,2.017a.65.65,0,0,1-.794.466Zm11.625-15.2c-.594.37-1.179.771-1.739,1.191a.651.651,0,0,1-.781-1.042c.59-.442,1.206-.864,1.832-1.254a.651.651,0,1,1,.689,1.105Zm-9.722,9.85a.651.651,0,0,1-.276-.879c.341-.653.714-1.3,1.109-1.924a.651.651,0,1,1,1.1.7c-.376.592-.731,1.207-1.054,1.828a.644.644,0,0,1-.072.109A.651.651,0,0,1,536.227,547.942Zm5.393-6.417c-.5.494-.977,1.015-1.43,1.55a.651.651,0,0,1-1-.83l.009-.011c.477-.564.983-1.113,1.5-1.632a.651.651,0,0,1,.966.871Q541.644,541.5,541.62,541.524Z" transform="translate(-533.089 -533.056)" fill="#7e5f23"/>
              <path id="Trazado_1033334" data-name="Trazado 1033334" d="M525.457,821.406a.648.648,0,0,0,.143-.362c.025-.335.057-.675.1-1.01a.651.651,0,1,0-1.294-.148c-.041.353-.074.71-.1,1.063a.651.651,0,0,0,1.156.458Z" transform="translate(-524.299 -796.882)" fill="#7e5f23"/>
            </g>
            <g id="Grupo_1099606" data-name="Grupo 1099606" transform="translate(5.708 26.066)" opacity="0.3">
              <path id="Trazado_1033335" data-name="Trazado 1033335" d="M599,1064.263a.651.651,0,0,0-.021-.844c-.224-.25-.447-.509-.661-.77a.651.651,0,1,0-1.005.828c.226.274.461.547.7.81a.651.651,0,0,0,.92.05A.666.666,0,0,0,599,1064.263Z" transform="translate(-597.158 -1047.006)" fill="#7e5f23"/>
              <path id="Trazado_1033336" data-name="Trazado 1033336" d="M673.887,935.833a.651.651,0,0,1-.97-.869c.457-.51.9-1.048,1.319-1.6a.651.651,0,0,1,1.039.786q-.273.361-.557.71C674.449,935.189,674.169,935.518,673.887,935.833Zm2.445-4.407a.651.651,0,0,1-.249-.887c.338-.6.655-1.225.941-1.851a.651.651,0,1,1,1.185.54c-.3.659-.634,1.315-.99,1.948a.651.651,0,0,1-.887.249Zm-4.988,6.882c-.553.469-1.133.92-1.725,1.342a.651.651,0,0,1-.756-1.061c.562-.4,1.113-.829,1.638-1.274a.651.651,0,0,1,.928.906A.664.664,0,0,1,671.344,938.309Zm7.3-11.966a.651.651,0,0,1-.437-.81c.2-.66.369-1.337.51-2.012a.651.651,0,0,1,1.275.266c-.149.71-.329,1.423-.537,2.119a.65.65,0,0,1-.81.437ZM666.6,941.5c-.642.335-1.307.648-1.977.929a.651.651,0,1,1-.5-1.2c.636-.267,1.268-.564,1.878-.883a.651.651,0,1,1,.6,1.154Zm-5.333,2.077c-.7.188-1.419.348-2.132.476a.651.651,0,1,1-.23-1.282c.678-.122,1.36-.274,2.026-.452a.651.651,0,1,1,.336,1.258Zm-5.66.865c-.726.03-1.461.03-2.185,0a.651.651,0,0,1,.054-1.3c.688.029,1.386.029,2.076,0a.651.651,0,1,1,.054,1.3Zm-5.713-.39c-.715-.129-1.432-.29-2.133-.479a.651.651,0,1,1,.339-1.258c.665.179,1.346.332,2.025.455a.651.651,0,0,1-.232,1.282Zm-5.491-1.637c-.667-.283-1.331-.6-1.973-.936a.651.651,0,0,1,.607-1.152c.61.322,1.241.621,1.874.89a.651.651,0,1,1-.508,1.2Zm-4.992-2.8c-.435-.31-.865-.638-1.279-.974q-.225-.182-.445-.369a.644.644,0,0,1-.076-.918.651.651,0,0,1,.918-.076q.209.177.423.35c.394.319.8.63,1.216.926a.651.651,0,0,1,.151.908l-.024.032A.651.651,0,0,1,639.407,939.618Z" transform="translate(-634.293 -918.518)" fill="#7e5f23"/>
              <path id="Trazado_1033337" data-name="Trazado 1033337" d="M1171.258,867.866a.649.649,0,0,0,.144-.365c.024-.352.041-.711.051-1.067a.651.651,0,0,0-1.3-.036c-.009.338-.026.679-.048,1.013a.651.651,0,0,0,1.156.454Z" transform="translate(-1125.214 -865.765)" fill="#7e5f23"/>
            </g>
            <g id="Grupo_1099608" data-name="Grupo 1099608" transform="translate(6.218 6.33)">
              <path id="Trazado_1033338" data-name="Trazado 1033338" d="M641.877,627.263a.3.3,0,0,0-.259-.24l-3.675-.469A16.139,16.139,0,0,0,635,622.232l.91-3.589a.3.3,0,0,0-.128-.329l-3.716-2.436a.3.3,0,0,0-.353.014l-2.928,2.265a16.14,16.14,0,0,0-5.137-.974l-1.9-3.183a.3.3,0,0,0-.323-.142l-4.35.9a.3.3,0,0,0-.24.26l-.469,3.675a16.133,16.133,0,0,0-4.323,2.941l-3.589-.91a.3.3,0,0,0-.329.128l-2.436,3.716a.3.3,0,0,0,.014.353l2.265,2.928A16.135,16.135,0,0,0,607,632.99l-3.183,1.9a.3.3,0,0,0-.142.324l.9,4.35a.3.3,0,0,0,.259.24l3.675.469a16.134,16.134,0,0,0,2.941,4.323l-.91,3.589a.3.3,0,0,0,.128.329l3.716,2.436a.3.3,0,0,0,.353-.014l2.928-2.265a16.135,16.135,0,0,0,5.137.973l1.9,3.183a.3.3,0,0,0,.324.142l4.35-.9a.3.3,0,0,0,.24-.259l.469-3.675a16.135,16.135,0,0,0,4.323-2.941l3.589.91a.3.3,0,0,0,.329-.128l2.436-3.716a.3.3,0,0,0-.014-.353l-2.265-2.928a16.137,16.137,0,0,0,.973-5.137l3.183-1.9a.3.3,0,0,0,.142-.323Z" transform="translate(-603.668 -613.851)" fill="#b18632"/>
              <g id="Grupo_1099607" data-name="Grupo 1099607" transform="translate(15.093 15.096)">
                <path id="Trazado_1033339" data-name="Trazado 1033339" d="M803.809,814.287a4.464,4.464,0,1,1,.449-.478A4.472,4.472,0,0,1,803.809,814.287Zm-6.444-3.433a3.425,3.425,0,1,0,1.1-2.377,3.468,3.468,0,0,0-.348.37A3.4,3.4,0,0,0,797.365,810.854Z" transform="translate(-796.32 -806.534)" fill="#7e5f23"/>
              </g>
              <path id="Trazado_1033340" data-name="Trazado 1033340" d="M731.412,741.442a11.19,11.19,0,0,0,.666-.911h0q.1-.15.192-.3a11.072,11.072,0,0,0,.794-1.569l.009-.022.025-.063c.017-.041.032-.082.048-.123a.26.26,0,1,0-.486-.187,10.474,10.474,0,0,1-9.918,6.7,10.4,10.4,0,0,1-5.585-1.709,10.6,10.6,0,0,1-.87-.635,10.462,10.462,0,1,1,16.021-12.677.261.261,0,0,0,.469-.227,10.984,10.984,0,1,0-16.819,13.308,11.241,11.241,0,0,0,.913.666,10.985,10.985,0,0,0,14.541-2.251Z" transform="translate(-703.427 -714.937)" fill="#7e5f23"/>
            </g>
          </g>
          <g id="Grupo_1099614" data-name="Grupo 1099614" transform="translate(42.202)">
            <g id="Grupo_1099610" data-name="Grupo 1099610" opacity="0.3">
              <path id="Trazado_1033341" data-name="Trazado 1033341" d="M1424.56,541.982a.4.4,0,0,0,.019-.482c-.194-.281-.4-.56-.609-.829a.4.4,0,1,0-.634.5c.2.256.4.522.581.791a.4.4,0,0,0,.643.025Z" transform="translate(-1395.023 -533.998)" fill="#7e5f23"/>
              <path id="Trazado_1033342" data-name="Trazado 1033342" d="M1090.488,462.945a.4.4,0,0,1-.569,0,16.7,16.7,0,0,0-1.255-1.128q-.138-.112-.279-.221a.4.4,0,0,1-.071-.564.417.417,0,0,1,.565-.071q.148.115.292.231a17.472,17.472,0,0,1,1.316,1.183.4.4,0,0,1,.029.538C1090.507,462.925,1090.5,462.935,1090.488,462.945Zm-3.79-2.5a16.657,16.657,0,0,0-1.814-.938.4.4,0,0,1,.325-.736,17.438,17.438,0,0,1,1.9.983.4.4,0,0,1,.139.552.431.431,0,0,1-.033.047A.4.4,0,0,1,1086.7,460.445Zm-3.731-1.644a16.51,16.51,0,0,0-1.99-.463.4.4,0,0,1,.134-.793,17.346,17.346,0,0,1,2.087.486.4.4,0,0,1,.27.5.408.408,0,0,1-.073.138A.4.4,0,0,1,1082.967,458.8Zm-4.021-.677a16.582,16.582,0,0,0-2.042.038.4.4,0,0,1-.065-.8,17.443,17.443,0,0,1,2.141-.04.4.4,0,1,1-.035.8Zm-4.065.325a16.767,16.767,0,0,0-1.972.532.4.4,0,1,1-.257-.762,17.586,17.586,0,0,1,2.066-.558.4.4,0,0,1,.162.788Zm-3.862,1.3a16.487,16.487,0,0,0-1.78,1,.4.4,0,0,1-.436-.676,17.329,17.329,0,0,1,1.868-1.045.4.4,0,0,1,.349.725Zm-3.425,2.206a16.522,16.522,0,0,0-1.482,1.4.4.4,0,0,1-.588-.549,17.427,17.427,0,0,1,1.555-1.472.4.4,0,0,1,.571.562A.419.419,0,0,1,1067.594,461.958Zm-4.425,4.861a.4.4,0,0,1-.157-.547A17.455,17.455,0,0,1,1064,464.7c.054-.078.108-.154.164-.23a.4.4,0,0,1,.65.474c-.052.071-.1.143-.155.217a16.681,16.681,0,0,0-.943,1.506.393.393,0,0,1-.04.059A.4.4,0,0,1,1063.169,466.819Z" transform="translate(-1062.962 -457.305)" fill="#7e5f23"/>
            </g>
            <g id="Grupo_1099611" data-name="Grupo 1099611" transform="translate(11.212 17.449)" opacity="0.3">
              <path id="Trazado_1033343" data-name="Trazado 1033343" d="M1223.453,727.042a17.536,17.536,0,0,1-1.442,1.534.4.4,0,0,1-.552-.586,16.645,16.645,0,0,0,1.376-1.463.4.4,0,0,1,.622.51Zm.692-1.578a.4.4,0,0,1-.119-.556,16.821,16.821,0,0,0,.988-1.75.4.4,0,0,1,.723.353,17.613,17.613,0,0,1-1.036,1.834.391.391,0,0,1-.026.035A.4.4,0,0,1,1224.145,725.463Zm-3.754,4.46a17.436,17.436,0,0,1-1.771,1.14.4.4,0,0,1-.394-.7,16.663,16.663,0,0,0,1.689-1.087.4.4,0,1,1,.475.649Zm5.642-8.111a.4.4,0,0,1-.249-.511,16.537,16.537,0,0,0,.537-1.936.4.4,0,1,1,.787.167,17.211,17.211,0,0,1-.563,2.031.4.4,0,0,1-.511.249Zm-9.308,10.167a17.5,17.5,0,0,1-1.993.68.4.4,0,1,1-.214-.776,16.583,16.583,0,0,0,1.9-.649.4.4,0,0,1,.465.626A.406.406,0,0,1,1216.725,731.98Zm-4.053,1.116a17.569,17.569,0,0,1-2.1.184.4.4,0,1,1-.022-.8,16.807,16.807,0,0,0,2-.176.4.4,0,1,1,.118.8Zm-4.2.114a17.383,17.383,0,0,1-2.082-.325.4.4,0,0,1,.172-.786,16.478,16.478,0,0,0,1.985.309.4.4,0,1,1-.075.8Z" transform="translate(-1206.069 -715.989)" fill="#7e5f23"/>
              <path id="Trazado_1033344" data-name="Trazado 1033344" d="M1469.061,681.681a.4.4,0,0,0,.088-.218c.03-.343.049-.688.059-1.027a.4.4,0,1,0-.8-.022c-.009.323-.027.652-.056.979a.4.4,0,0,0,.713.288Z" transform="translate(-1447.797 -680.022)" fill="#7e5f23"/>
            </g>
            <g id="Grupo_1099613" data-name="Grupo 1099613" transform="translate(2.055 4.209)">
              <path id="Trazado_1033345" data-name="Trazado 1033345" d="M1114.755,520a.2.2,0,0,0-.174-.16l-2.459-.314a10.8,10.8,0,0,0-1.968-2.893l.609-2.4a.2.2,0,0,0-.086-.22l-2.487-1.63a.2.2,0,0,0-.236.009l-1.959,1.516a10.8,10.8,0,0,0-3.437-.651l-1.268-2.13a.2.2,0,0,0-.217-.1l-2.911.606a.2.2,0,0,0-.161.174l-.314,2.459a10.8,10.8,0,0,0-2.893,1.968l-2.4-.609a.2.2,0,0,0-.22.086l-1.63,2.487a.2.2,0,0,0,.009.236l1.516,1.959a10.8,10.8,0,0,0-.651,3.437l-2.13,1.268a.2.2,0,0,0-.1.216l.605,2.911a.2.2,0,0,0,.174.161l2.459.314a10.789,10.789,0,0,0,1.968,2.892l-.609,2.4a.2.2,0,0,0,.086.22l2.487,1.63a.2.2,0,0,0,.236-.009l1.96-1.516a10.8,10.8,0,0,0,3.437.651l1.268,2.13a.2.2,0,0,0,.216.1l2.911-.605a.2.2,0,0,0,.161-.174l.314-2.459a10.8,10.8,0,0,0,2.892-1.968l2.4.609a.2.2,0,0,0,.22-.086l1.63-2.487a.2.2,0,0,0-.009-.236l-1.516-1.96a10.783,10.783,0,0,0,.651-3.437l2.13-1.268a.2.2,0,0,0,.1-.216Z" transform="translate(-1089.187 -511.025)" fill="#b18632"/>
              <g id="Grupo_1099612" data-name="Grupo 1099612" transform="translate(10.048 10.048)">
                <path id="Trazado_1033346" data-name="Trazado 1033346" d="M1222.54,644.557a3.031,3.031,0,1,1,.309-.329A3.076,3.076,0,0,1,1222.54,644.557Zm-3.707-.726a2.238,2.238,0,0,0,3.162.134h0a2.238,2.238,0,0,0-3.029-3.3,2.238,2.238,0,0,0-.134,3.162Z" transform="translate(-1217.441 -639.276)" fill="#7e5f23"/>
              </g>
              <path id="Trazado_1033347" data-name="Trazado 1033347" d="M1172.17,593.8q.241-.3.455-.622a7.623,7.623,0,0,0,.712-1.37l.025-.065a.4.4,0,0,0-.75-.289,6.794,6.794,0,0,1-.659,1.283h0l-.044.066a6.709,6.709,0,0,1-2.466,2.218,6.809,6.809,0,0,1-1.714.621l-.015,0-.045.009a6.728,6.728,0,0,1-5.093-.967,6.845,6.845,0,0,1-.563-.411,6.773,6.773,0,1,1,10.372-8.207.4.4,0,0,0,.108.137.4.4,0,0,0,.616-.488,7.578,7.578,0,1,0-11.6,9.182,7.729,7.729,0,0,0,.63.46A7.588,7.588,0,0,0,1172.17,593.8Z" transform="translate(-1153.262 -575.928)" fill="#7e5f23"/>
            </g>
          </g>
        </g>
        <g id="Grupo_1099621" data-name="Grupo 1099621" transform="translate(26.974 107.726)">
          <path id="Trazado_1033348" data-name="Trazado 1033348" d="M805.405,3164.231s-.453,2.428-.686,4.835a1.659,1.659,0,0,0,1.57,1.812c3.206.164,10.063.49,12.525.4a.54.54,0,0,0,.482-.735,1.211,1.211,0,0,0-.612-.657l-11.281-5.316Z" transform="translate(-779.718 -3048)" fill="url(#linear-gradient-3)"/>
          <path id="Trazado_1033349" data-name="Trazado 1033349" d="M809.255,3140.979l.317,2.913s1.976.943,3.342-.084l-.791-3.251Z" transform="translate(-783.906 -3026.181)" fill="url(#linear-gradient-4)"/>
          <path id="Trazado_1033350" data-name="Trazado 1033350" d="M712.9,2446.783c-.156.758-1.162,37.912,2.651,54.6a.566.566,0,0,1-.338.655,9.853,9.853,0,0,1-3.241.626.974.974,0,0,1-.959-.708c-1.1-3.874-6.355-23.284-6.888-41.783-.6-20.671.007-.7.007-.7l.587-12.768Z" transform="translate(-686.773 -2386.687)" fill="url(#linear-gradient-5)"/>
          <path id="Trazado_1033351" data-name="Trazado 1033351" d="M630.443,3178.843a17.516,17.516,0,0,0-1.389,4.479,1.012,1.012,0,0,0,.879,1.22c1.058.114,2.687.263,3.993.267a1.009,1.009,0,0,0,1.01-1.116,8.512,8.512,0,0,0-1.943-4.687Z" transform="translate(-617.802 -3061.467)" fill="url(#linear-gradient-6)"/>
          <path id="Trazado_1033352" data-name="Trazado 1033352" d="M639.839,3129.3l.765,4.408a2.845,2.845,0,0,0,2.374.186l-.34-4.738Z" transform="translate(-627.763 -3015.674)" fill="url(#linear-gradient-7)"/>
          <path id="Trazado_1033353" data-name="Trazado 1033353" d="M601.614,2437.966c-3.436,19.575.242,48.464,1.522,54.124a.881.881,0,0,0,.7.676,5.914,5.914,0,0,0,2.542-.078.806.806,0,0,0,.587-.737c.222-4.564.168-32.594,3.3-43.642a2.516,2.516,0,0,1,.984-1.379l5.915-4.121.515-6.747Z" transform="translate(-591.216 -2376.88)" fill="url(#linear-gradient-8)"/>
          <g id="Grupo_1099616" data-name="Grupo 1099616" transform="translate(9.326 9.317)">
            <path id="Trazado_1033354" data-name="Trazado 1033354" d="M626.858,1971.1c-9.734-.254-20.5,2.361-20.5,2.361-3.064,16.906-.855,36.459-.855,36.459,7.518,2.048,16.051-1.056,16.051-1.056,1.32-7.065,7.355-26.928,7.355-26.928a32.07,32.07,0,0,0,11.938-3.664,20.876,20.876,0,0,1-4.044-8.669A32.66,32.66,0,0,1,626.858,1971.1Z" transform="translate(-604.731 -1956.28)" fill="#f7c148"/>
            <path id="Trazado_1033355" data-name="Trazado 1033355" d="M1033.03,1800.325a1.862,1.862,0,0,0-2.161-.629c-1.49,6.038-9.049,10.874-16.79,13.2a20.88,20.88,0,0,0,4.044,8.669C1031,1814.484,1033.03,1800.325,1033.03,1800.325Z" transform="translate(-982.009 -1799.573)" fill="url(#linear-gradient-9)"/>
          </g>
          <g id="Grupo_1099617" data-name="Grupo 1099617" transform="translate(58.208)">
            <path id="Trazado_1033356" data-name="Trazado 1033356" d="M1230.569,1691.016c.1.319-1.066.792-1.737-.515-.018-.624-.371-3.3.006-3.8a49.777,49.777,0,0,1,5.89-6.042.916.916,0,0,1,.1,1.273l-1.885,1.927a9.035,9.035,0,0,1,1.069,2.165,2.615,2.615,0,0,1-.279,1.923c-.333.587-.788,1.35-1.216,1.946A2.583,2.583,0,0,1,1230.569,1691.016Z" transform="translate(-1228.666 -1680.656)" fill="url(#linear-gradient-10)"/>
            <path id="Trazado_1033357" data-name="Trazado 1033357" d="M1246.12,1737.5l-1.715,1.426-.548,1.43,1.5,1.7a19.573,19.573,0,0,1,.922-3.457C1246.666,1737.985,1246.472,1737.685,1246.12,1737.5Z" transform="translate(-1242.668 -1733.048)" fill="url(#linear-gradient-11)"/>
          </g>
          <path id="Trazado_1033358" data-name="Trazado 1033358" d="M502.975,2028.3l-3.644-9.462s-9.153,6.092-10.723,13.911a21.521,21.521,0,0,1,7.885,2.194C497.2,2031.254,502.975,2028.3,502.975,2028.3Z" transform="translate(-488.38 -1992.346)" fill="#facf7b"/>
          <path id="Trazado_1033359" data-name="Trazado 1033359" d="M508.152,2200.9s-10.265,5.673-13.663.713a3.873,3.873,0,0,1-.681-3.016,21.521,21.521,0,0,0-7.885-2.194,10.814,10.814,0,0,0,1.1,7.423c5.929,11.1,22.452-.4,22.452-.4Z" transform="translate(-485.695 -2156)" fill="url(#linear-gradient-12)"/>
          <path id="Trazado_1033360" data-name="Trazado 1033360" d="M724.584,1886.621l-3.183,8.929a.323.323,0,0,0,.143.39,7.283,7.283,0,0,0,7.558-.436,1.519,1.519,0,0,0,.71-1.079l1.077-7.744Z" transform="translate(-702.917 -1870.485)" fill="url(#linear-gradient-13)"/>
          <g id="Grupo_1099618" data-name="Grupo 1099618" transform="translate(15.819 3.247)">
            <path id="Trazado_1033361" data-name="Trazado 1033361" d="M755.624,1781.556s3.341,6.436,2.88,9.018-4.675,2.356-8.336.221l-2.506-6.938Z" transform="translate(-742.957 -1776.898)" fill="url(#linear-gradient-14)"/>
            <path id="Trazado_1033362" data-name="Trazado 1033362" d="M695.019,1732.6a.264.264,0,0,0,.119-.385,6.89,6.89,0,0,1-.927-2.018s-.608-.4,1.565-.9,5.414-1.273,6.111-3.112c.68-1.793-1.018-6.334-3.83-2.755a.264.264,0,0,1-.418,0,2.721,2.721,0,0,0-3.3-1.109,2.5,2.5,0,0,0-1.732,2.4.262.262,0,0,1-.314.266,3.044,3.044,0,0,0-3.57,1.623c-.74,1.587-.278,2.494.148,2.94a.263.263,0,0,1-.117.436,1.583,1.583,0,0,0-1.134,1.8c.077,1.675,1.949,1.545,2.483,1.474a.264.264,0,0,1,.234.085c.452.51,2.49,2.676,4.715,2.956a.266.266,0,0,0,.282-.349l-.937-2.812a.265.265,0,0,1,.146-.327Z" transform="translate(-687.613 -1722.099)" fill="url(#linear-gradient-15)"/>
            <path id="Trazado_1033363" data-name="Trazado 1033363" d="M756.37,1851.38s-2.406-1.685-2.6-.287,2.162,2.047,3.334,1.537Z" transform="translate(-748.58 -1840.476)" fill="url(#linear-gradient-16)"/>
          </g>
          <g id="Grupo_1099620" data-name="Grupo 1099620" transform="translate(20.337 32.719)">
            <g id="Grupo_1099619" data-name="Grupo 1099619">
              <path id="Trazado_1033364" data-name="Trazado 1033364" d="M745.3,2119.432l5.592-19.527a.569.569,0,0,1,.482-.41c1.013-.118,3.949-.45,7.338-.737a83.367,83.367,0,0,1,11.657-.387.572.572,0,0,1,.467.823c-1.611,3.259-8.238,16.519-11.557,20.862a.573.573,0,0,1-.461.226l-12.974-.121A.572.572,0,0,1,745.3,2119.432Z" transform="translate(-745.279 -2098.282)" fill="url(#linear-gradient-17)"/>
              <path id="Trazado_1033365" data-name="Trazado 1033365" d="M756.463,2229.7s-.779-3.2-.465-4.339.923-2.6,2.952-2.273a29.667,29.667,0,0,1,4.423,1.179,1.162,1.162,0,0,1-1.663,1l.956.74s-.137,1.185-1.439.552l.889.981a1.036,1.036,0,0,1-1.518.349C759.641,2227.266,759.181,2230.083,756.463,2229.7Z" transform="translate(-755.09 -2213.266)" fill="url(#linear-gradient-18)"/>
            </g>
            <path id="Trazado_1033366" data-name="Trazado 1033366" d="M911.991,2159.45a1.641,1.641,0,1,0,1.641-1.641A1.641,1.641,0,0,0,911.991,2159.45Z" transform="translate(-898.93 -2153.146)" fill="#91b3fa"/>
            <path id="Trazado_1033367" data-name="Trazado 1033367" d="M820.087,2120.439l1.138-3.862a1.324,1.324,0,0,1,.995-.929c3.568-.745,13.335-.9,13.433-.9l-.006-.437c-.4.006-9.907.16-13.516.913a1.759,1.759,0,0,0-1.324,1.233l-1.138,3.862Z" transform="translate(-813.84 -2113.053)" fill="#bdd0fb"/>
          </g>
        </g>
        <g id="Grupo_1099632" data-name="Grupo 1099632" transform="translate(122.526 107.021)">
          <g id="Grupo_1099622" data-name="Grupo 1099622" transform="translate(75.78)">
            <path id="Trazado_1033368" data-name="Trazado 1033368" d="M2673.161,1819.565a.37.37,0,0,1,.684.073c.332,1.193,1.134,3.276,2.818,4.016.085.037.165.075.243.113a.857.857,0,0,0-.105-.775c-.524-.8.421-1.893.421-1.893a2.438,2.438,0,0,0,.794,1.569,2.343,2.343,0,0,1,.5,2.636c-.912,3.541-2.277,8.223,3.04,11.644s12.8-6.456,12.8-6.456l-3.716,11.781s-5.736,4.233-12.408-1.719-2.25-14.613-2.25-14.613S2670.9,1823.888,2673.161,1819.565Z" transform="translate(-2672.582 -1807.794)" fill="url(#linear-gradient-19)"/>
            <path id="Trazado_1033369" data-name="Trazado 1033369" d="M2933.008,1677.039s-1.541-6.909,6.374-5.08c0,0,3.842-.628,4.037,3,0,0,2.476,1.632.663,4.77,0,0,7.36-2.843,10.566,3.608s.259,10-2.831,10.925a3.077,3.077,0,0,1,1.318,4.1c-1.185,2.838-7.186,4.839-10.731,1.387,0,0-10.087,1.333-9.885-5.792,0,0-4.691-3.03.236-8.918S2933.008,1677.039,2933.008,1677.039Z" transform="translate(-2910.297 -1671.651)" fill="url(#linear-gradient-20)"/>
            <path id="Trazado_1033370" data-name="Trazado 1033370" d="M2884.25,1939.846a10.855,10.855,0,0,1,10.626,2.708,2.727,2.727,0,0,1,.786,2.718c-1.183,4.355-4.3,17.223-1.568,22.791,0,0-4.823,5.317-10.085,1.032,0,0-2.361-10.289-5.453-14.806-2.135-3.118,3.4-11.71,4.8-13.786A1.644,1.644,0,0,1,2884.25,1939.846Z" transform="translate(-2861.974 -1918.443)" fill="#ffc148"/>
            <path id="Trazado_1033371" data-name="Trazado 1033371" d="M2975.933,1834.4s2.352,6.653,2.528,9.588a5.03,5.03,0,0,1-5.048-.813,73.891,73.891,0,0,0-.629-7.835Z" transform="translate(-2949.265 -1821.648)" fill="url(#linear-gradient-21)"/>
            <path id="Trazado_1033372" data-name="Trazado 1033372" d="M2928.374,1718.039s-6.152,8.609-2.475,11.11,8.057-3.617,8.057-3.617,1.427-4.712-.066-6.311S2928.374,1718.039,2928.374,1718.039Z" transform="translate(-2904.973 -1714.359)" fill="url(#linear-gradient-22)"/>
            <path id="Trazado_1033373" data-name="Trazado 1033373" d="M2969.414,1691s-2.826.67-3.222,1.948,4.008,2.464,5.242,2.522l.994,5.16s2.939-4.854,1.775-7.658S2969.414,1691,2969.414,1691Z" transform="translate(-2943.166 -1689.382)" fill="url(#linear-gradient-23)"/>
            <path id="Trazado_1033374" data-name="Trazado 1033374" d="M3027.3,1787.607s2.394-2.773,3.346-.965-2.155,3.165-3.231,2.278Z" transform="translate(-2999.51 -1777.069)" fill="url(#linear-gradient-24)"/>
            <path id="Trazado_1033375" data-name="Trazado 1033375" d="M2859.821,2593.9c.018.467-.8,4.172-1.249,6.148a3.26,3.26,0,0,0,.35,2.335l15.457,26.015a3.546,3.546,0,0,1,.406,1.012,22.319,22.319,0,0,1,.564,6.935l-.8,1.66,3.458-.785.752-9.287-.979-.6a4.656,4.656,0,0,1-1.881-2.2c-1.4-3.4-4.869-12.037-5.763-16.249-1.017-4.787-6.332-8.675-6.332-8.675l.934-2.208Z" transform="translate(-2843.927 -2521.648)" fill="url(#linear-gradient-25)"/>
            <path id="Trazado_1033376" data-name="Trazado 1033376" d="M3058.521,3026.053a21.137,21.137,0,0,1-2.087-4.114c-.22-1.153-.831-3.187-1.983-2.575a67.645,67.645,0,0,0-.356,7.786c.187,2.188-2.473,2.117-2.473,2.117a2.487,2.487,0,0,0-1.27.64.623.623,0,0,0,.417,1.048,14.974,14.974,0,0,0,3.705-.21,1.132,1.132,0,0,0,.914-1.046l.384-6.444,2.356,2.975Z" transform="translate(-3020.597 -2913.674)" fill="url(#linear-gradient-26)"/>
            <path id="Trazado_1033377" data-name="Trazado 1033377" d="M2955.476,2639.424s.545,23.271.619,26.575-.522,10.629-3.835,12.818l1.442,1.067a19.269,19.269,0,0,0,3.562-4.478,27.23,27.23,0,0,1,2.575-3.916l-.656-1.343a2.958,2.958,0,0,1-.24-1.9c.715-3.465,3.1-14.991,3.756-17.473a11.181,11.181,0,0,0-1.852-10.118C2958.17,2637.386,2955.476,2639.424,2955.476,2639.424Z" transform="translate(-2930.348 -2563.026)" fill="url(#linear-gradient-27)"/>
            <path id="Trazado_1033378" data-name="Trazado 1033378" d="M2939.425,3058.99a.2.2,0,0,0,.2-.175,30.089,30.089,0,0,1,.945-4.691c.43-.922,1.835-4.8,0-5.134,0,0-4.565,6.67-5.442,7.57a1.719,1.719,0,0,1-1.983.314,3.3,3.3,0,0,0-1.5,1.075.6.6,0,0,0,.477.971l3.075.029a2.163,2.163,0,0,0,2.028-1.363,11.557,11.557,0,0,1,2.555-4.215l-.563,5.392a.206.206,0,0,0,.2.227Z" transform="translate(-2911.239 -2941.082)" fill="url(#linear-gradient-28)"/>
            <path id="Trazado_1033379" data-name="Trazado 1033379" d="M2862.171,2268.217a10.915,10.915,0,0,1-.372,5.847l-6.6,23.061a.714.714,0,0,0,.446.869,44.052,44.052,0,0,0,17.334,2.1,1.006,1.006,0,0,0,.917-.783c.584-2.629,2.577-11.6,2.988-13.442,1.563-7.023,3.309-14.6-4.371-19.177C2868.97,2268.21,2865.669,2269.1,2862.171,2268.217Z" transform="translate(-2840.863 -2220.075)" fill="url(#linear-gradient-29)"/>
            <path id="Trazado_1033380" data-name="Trazado 1033380" d="M3026.512,1984.163s7.514,6.245,9.378,14.777-10.98,9.44-10.98,9.44-1.744-1.947-3.814-1.252-.16-3.4,2.262-3.388,1.3,1.926,4.727.374c3.338-1.512,5.4-6.187-3.115-13.275a3.863,3.863,0,0,1-1.125-1.531C3022.191,1985.142,3023.5,1982.412,3026.512,1984.163Z" transform="translate(-2992.979 -1959.183)" fill="url(#linear-gradient-30)"/>
          </g>
          <g id="Grupo_1099631" data-name="Grupo 1099631" transform="translate(0 21.164)">
            <g id="Grupo_1099625" data-name="Grupo 1099625" transform="translate(45.763 60.667)">
              <g id="Grupo_1099623" data-name="Grupo 1099623" transform="translate(13.85 6.902)">
                <rect id="Rectángulo_405176" data-name="Rectángulo 405176" width="2.68" height="28.984" fill="#aab8e3"/>
              </g>
              <g id="Grupo_1099624" data-name="Grupo 1099624" transform="translate(3.453 34.7)">
                <path id="Trazado_1033381" data-name="Trazado 1033381" d="M2357,3160.808h-23.474v-1.551a.194.194,0,0,1,.194-.194h23.087a.194.194,0,0,1,.194.194Z" transform="translate(-2333.525 -3159.063)" fill="#aab8e3"/>
              </g>
              <path id="Trazado_1033382" data-name="Trazado 1033382" d="M2320.816,2721.979a3.072,3.072,0,0,1-3.063,3.063h-25.241a3.072,3.072,0,0,1-3.063-3.063v-2.77a3.072,3.072,0,0,1,3.063-3.063h25.241a3.072,3.072,0,0,1,3.063,3.063Z" transform="translate(-2289.449 -2716.146)" fill="#aab8e3"/>
            </g>
            <g id="Grupo_1099627" data-name="Grupo 1099627" transform="translate(21.24)">
              <path id="Trazado_1033383" data-name="Trazado 1033383" d="M2083.752,3053.814s-8.665,3.732-8.168,7.638c0,0,8.957-1.718,10.56-4.278s.719-4.043.719-4.043Z" transform="translate(-2067.798 -2966.062)" fill="url(#linear-gradient-31)"/>
              <path id="Trazado_1033384" data-name="Trazado 1033384" d="M2163.3,3007.4l.44,3.8a1.259,1.259,0,0,1-.8,1.336,3.3,3.3,0,0,1-1.1.167,1.465,1.465,0,0,1-1.423-1.068l-.853-3.076Z" transform="translate(-2145.227 -2923.917)" fill="url(#linear-gradient-32)"/>
              <path id="Trazado_1033385" data-name="Trazado 1033385" d="M2127.732,2634.679s-15.937-.737-23.867,3.888.4,26.82.4,26.82a8.053,8.053,0,0,0,5.054-1.148s-4.257-16.249,3.137-19.075a42.562,42.562,0,0,1,16.911-2.4l-1.593-7.577Z" transform="translate(-2090.728 -2580.354)" fill="url(#linear-gradient-33)"/>
              <path id="Trazado_1033386" data-name="Trazado 1033386" d="M2060.308,3106.942c1.812-.4,7.186-2.623,8-2.594s1.972,1.253,1.972,1.253a2.173,2.173,0,0,1-.385,1.628,15.042,15.042,0,0,1-7.835,3.279,5.818,5.818,0,0,1-4.963-1.84A7.1,7.1,0,0,1,2060.308,3106.942Z" transform="translate(-2050.781 -3013.267)" fill="url(#linear-gradient-34)"/>
              <path id="Trazado_1033387" data-name="Trazado 1033387" d="M2052.942,3144.4a15.039,15.039,0,0,0,7.835-3.279,6.758,6.758,0,0,1-2.559,2.229c-3.5,1.979-9.3,1.691-10.444,1.246-.92-.357-.635-1.216.205-2.035A5.815,5.815,0,0,0,2052.942,3144.4Z" transform="translate(-2041.659 -3047.162)" fill="url(#linear-gradient-35)"/>
              <path id="Trazado_1033388" data-name="Trazado 1033388" d="M2191.946,3071a12.915,12.915,0,0,1-2.122,2.548,1.444,1.444,0,0,1-1.342.4,3.712,3.712,0,0,1-.961-.337.937.937,0,0,1-.362-1.275l1.856-3.375Z" transform="translate(-2170.541 -2980.654)" fill="url(#linear-gradient-36)"/>
              <path id="Trazado_1033389" data-name="Trazado 1033389" d="M2231.082,2618.126s1.391,9.869-2.631,11.886-12.844,3.338-15.882,8.457-8.5,15.165-13.462,18.051c0,0-2.836-.922-3.665-2.318,0,0,5.895-15.5,8.354-19.263,2.13-3.262,5.244-7.961,9.668-9.994,1.267-.582,1.365-1.925,1.143-3.3l-.406-2.505Z" transform="translate(-2178.282 -2565.138)" fill="url(#linear-gradient-37)"/>
              <path id="Trazado_1033390" data-name="Trazado 1033390" d="M2160.541,2303.036c5.639,1.609,8.163-14.26,8.141-14.646l8.646,10.109s-5.151,9.064-12.931,10.029a9.18,9.18,0,0,1-5.046-.74A8.083,8.083,0,0,0,2160.541,2303.036Z" transform="translate(-2145.021 -2261.235)" fill="#e5ae43"/>
              <path id="Trazado_1033391" data-name="Trazado 1033391" d="M1981.52,2405.7c2.457-1.01,4.542,1.005,4.542,1.005,2.436,2.493,4.367,3.751,5.9,4.189a8.079,8.079,0,0,1-1.191,4.752,12.573,12.573,0,0,1-5.539-5.609,1.054,1.054,0,0,0-1.391-.472c-.521.252-1.058.636-1.091,1.158-.067,1.029-1.291,1.09-1.3.71a15.266,15.266,0,0,1,.949-2.413s-2.824,1.811-3.923,2.5a1.618,1.618,0,0,1-2.036-.45S1979.062,2406.711,1981.52,2405.7Z" transform="translate(-1976.441 -2369.094)" fill="url(#linear-gradient-38)"/>
              <path id="Trazado_1033392" data-name="Trazado 1033392" d="M2303.641,2188.267s-7.578-5.17-25.879,4.18a5.956,5.956,0,0,0-1,5.083c.883,2.693,11.749,17.271,12.171,24.114,0,0,7.428,4.372,17.071.038C2306,2221.68,2309.236,2203.611,2303.641,2188.267Z" transform="translate(-2253.014 -2167.642)" fill="#ffc148"/>
              <path id="Trazado_1033393" data-name="Trazado 1033393" d="M2351.024,2120.674l2.995,5.868a1.669,1.669,0,0,1-.173,1.8,4.767,4.767,0,0,1-5.484,1.527,2.575,2.575,0,0,1-1.753-1.867l-1.552-6.55Z" transform="translate(-2316.177 -2106.659)" fill="url(#linear-gradient-39)"/>
              <path id="Trazado_1033394" data-name="Trazado 1033394" d="M2589.415,2225.528c.513-3.567-8.913-10.48-8.913-10.48l3.3-10.01s17.987,12.836,14.2,23.318a7.325,7.325,0,0,1-2.337,3.373A11.713,11.713,0,0,0,2589.415,2225.528Z" transform="translate(-2533.177 -2184.413)" fill="#f4b740"/>
              <path id="Trazado_1033395" data-name="Trazado 1033395" d="M2432.382,2467.569s10.663,2.979,12.875-.268a1.684,1.684,0,0,0,.275-.722,11.716,11.716,0,0,1,6.255,6.2c-5.062,3.983-14.823-.482-17.476-1.82a1.873,1.873,0,0,0-1.4-.118,12.784,12.784,0,0,1-3.488.7c-1.333-.073-2.762,4.742-5.03,3.523C2424.389,2475.067,2425.419,2466.84,2432.382,2467.569Z" transform="translate(-2389.294 -2425.464)" fill="url(#linear-gradient-40)"/>
              <g id="Grupo_1099626" data-name="Grupo 1099626" transform="translate(24.68)">
                <path id="Trazado_1033396" data-name="Trazado 1033396" d="M2297.782,1995.345c-.095.082-4.045,6.981-6.056,10.5a2.068,2.068,0,0,0,.983,2.928l.871.373c1.19.51,3.75.937,4.757.124l6.35-6.7S2299.918,1993.5,2297.782,1995.345Z" transform="translate(-2291.453 -1990.92)" fill="url(#linear-gradient-41)"/>
                <path id="Trazado_1033397" data-name="Trazado 1033397" d="M2356.893,1951.6a2.048,2.048,0,0,0,.986-2.891,2.889,2.889,0,0,0-3.149-1.629.789.789,0,0,1-.837-.569.623.623,0,0,0-.552-.447.777.777,0,0,1-.613-.972,2.354,2.354,0,0,0-1.175-2.822c-2.417-1.463-4.676.662-5.305,2.51s2.081,3.285,3.812,3.578c1.316.223,1.958,1.741,2.19,2.456a.781.781,0,0,1-.092.672l-1.931,2.933c.531.668,1,1.374,1.465,2.088.174-.187.326-.343.444-.451.839-.768,2.33-.372,2.944-.161a.774.774,0,0,0,.609-.045,2.044,2.044,0,0,0,.912-3.152A.79.79,0,0,1,2356.893,1951.6Z" transform="translate(-2341.869 -1941.787)" fill="url(#linear-gradient-42)"/>
                <path id="Trazado_1033398" data-name="Trazado 1033398" d="M2407.862,2110.417s1.234-3.172,2.637-3,2.452,1.626.642,3.13C2408.888,2112.422,2407.862,2110.417,2407.862,2110.417Z" transform="translate(-2398.742 -2094.438)" fill="url(#linear-gradient-43)"/>
              </g>
            </g>
            <g id="Grupo_1099628" data-name="Grupo 1099628" transform="translate(1.695 26.277)">
              <path id="Trazado_1033399" data-name="Trazado 1033399" d="M2045.824,2539.33h-.057l-24.909-.027a1.115,1.115,0,0,1,0-2.23l24.91.027a1.115,1.115,0,0,1,.055,2.229Z" transform="translate(-1996.806 -2516.713)" fill="url(#linear-gradient-44)"/>
              <path id="Trazado_1033400" data-name="Trazado 1033400" d="M1728.628,2277.188h20.745a3.954,3.954,0,0,1,3.576,2.268l9.591,20.336h-25.781a2.4,2.4,0,0,1-2.235-1.52l-7.437-18.818A1.657,1.657,0,0,1,1728.628,2277.188Z" transform="translate(-1726.97 -2277.188)" fill="url(#linear-gradient-45)"/>
              <path id="Trazado_1033401" data-name="Trazado 1033401" d="M1895.723,2385.834c.45,1.4.118,2.753-.742,3.03s-1.92-.632-2.37-2.028-.118-2.753.742-3.03S1895.273,2384.437,1895.723,2385.834Z" transform="translate(-1879.449 -2375.407)" fill="#91b3fa"/>
            </g>
            <g id="Grupo_1099630" data-name="Grupo 1099630" transform="translate(0 48.657)">
              <g id="Grupo_1099629" data-name="Grupo 1099629" transform="translate(5.671 2.228)">
                <path id="Trazado_1033402" data-name="Trazado 1033402" d="M1778.754,2642.722a1.074,1.074,0,0,1-.413-.083,1,1,0,0,1-.548-1.332l21.953-49.408a1.06,1.06,0,0,1,1.375-.531,1,1,0,0,1,.548,1.332l-21.953,49.408A1.049,1.049,0,0,1,1778.754,2642.722Z" transform="translate(-1777.707 -2591.286)" fill="#aab8e3"/>
                <path id="Trazado_1033403" data-name="Trazado 1033403" d="M1836.153,2642.718a1.049,1.049,0,0,1-.962-.613l-21.953-49.408a1,1,0,0,1,.548-1.331,1.059,1.059,0,0,1,1.375.53l21.953,49.408a1,1,0,0,1-.548,1.332A1.079,1.079,0,0,1,1836.153,2642.718Z" transform="translate(-1810.375 -2591.283)" fill="#aab8e3"/>
                <path id="Trazado_1033404" data-name="Trazado 1033404" d="M2646.137,2642.722a1.071,1.071,0,0,1-.413-.083,1,1,0,0,1-.548-1.332l21.953-49.408a1.06,1.06,0,0,1,1.375-.531,1,1,0,0,1,.548,1.332l-21.954,49.408A1.05,1.05,0,0,1,2646.137,2642.722Z" transform="translate(-2577.135 -2591.286)" fill="#aab8e3"/>
                <path id="Trazado_1033405" data-name="Trazado 1033405" d="M2703.535,2642.718a1.049,1.049,0,0,1-.962-.613L2680.62,2592.7a1,1,0,0,1,.548-1.331,1.059,1.059,0,0,1,1.375.53L2704.5,2641.3a1,1,0,0,1-.548,1.332A1.082,1.082,0,0,1,2703.535,2642.718Z" transform="translate(-2609.802 -2591.283)" fill="#aab8e3"/>
              </g>
              <path id="Trazado_1033406" data-name="Trazado 1033406" d="M1807.307,2564.16a1.2,1.2,0,0,0-.208-.914.951.951,0,0,0-.762-.4h-99.872a1.113,1.113,0,0,0-.958.587,1.405,1.405,0,0,0-.074,1.22l1.082,2.622a1.515,1.515,0,0,0,1.376.985h97.761a1.189,1.189,0,0,0,1.126-1.041Z" transform="translate(-1705.329 -2562.844)" fill="#aab8e3"/>
            </g>
          </g>
        </g>
      </g>
    </g>
  </g>
</svg>
