<svg xmlns="http://www.w3.org/2000/svg" width="76.563" height="76.563" viewBox="0 0 76.563 76.563">
  <g id="Grupo_1099484" data-name="Grupo 1099484" transform="translate(-1020.967 -3093)">
    <g id="Grupo_1098742" data-name="Grupo 1098742" transform="translate(1020.967 3093)">
      <rect id="Rect치ngulo_400898" data-name="Rect치ngulo 400898" width="76.563" height="76.563" rx="38.281" transform="translate(0 0)" fill="#2f50ba"/>
      <rect id="Rect치ngulo_400907" data-name="Rect치ngulo 400907" width="76.563" height="76.563" rx="38.281" transform="translate(0 0)" fill="none"/>
    </g>
    <g id="research_3310196" transform="translate(1020.047 3092.083)">
      <path id="Trazado_1033407" data-name="Trazado 1033407" d="M136,62.663V26.32A2.32,2.32,0,0,1,138.32,24H167.7a2.32,2.32,0,0,1,2.32,2.32V62.663a1.547,1.547,0,0,1-1.547,1.547H137.547A1.547,1.547,0,0,1,136,62.663Z" transform="translate(-108.398 -7.227)" fill="#f7c148"/>
      <path id="Trazado_1033408" data-name="Trazado 1033408" d="M0,0H5.468V3.281H0Z" transform="translate(36.877 39.198) rotate(-45)" fill="#ffa100"/>
      <path id="Trazado_1033409" data-name="Trazado 1033409" d="M80,440H90.826v5.413H80Z" transform="translate(-57.811 -383.017)" fill="#718799"/>
      <path id="Trazado_1033410" data-name="Trazado 1033410" d="M43.866,309.919v-7.733H40v-3.093A3.093,3.093,0,0,1,43.093,296H51.6a3.093,3.093,0,0,1,3.093,3.093v10.826Z" transform="translate(-21.677 -252.936)" fill="#ffb401"/>
      <path id="Trazado_1033411" data-name="Trazado 1033411" d="M47.967,243.866l-19.3,19.3A2.734,2.734,0,0,1,24.8,259.3L44.1,240Z" transform="translate(-7.22 -202.348)" fill="#c47220"/>
      <path id="Trazado_1033412" data-name="Trazado 1033412" d="M40,352v2.32a3.093,3.093,0,0,0,3.093,3.093h7.733a2.32,2.32,0,0,0,2.32-2.32v-.773H51.6V353.4a.626.626,0,0,0-.905-.56l-1.414.707H43.866V352Z" transform="translate(-21.677 -303.523)" fill="#ffceb6"/>
      <path id="Trazado_1033413" data-name="Trazado 1033413" d="M196.64,316.64h-2.32a2.32,2.32,0,0,1-2.32-2.32v-.773h1.547v-.921a.626.626,0,0,1,.905-.56l1.414.707h.773a1.933,1.933,0,0,1,0,3.866Z" transform="translate(-158.985 -267.389)" fill="#ffceb6"/>
      <path id="Trazado_1033414" data-name="Trazado 1033414" d="M0,0H3.281V5.468H0Z" transform="translate(34.557 39.971) rotate(-45)" fill="#ffc431"/>
      <circle id="Elipse_11855" data-name="Elipse 11855" cx="6.859" cy="6.859" r="6.859" transform="translate(39.264 25.418)" fill="#8be0e8"/>
      <path id="Trazado_1033415" data-name="Trazado 1033415" d="M288,336h4.64v5.413H288Z" transform="translate(-245.706 -289.069)" fill="#00a64f"/>
      <path id="Trazado_1033416" data-name="Trazado 1033416" d="M336,304h4.64v8.506H336Z" transform="translate(-289.066 -260.162)" fill="#00b55b"/>
      <path id="Trazado_1033417" data-name="Trazado 1033417" d="M384,264h4.64v12.372H384Z" transform="translate(-332.426 -224.029)" fill="#02c26a"/>
      <path id="Trazado_1033418" data-name="Trazado 1033418" d="M114.32,280v2.706a1.16,1.16,0,0,1-2.32,0V280Z" transform="translate(-86.717 -238.482)" fill="#ffceb6"/>
      <path id="Trazado_1033419" data-name="Trazado 1033419" d="M113.547,267.093A1.547,1.547,0,0,1,112,265.547v-.773l.773-.773h2.32v1.547A1.547,1.547,0,0,1,113.547,267.093Z" transform="translate(-86.717 -224.029)" fill="#ffceb6"/>
      <path id="Trazado_1033420" data-name="Trazado 1033420" d="M115.093,242.32l.453-.453a1.094,1.094,0,0,0-.773-1.867h-1.226A1.547,1.547,0,0,0,112,241.547v1.547l.773-.773Z" transform="translate(-86.717 -202.348)" fill="#c47220"/>
      <path id="Trazado_1033421" data-name="Trazado 1033421" d="M35.335,129.354h2.32a2.707,2.707,0,0,0,.929-5.249l2.711-2.711a.773.773,0,0,0,0-1.094l-.226-.226,1.607-1.607a7.741,7.741,0,1,0-3.413-3.413l-1.607,1.607-.227-.227a.773.773,0,0,0-1.094,0l-5.186,5.186H29.016a2.309,2.309,0,0,0,.133-.773v-1.226l.226-.226a1.867,1.867,0,0,0-1.32-3.187H26.829a2.322,2.322,0,0,0-2.32,2.32v3.093H21.416a3.871,3.871,0,0,0-3.866,3.866v4.64a3.866,3.866,0,0,0,1.817,3.276l-2.336,2.336a3.507,3.507,0,0,0,4.386,5.425v.563h1.547v-2l2.64-2.64h6.639v4.64h1.547V128.938A3.073,3.073,0,0,0,35.335,129.354ZM29.3,127.807a1.407,1.407,0,0,0-.626.148l-1.251.626H26.376l8.186-8.186,2.773,2.773-.606.606-.916-.458a1.4,1.4,0,0,0-2.024,1.251v.148h-.773a.773.773,0,0,0-.773.773v.773a3.073,3.073,0,0,0,.43,1.57l-1.523,1.523H30.7v-.148a1.4,1.4,0,0,0-1.4-1.4Zm8.358,0h-2.32a1.548,1.548,0,0,1-1.547-1.547h.773a.773.773,0,0,0,.773-.773v-.682l1.2.6a.773.773,0,0,0,.346.082h.773a1.16,1.16,0,0,1,0,2.32Zm8.506-22.425a6.186,6.186,0,1,1-6.186,6.186A6.186,6.186,0,0,1,46.161,105.382Zm-6.043,11a7.8,7.8,0,0,0,1.226,1.226l-1.37,1.37-1.226-1.226Zm-3.236,1.69,2.773,2.773-1.226,1.226L35.655,119.3Zm-10.826,4.96a2.31,2.31,0,0,0,.773.133v.387a.387.387,0,1,1-.773,0Zm.773-5.28h1.226a.32.32,0,0,1,.226.547l-.227.227h-2A.774.774,0,0,1,26.829,117.755Zm-.773,2.64.32-.32H27.6v.773a.773.773,0,1,1-1.547,0Zm-4.64,2.773h3.093v.387a1.933,1.933,0,1,0,3.866,0v-.387H29.6l-5.413,5.413H22.963v-3.093H21.416v1.547H19.1v-1.547A2.322,2.322,0,0,1,21.416,123.168ZM19.1,128.58h2.32v.773a.773.773,0,0,0,.773.773H27.6a.773.773,0,0,0,.346-.082l1.2-.6v.682a.773.773,0,0,0,.773.773H30.7a1.548,1.548,0,0,1-1.547,1.547H21.416a2.322,2.322,0,0,1-2.32-2.32Zm.414,11.6a1.961,1.961,0,0,1-1.386-3.347l2.863-2.863a3.883,3.883,0,0,0,.429.024h5.093L20.9,139.605A1.947,1.947,0,0,1,19.51,140.179Zm7.639-4.64,1.547-1.547h.453a3.1,3.1,0,0,0,3.093-3.093v4.64Z" transform="translate(0 -79.33)"/>
      <path id="Trazado_1033422" data-name="Trazado 1033422" d="M128,472h1.547v2.32H128Z" transform="translate(-101.171 -411.924)"/>
      <path id="Trazado_1033423" data-name="Trazado 1033423" d="M160.477,16H131.093A3.1,3.1,0,0,0,128,19.093V35.332h1.547V19.093a1.548,1.548,0,0,1,1.547-1.547h29.384a1.548,1.548,0,0,1,1.547,1.547V55.437a.774.774,0,0,1-.773.773H136.506v1.547h24.745a2.322,2.322,0,0,0,2.32-2.32V19.093A3.1,3.1,0,0,0,160.477,16Z" transform="translate(-101.171)"/>
      <path id="Trazado_1033424" data-name="Trazado 1033424" d="M280.239,256H275.6a.773.773,0,0,0-.773.773v3.093h-3.866a.773.773,0,0,0-.773.773v2.32H266.32a.773.773,0,0,0-.773.773v4.64H264v1.547h18.558v-1.547h-1.547v-11.6a.773.773,0,0,0-.773-.773Zm-13.146,8.506h3.093v3.866h-3.093Zm4.64-.773v-2.32h3.093v6.959h-3.093Zm4.64,4.64V257.547h3.093v10.826Z" transform="translate(-224.025 -216.802)"/>
      <path id="Trazado_1033425" data-name="Trazado 1033425" d="M168,56h2.32v1.547H168Z" transform="translate(-137.305 -36.134)"/>
      <path id="Trazado_1033426" data-name="Trazado 1033426" d="M208,56h4.64v1.547H208Z" transform="translate(-173.438 -36.134)"/>
      <path id="Trazado_1033427" data-name="Trazado 1033427" d="M168,88h6.186v1.547H168Z" transform="translate(-137.305 -65.041)"/>
      <path id="Trazado_1033428" data-name="Trazado 1033428" d="M248,88h2.32v1.547H248Z" transform="translate(-209.572 -65.041)"/>
    </g>
  </g>
</svg>
