<svg xmlns="http://www.w3.org/2000/svg" xmlns:xlink="http://www.w3.org/1999/xlink" width="76.563" height="76.563" viewBox="0 0 76.563 76.563">
  <defs>
    <clipPath id="clip-path">
      <path id="path2222" d="M0-682.665H55.594v55.594H0Z" transform="translate(0 682.665)"/>
    </clipPath>
  </defs>
  <g id="Grupo_1099483" data-name="Grupo 1099483" transform="translate(-1020.967 -3093)">
    <g id="Grupo_1098742" data-name="Grupo 1098742" transform="translate(1020.967 3093)">
      <rect id="Rect치ngulo_400898" data-name="Rect치ngulo 400898" width="76.563" height="76.563" rx="38.281" transform="translate(0 0)" fill="#ffc148"/>
      <rect id="Rect치ngulo_400907" data-name="Rect치ngulo 400907" width="76.563" height="76.563" rx="38.281" transform="translate(0 0)" fill="none"/>
    </g>
    <g id="g2202" transform="translate(1028.761 3783.663)">
      <g id="g2204" transform="translate(27.091 -647.647)">
        <path id="path2206" d="M-91.856-70.2l1.629,5.142H-100l4.886-11.366h3.257Z" transform="translate(100 76.426)" fill="#ff4996"/>
      </g>
      <g id="g2208" transform="translate(21.8 -647.647)">
        <path id="path2210" d="M-114.8,0V11.366h-10.177l1.629-5.142V0Z" transform="translate(124.973)" fill="#ff6b8a"/>
      </g>
      <g id="g2212" transform="translate(30.349 -637.91)">
        <path id="path2214" d="M-73.485,0V3.257h-4.886L-80,1.629-78.371,0Z" transform="translate(80)" fill="#ffa754"/>
      </g>
      <path id="path2216" d="M277.87-129.836H267.693v-3.257H277.87Z" transform="translate(-245.893 -504.817)" fill="#ffcb63"/>
      <g id="g2218" transform="translate(0 -682.665)">
        <g id="g2220" clip-path="url(#clip-path)">
          <g id="g2226" transform="translate(20.171 39.613)">
            <path id="path2228" d="M-18.371,0A1.628,1.628,0,0,0-20,1.629V15.167h3.257V1.629A1.629,1.629,0,0,0-18.371,0" transform="translate(20)" fill="#ffa754"/>
          </g>
          <g id="g2230" transform="translate(35.235 39.613)">
            <path id="path2232" d="M-18.371,0A1.629,1.629,0,0,0-20,1.629V15.167h3.257V1.629A1.629,1.629,0,0,0-18.371,0" transform="translate(20)" fill="#ff8646"/>
          </g>
          <g id="g2234" transform="translate(45.007 33.389)">
            <path id="path2236" d="M-36.742-110.227h3.257l1.629-1.629V-120H-40Z" transform="translate(40 120)" fill="#ff4996"/>
          </g>
          <g id="g2238" transform="translate(43.378 33.389)">
            <path id="path2240" d="M-55.114-110.227h-3.257L-60-111.856V-120h4.886Z" transform="translate(60 120)" fill="#ff6b8a"/>
          </g>
          <g id="g2242" transform="translate(45.007 25.245)">
            <path id="path2244" d="M-36.742-146.97h4.886V-160H-40Z" transform="translate(40 160)" fill="#ff8646"/>
          </g>
          <path id="path2246" d="M537.551-341.265h-4.886v-11.4h4.886Z" transform="translate(-489.287 379.54)" fill="#ffa754"/>
          <g id="g2248" transform="translate(45.007 18.73)">
            <path id="path2250" d="M-36.742-110.213-40-119.984h6.515Z" transform="translate(40 119.984)" fill="#fff"/>
          </g>
          <g id="g2252" transform="translate(45.007 18.729)">
            <path id="path2254" d="M-73.485-.012h-3.257L-80,4.873l3.257,4.886h4.886V1.616Z" transform="translate(80 0.013)" fill="#fff0d3"/>
          </g>
          <g id="g2256" transform="translate(43.378 18.729)">
            <path id="path2258" d="M-55.114,0h-3.257L-60,1.63V9.773h4.886Z" transform="translate(60)" fill="#fff"/>
          </g>
          <g id="g2260" transform="translate(41.75 18.73)">
            <path id="path2262" d="M-24.5,0a2.172,2.172,0,0,0-2.172,2.172V24.431h3.257V0Z" transform="translate(26.675)" fill="#ffd9d4"/>
          </g>
          <g id="g2264" transform="translate(51.522 18.73)">
            <path id="path2266" d="M-12.247,0h-1.086V24.431h3.257V2.172A2.172,2.172,0,0,0-12.247,0" transform="translate(13.333)" fill="#ffb4a9"/>
          </g>
          <g id="g2268" transform="translate(46.636 7.594)">
            <path id="path2270" d="M-61.92,0h-5.49l1.629,7.879a4.886,4.886,0,0,0,4.886-4.886A4.863,4.863,0,0,0-61.92,0" transform="translate(67.409)" fill="#a45e43"/>
          </g>
          <g id="g2272" transform="translate(43.378 7.594)">
            <path id="path2274" d="M-72.553-16.426l-5.407-1.456a4.863,4.863,0,0,0-1.025,2.993A4.886,4.886,0,0,0-74.1-10c.9,0,1.629-2.188,1.629-4.886a14.068,14.068,0,0,0-.083-1.537" transform="translate(78.985 17.883)" fill="#c27749"/>
          </g>
          <g id="g2276" transform="translate(48.265 5.701)">
            <path id="path2278" d="M0,0,1.546,3.349A9.783,9.783,0,0,0,3.861,1.893,4.877,4.877,0,0,0,0,0" transform="translate(0)" fill="#60312c"/>
          </g>
          <g id="g2280" transform="translate(44.404 5.701)">
            <path id="path2282" d="M-60.986-37.78c-.215-1.945-.826-3.349-1.546-3.349a4.876,4.876,0,0,0-3.861,1.893,9.744,9.744,0,0,0,3.861,2,9.686,9.686,0,0,0,1.546-.541" transform="translate(66.393 41.129)" fill="#85453d"/>
          </g>
          <g id="g2284" transform="translate(48.265 0.814)">
            <path id="path2286" d="M0-55.114A4.886,4.886,0,0,0,4.886-60,4.886,4.886,0,0,0,0-55.114" transform="translate(0 60)" fill="#ff4996"/>
          </g>
          <g id="g2288" transform="translate(43.378 0.814)">
            <path id="path2290" d="M0,0A4.886,4.886,0,0,0,4.886,4.886,4.886,4.886,0,0,0,0,0" fill="#ff6b8a"/>
          </g>
          <g id="g2292" transform="translate(9.854 31.76)">
            <path id="path2294" d="M-36.755,0h-3.259V8.089h5.431V2.172A2.172,2.172,0,0,0-36.755,0" transform="translate(40.013)" fill="#ff8646"/>
          </g>
          <g id="g2296" transform="translate(5.509 31.76)">
            <path id="path2298" d="M-49.007,0h-2.172a2.172,2.172,0,0,0-2.172,2.172V8.089h6.517V2.172A2.172,2.172,0,0,0-49.007,0" transform="translate(53.352)" fill="#ffa754"/>
          </g>
          <g id="g2300" transform="translate(12.026 38.221)">
            <path id="path2302" d="M-36.755,0h-3.259l1.629,6.529h3.259V4.307A6.487,6.487,0,0,0-36.755,0" transform="translate(40.013)" fill="#ffcb63"/>
          </g>
          <g id="g2304" transform="translate(3.88 38.221)">
            <path id="path2306" d="M-91.888,0h-6.517a6.487,6.487,0,0,0-1.629,4.307V6.529h9.776V4.307A6.487,6.487,0,0,0-91.888,0" transform="translate(100.034)" fill="#ffe2a8"/>
          </g>
          <g id="g2308" transform="translate(15.283 23.616)">
            <path id="path2310" d="M-11.571-29.213-12.6-31.8h2.786a1.892,1.892,0,0,1,1.078.328,1.9,1.9,0,0,1,.5,2.64,1.9,1.9,0,0,1-2.64.5,1.892,1.892,0,0,1-.7-.882" transform="translate(12.597 31.803)" fill="#85453d"/>
          </g>
          <g id="g2312" transform="translate(0.814 23.616)">
            <path id="path2314" d="M-41.4-29.213l1.026-2.59h-2.786a1.892,1.892,0,0,0-1.078.328,1.9,1.9,0,0,0-.5,2.64,1.9,1.9,0,0,0,2.64.5,1.892,1.892,0,0,0,.7-.882" transform="translate(45.074 31.803)" fill="#a45e43"/>
          </g>
          <g id="g2316" transform="translate(10.397 18.73)">
            <path id="path2318" d="M0,0V9.772A4.886,4.886,0,0,0,4.886,4.886Z" fill="#ffb4a9"/>
          </g>
          <g id="g2320" transform="translate(5.511 18.73)">
            <path id="path2322" d="M-55.114,0-60,4.886a4.886,4.886,0,0,0,4.886,4.886c.9,0,1.629-2.188,1.629-4.886S-54.214,0-55.114,0" transform="translate(60)" fill="#ffd9d4"/>
          </g>
          <g id="g2324" transform="translate(5.511 18.73)">
            <path id="path2326" d="M-55.114,0A4.886,4.886,0,0,0-60,4.886,4.886,4.886,0,0,0-55.114,0" transform="translate(60)" fill="#a45e43"/>
          </g>
          <g id="g2328" transform="translate(10.397 18.73)">
            <path id="path2330" d="M-55.114-55.114A4.886,4.886,0,0,0-60-60a4.886,4.886,0,0,0,4.886,4.886" transform="translate(60 60)" fill="#85453d"/>
          </g>
          <g id="g2332" transform="translate(20.171 35.018)">
            <path id="path2334" d="M-169.911-70.2a1.629,1.629,0,0,1,1.629-1.629,1.629,1.629,0,0,1,1.629,1.629v13.538h-3.257V-76.421h-11.806v19.762h-3.257V-70.2a1.629,1.629,0,0,1,1.629-1.629,1.629,1.629,0,0,1,1.629,1.629" transform="translate(184.974 76.421)" fill="none" stroke="#000" stroke-linecap="round" stroke-linejoin="round" stroke-miterlimit="10" stroke-width="2"/>
          </g>
          <g id="g2336" transform="translate(45.006 38.275)">
            <path id="path2338" d="M0,0H6.516" fill="none" stroke="#000" stroke-linecap="round" stroke-linejoin="round" stroke-miterlimit="10" stroke-width="2"/>
          </g>
          <g id="g2340" transform="translate(45.007 28.503)">
            <path id="path2342" d="M0,0H6.515" fill="none" stroke="#000" stroke-linecap="round" stroke-linejoin="round" stroke-miterlimit="10" stroke-width="2"/>
          </g>
          <g id="g2344" transform="translate(41.75 18.73)">
            <path id="path2346" d="M-36.742,0V34.963L-40,36.049" transform="translate(40)" fill="none" stroke="#000" stroke-linecap="round" stroke-linejoin="round" stroke-miterlimit="10" stroke-width="2"/>
          </g>
          <g id="g2348" transform="translate(51.522 18.73)">
            <path id="path2350" d="M0,0V34.963l3.257,1.086" fill="none" stroke="#000" stroke-linecap="round" stroke-linejoin="round" stroke-miterlimit="10" stroke-width="2"/>
          </g>
          <g id="g2352" transform="translate(41.75 18.73)">
            <path id="path2354" d="M-122.475,0h-8.687a2.172,2.172,0,0,0-2.172,2.172V24.431h13.03V2.172A2.172,2.172,0,0,0-122.475,0Z" transform="translate(133.333)" fill="none" stroke="#000" stroke-linecap="round" stroke-linejoin="round" stroke-miterlimit="10" stroke-width="2"/>
          </g>
          <g id="g2356" transform="translate(43.378 5.701)">
            <path id="path2358" d="M-110.227-55.114a4.886,4.886,0,0,1-4.886,4.886A4.886,4.886,0,0,1-120-55.114,4.886,4.886,0,0,1-115.114-60,4.886,4.886,0,0,1-110.227-55.114Z" transform="translate(120 60)" fill="none" stroke="#000" stroke-linecap="round" stroke-linejoin="round" stroke-miterlimit="10" stroke-width="2"/>
          </g>
          <g id="g2360" transform="translate(44.404 7.594)">
            <path id="path2362" d="M0,0A9.745,9.745,0,0,0,3.861,2,9.745,9.745,0,0,0,7.722,0" fill="none" stroke="#000" stroke-linecap="round" stroke-linejoin="round" stroke-miterlimit="10" stroke-width="2"/>
          </g>
          <g id="g2364" transform="translate(43.378 0.814)">
            <path id="path2366" d="M0,0A4.886,4.886,0,0,0,9.772,0,4.886,4.886,0,0,0,4.886,4.886,4.886,4.886,0,0,0,0,0Z" fill="none" stroke="#000" stroke-linecap="round" stroke-linejoin="round" stroke-miterlimit="10" stroke-width="2"/>
          </g>
          <g id="g2368" transform="translate(13.656 44.75)">
            <path id="path2370" d="M-36.742-113.126-40-114.212v-8.944" transform="translate(40 123.156)" fill="none" stroke="#000" stroke-linecap="round" stroke-linejoin="round" stroke-miterlimit="10" stroke-width="2"/>
          </g>
          <g id="g2372" transform="translate(3.884 44.75)">
            <path id="path2374" d="M0-113.126l3.257-1.086v-8.944" transform="translate(0 123.156)" fill="none" stroke="#000" stroke-linecap="round" stroke-linejoin="round" stroke-miterlimit="10" stroke-width="2"/>
          </g>
          <g id="g2376" transform="translate(3.88 31.76)">
            <path id="path2378" d="M-128.643-72.873v-4.289a2.172,2.172,0,0,0-2.172-2.172h-5.431a2.172,2.172,0,0,0-2.172,2.172v4.289a6.488,6.488,0,0,0-1.629,4.307v2.222h13.034v-2.222A6.488,6.488,0,0,0-128.643-72.873Z" transform="translate(140.048 79.333)" fill="none" stroke="#000" stroke-linecap="round" stroke-linejoin="round" stroke-miterlimit="10" stroke-width="2"/>
          </g>
          <g id="g2380" transform="translate(5.509 38.235)">
            <path id="path2382" d="M0,0H9.776" fill="none" stroke="#000" stroke-linecap="round" stroke-linejoin="round" stroke-miterlimit="10" stroke-width="2"/>
          </g>
          <g id="g2384" transform="translate(15.283 23.616)">
            <path id="path2386" d="M-11.571-29.213-12.6-31.8h2.786a1.892,1.892,0,0,1,1.078.328,1.9,1.9,0,0,1,.5,2.64,1.9,1.9,0,0,1-2.64.5A1.892,1.892,0,0,1-11.571-29.213Z" transform="translate(12.597 31.803)" fill="none" stroke="#000" stroke-linecap="round" stroke-linejoin="round" stroke-miterlimit="10" stroke-width="2"/>
          </g>
          <g id="g2388" transform="translate(0.814 23.616)">
            <path id="path2390" d="M-41.4-29.213l1.026-2.59h-2.786a1.892,1.892,0,0,0-1.078.328,1.9,1.9,0,0,0-.5,2.64,1.9,1.9,0,0,0,2.64.5A1.892,1.892,0,0,0-41.4-29.213Z" transform="translate(45.074 31.803)" fill="none" stroke="#000" stroke-linecap="round" stroke-linejoin="round" stroke-miterlimit="10" stroke-width="2"/>
          </g>
          <g id="g2392" transform="translate(5.511 18.73)">
            <path id="path2394" d="M-110.227-55.114A4.886,4.886,0,0,1-115.114-60,4.886,4.886,0,0,1-120-55.114" transform="translate(120 60)" fill="none" stroke="#000" stroke-linecap="round" stroke-linejoin="round" stroke-miterlimit="10" stroke-width="2"/>
          </g>
          <g id="g2396" transform="translate(5.511 18.73)">
            <path id="path2398" d="M-110.227-55.114a4.886,4.886,0,0,1-4.886,4.886A4.886,4.886,0,0,1-120-55.114,4.886,4.886,0,0,1-115.114-60,4.886,4.886,0,0,1-110.227-55.114Z" transform="translate(120 60)" fill="none" stroke="#000" stroke-linecap="round" stroke-linejoin="round" stroke-miterlimit="10" stroke-width="2"/>
          </g>
          <g id="g2400" transform="translate(23.429 48.013)">
            <path id="path2402" d="M0,0H11.806" fill="none" stroke="#000" stroke-linecap="round" stroke-linejoin="round" stroke-miterlimit="10" stroke-width="2"/>
          </g>
          <g id="g2404" transform="translate(23.429 44.756)">
            <path id="path2406" d="M0,0H11.806" fill="none" stroke="#000" stroke-linecap="round" stroke-linejoin="round" stroke-miterlimit="10" stroke-width="2"/>
          </g>
          <g id="g2408" transform="translate(31.977 11.13)">
            <path id="path2410" d="M-110.227-110.227A9.772,9.772,0,0,1-120-120" transform="translate(120 120)" fill="none" stroke="#000" stroke-linecap="round" stroke-linejoin="round" stroke-miterlimit="10" stroke-width="2"/>
          </g>
        </g>
      </g>
    </g>
  </g>
</svg>
