<svg xmlns="http://www.w3.org/2000/svg" width="76.563" height="76.563" viewBox="0 0 76.563 76.563">
  <g id="Grupo_1099488" data-name="Grupo 1099488" transform="translate(-1020.967 -3093)">
    <g id="Grupo_1098742" data-name="Grupo 1098742" transform="translate(1020.967 3093)">
      <rect id="Rect치ngulo_400898" data-name="Rect치ngulo 400898" width="76.563" height="76.563" rx="38.281" transform="translate(0 0)" fill="#2f50ba"/>
      <rect id="Rect치ngulo_400907" data-name="Rect치ngulo 400907" width="76.563" height="76.563" rx="38.281" transform="translate(0 0)" fill="none"/>
    </g>
    <g id="field_1150353" transform="translate(1033.947 3105.479)">
      <path id="Trazado_1033429" data-name="Trazado 1033429" d="M105,216.164h22.369v10.928H105Zm0,0" transform="translate(-94.623 -194.349)" fill="#fea02c"/>
      <path id="Trazado_1033430" data-name="Trazado 1033430" d="M143.349,253.335V250H139v1.916Zm0,0" transform="translate(-125.262 -224.837)" fill="#ff5d5d"/>
      <path id="Trazado_1033431" data-name="Trazado 1033431" d="M19.692,278.458a45.573,45.573,0,0,1,14.257-14.6l.219-.307A45.594,45.594,0,0,0,10,256.625v24.3h8.186Zm0,0" transform="translate(-9.012 -230.811)" fill="#62cd4d"/>
      <path id="Trazado_1033432" data-name="Trazado 1033432" d="M92.832,280.774l1.506-2.467a45.611,45.611,0,0,1,38.933-21.85v24.317Zm0,0" transform="translate(-83.657 -230.659)" fill="#a0e557"/>
      <path id="Trazado_1033433" data-name="Trazado 1033433" d="M105,165.4l5.535-5.567,5.535,5.567Zm0,0" transform="translate(-94.623 -143.584)" fill="#fe8f8d"/>
      <path id="Trazado_1033434" data-name="Trazado 1033434" d="M177.835,165.4l-5.535-5.567H161l5.535,5.567Zm0,0" transform="translate(-145.088 -143.584)" fill="#ff5d5d"/>
      <g id="Grupo_1099634" data-name="Grupo 1099634" transform="translate(0.988 1.489)">
        <path id="Trazado_1033435" data-name="Trazado 1033435" d="M356.945,31.982c-7.378-5.932-7.378-15.55,0-21.482C364.323,16.432,364.323,26.05,356.945,31.982Zm0,0" transform="translate(-317.67 -10.5)" fill="#a0e557"/>
        <path id="Trazado_1033436" data-name="Trazado 1033436" d="M25.855,62.573c-5.578-4.485-5.578-11.756,0-16.241C31.433,50.817,31.433,58.088,25.855,62.573Zm0,0" transform="translate(-20.518 -42.791)" fill="#a0e557"/>
        <path id="Trazado_1033437" data-name="Trazado 1033437" d="M27.813,335.564A38.223,38.223,0,0,0,10,331.125v7.956a30.193,30.193,0,0,1,12.34,2.655" transform="translate(-10 -299.437)" fill="#a0e557"/>
      </g>
      <path id="Trazado_1033438" data-name="Trazado 1033438" d="M180.547,347.911a38.5,38.5,0,0,1,31.77-16.954v7.956a30.5,30.5,0,0,0-21.526,9Zm0,0" transform="translate(-162.703 -297.796)" fill="#62cd4d"/>
      <path id="Trazado_1033439" data-name="Trazado 1033439" d="M296.711,401.457a31.581,31.581,0,0,0-22.226,9.289.988.988,0,0,0,1.4,1.394,29.591,29.591,0,0,1,20.825-8.706.988.988,0,1,0,0-1.977Zm0,0" transform="translate(-247.098 -361.329)"/>
      <path id="Trazado_1033440" data-name="Trazado 1033440" d="M182.692,388.227a.988.988,0,0,0-1.372-.266,39.01,39.01,0,0,0-10.609,10.616.988.988,0,1,0,1.641,1.1A37.032,37.032,0,0,1,182.426,389.6.988.988,0,0,0,182.692,388.227Zm0,0" transform="translate(-153.688 -349.014)"/>
      <path id="Trazado_1033441" data-name="Trazado 1033441" d="M377.471,320.957a38.869,38.869,0,0,0-13,2.243.988.988,0,1,0,.659,1.863,36.9,36.9,0,0,1,12.339-2.13.988.988,0,0,0,0-1.977Zm0,0" transform="translate(-327.858 -288.785)"/>
      <path id="Trazado_1033442" data-name="Trazado 1033442" d="M14.16,44.321a45.046,45.046,0,0,1,26.3-16.57h.005a44.049,44.049,0,0,1,9.148-.964.988.988,0,1,0,0-1.976,46.508,46.508,0,0,0-8.361.76V23.436A14.637,14.637,0,0,0,46.785,12.23,14.743,14.743,0,0,0,40.883.719a.989.989,0,0,0-1.239,0,14.745,14.745,0,0,0-5.9,11.511,14.639,14.639,0,0,0,5.533,11.206v2.538A46.8,46.8,0,0,0,33.735,27.6V21.815a.985.985,0,0,0-.287-.7h0l-5.535-5.567a.989.989,0,0,0-.7-.291h-11.3a.988.988,0,0,0-.7.291L9.677,21.119h0a.985.985,0,0,0-.288.7V25.59q-1.033-.189-2.075-.332V21.734A11.28,11.28,0,0,0,11.5,13.151,11.384,11.384,0,0,0,6.945,4.26a.988.988,0,0,0-1.238,0,11.383,11.383,0,0,0-4.552,8.891,11.28,11.28,0,0,0,4.183,8.583v3.3q-2.162-.2-4.349-.2a.988.988,0,0,0,0,1.977A44.576,44.576,0,0,1,23.435,32.86a46.655,46.655,0,0,0-4.668,3.626,39.319,39.319,0,0,0-17.779-4.3.988.988,0,1,0,0,1.977,37.311,37.311,0,0,1,16.225,3.756,46.709,46.709,0,0,0-4.2,4.652A30.916,30.916,0,0,0,.988,40.145a.988.988,0,1,0,0,1.977A28.925,28.925,0,0,1,11.78,44.208q-1.024,1.423-1.942,2.924L8.331,49.6a.988.988,0,1,0,1.687,1.03l1.506-2.467a43.875,43.875,0,0,1,2.538-3.714A.935.935,0,0,0,14.16,44.321ZM35.719,12.23a12.612,12.612,0,0,1,4.545-9.448,12.612,12.612,0,0,1,4.545,9.448,12.3,12.3,0,0,1-3.556,8.49V13.151a.988.988,0,1,0-1.977,0V20.72A12.3,12.3,0,0,1,35.719,12.23ZM3.13,13.151a9.248,9.248,0,0,1,3.2-6.818,9.248,9.248,0,0,1,3.2,6.818,8.935,8.935,0,0,1-2.207,5.786V12.361a.988.988,0,0,0-1.977,0v6.577A8.935,8.935,0,0,1,3.13,13.151Zm27.24,7.676H21.858l-3.57-3.591H26.8ZM15.912,17.65l3.159,3.177H12.754ZM11.366,22.8h9.093v6.285q-.687-.316-1.384-.61V25.159a.988.988,0,0,0-.988-.988H13.738a.989.989,0,0,0-.988.988v1.175q-.689-.18-1.384-.339ZM17.1,27.7q-1.176-.433-2.372-.8v-.749H17.1Zm5.337,2.357V22.8h9.323v5.565a46.386,46.386,0,0,0-4.951,2.4q-.769.431-1.52.893Q23.886,30.809,22.435,30.056Zm0,0"/>
      <path id="Trazado_1033443" data-name="Trazado 1033443" d="M398.387,82.477a.99.99,0,1,0-.7-.29A.995.995,0,0,0,398.387,82.477Zm0,0" transform="translate(-358.123 -72.093)"/>
      <path id="Trazado_1033444" data-name="Trazado 1033444" d="M317.958,363.126a.987.987,0,1,0,.7-.29A1,1,0,0,0,317.958,363.126Zm0,0" transform="translate(-286.272 -326.525)"/>
    </g>
  </g>
</svg>
