<svg xmlns="http://www.w3.org/2000/svg" width="76.563" height="76.563" viewBox="0 0 76.563 76.563">
  <g id="Grupo_1099487" data-name="Grupo 1099487" transform="translate(-1020.967 -3093)">
    <g id="Grupo_1098742" data-name="Grupo 1098742" transform="translate(1020.967 3093)">
      <rect id="Rectángulo_400898" data-name="Rectángulo 400898" width="76.563" height="76.563" rx="38.281" transform="translate(0 0)" fill="#ffc148"/>
      <rect id="Rectángulo_400907" data-name="Rectángulo 400907" width="76.563" height="76.563" rx="38.281" transform="translate(0 0)" fill="none"/>
    </g>
    <g id="education_325670" transform="translate(1034.718 3096.859)">
      <path id="Trazado_1033445" data-name="Trazado 1033445" d="M21.324,276.154v3.132h28.75a3.131,3.131,0,0,0,3.132-3.132L37.264,275.11Z" transform="translate(-19.281 -238.856)" fill="#f89890"/>
      <path id="Trazado_1033446" data-name="Trazado 1033446" d="M50.074,253.323H21.324v3.132H53.205A3.131,3.131,0,0,0,50.074,253.323Z" transform="translate(-19.281 -219.157)" fill="#ffc5bf"/>
      <circle id="Elipse_11856" data-name="Elipse 11856" cx="1.566" cy="1.566" r="1.566" transform="translate(33.924 35.732)" fill="#f89890"/>
      <path id="Trazado_1033447" data-name="Trazado 1033447" d="M130.723,57.238v4.175L151.6,71.352l3.131-.545V57.238Z" transform="translate(-118.197 -41.861)" fill="#4d2564"/>
      <path id="Trazado_1033448" data-name="Trazado 1033448" d="M130.723,100.813v9.394l12,2.088,8.873-1.543v-9.939Z" transform="translate(-118.197 -81.26)" fill="#9e52b6"/>
      <path id="Trazado_1033449" data-name="Trazado 1033449" d="M451.449,30l-2.088,1.827,2.088,1.827h3.132V30Z" transform="translate(-406.303 -17.236)" fill="#4d2564"/>
      <rect id="Rectángulo_405177" data-name="Rectángulo 405177" width="44.363" height="3.653" transform="translate(0.783 12.768)" fill="#763c8d"/>
      <circle id="Elipse_11857" data-name="Elipse 11857" cx="0.783" cy="0.783" r="0.783" transform="translate(18.789 21.118)"/>
      <circle id="Elipse_11858" data-name="Elipse 11858" cx="0.783" cy="0.783" r="0.783" transform="translate(15.657 24.25)"/>
      <path id="Trazado_1033450" data-name="Trazado 1033450" d="M17.559,427.576l-3.129,3.129-6.259-3.129Z" transform="translate(-7.388 -376.713)" fill="#4d2564"/>
      <path id="Trazado_1033451" data-name="Trazado 1033451" d="M14.43,394.917l3.129,2.347-3.129,2.347-6.259-1.565Z" transform="translate(-7.388 -347.183)" fill="#763c8d"/>
      <path id="Trazado_1033452" data-name="Trazado 1033452" d="M82.876,443.9,79.747,448.6l-6.259-3.129V443.9Z" transform="translate(-66.446 -391.476)" fill="#ffc5bf"/>
      <path id="Trazado_1033453" data-name="Trazado 1033453" d="M79.747,362.259l6.618,6.259-6.618,3.129-6.259-1.565v-4.694Z" transform="translate(-66.446 -317.655)" fill="#ffd8d4"/>
      <path id="Trazado_1033454" data-name="Trazado 1033454" d="M165.438,438.462l-3.129,5.215H138.8v-3.129Z" transform="translate(-125.504 -386.556)" fill="#8a9d29"/>
      <path id="Trazado_1033455" data-name="Trazado 1033455" d="M405.872,427.576l2.086,6.259h4.171a3.139,3.139,0,0,0,3.129-3.129v-3.129Z" transform="translate(-366.981 -376.713)" fill="#d6baed"/>
      <path id="Trazado_1033456" data-name="Trazado 1033456" d="M138.8,362.259v6.259l3.129,1.878h23.5l-3.129-8.136Z" transform="translate(-125.504 -317.655)" fill="#c4ce94"/>
      <rect id="Rectángulo_405178" data-name="Rectángulo 405178" width="24.546" height="3.129" transform="translate(13.3 50.863)" fill="#a7b65f"/>
      <path id="Trazado_1033457" data-name="Trazado 1033457" d="M415.258,365.388v3.129a3.139,3.139,0,0,1-3.129,3.129h-6.257l2.086-9.388h4.171A3.138,3.138,0,0,1,415.258,365.388Z" transform="translate(-366.981 -317.655)" fill="#e4d1f3"/>
      <rect id="Rectángulo_405179" data-name="Rectángulo 405179" width="4.172" height="3.129" transform="translate(36.804 53.992)" fill="#eaeaea"/>
      <rect id="Rectángulo_405180" data-name="Rectángulo 405180" width="4.172" height="9.388" transform="translate(36.804 44.604)" fill="#fff"/>
      <path id="Trazado_1033458" data-name="Trazado 1033458" d="M42.686,221.866H13.936a.783.783,0,0,0,0,1.566h28.75a3.916,3.916,0,0,0,3.391-1.963A2.347,2.347,0,0,0,49.6,220.3h1.178a7.054,7.054,0,0,0,7.046-7.046.783.783,0,1,0-1.566,0,5.486,5.486,0,0,1-5.48,5.48H49.6a2.347,2.347,0,0,0-3.52-1.168,3.916,3.916,0,0,0-3.391-1.963H13.936a.783.783,0,1,0,0,1.566h28.75a2.352,2.352,0,0,1,2.214,1.566H13.936a.783.783,0,0,0,0,1.566H44.9A2.352,2.352,0,0,1,42.686,221.866Zm4.7-3.131a.783.783,0,1,1-.783.783A.784.784,0,0,1,47.383,218.734Z" transform="translate(-11.893 -182.219)"/>
      <path id="Trazado_1033459" data-name="Trazado 1033459" d="M.783,17.2H35.751V28.288L24.53,30.24,13.309,28.288V19.552a.783.783,0,1,0-1.566,0v9.394a.783.783,0,0,0,.649.771l12,2.088a.782.782,0,0,0,.268,0l12-2.088a.783.783,0,0,0,.649-.771V17.2h7.046V27.9a.783.783,0,1,0,1.566,0V17.2h2.349a.783.783,0,0,0,.783-.783V12.768a.783.783,0,0,0-.783-.783H45.928v-.261a.783.783,0,1,0-1.566,0v.261H.783A.783.783,0,0,0,0,12.768v3.653A.783.783,0,0,0,.783,17.2ZM47.494,13.55v2.088H45.928V13.55Zm-45.928,0h42.8v2.088H1.566Z"/>
      <path id="Trazado_1033460" data-name="Trazado 1033460" d="M45.15,354.089H13.3a.8.8,0,0,0-.087.005l-.021,0-.064.011-.023.006-.06.018-.023.009-.057.025-.014.006L.435,360.43a.783.783,0,0,0,0,1.4l12.517,6.259.014.006c.019.009.038.017.057.025l.023.009.06.018.023.006.064.011.021,0a.777.777,0,0,0,.087.005H45.15a3.917,3.917,0,0,0,3.912-3.912V358A3.917,3.917,0,0,0,45.15,354.089Zm-32.63,12.033-4.693-2.346v-5.291l4.693-2.346Zm1.566-10.468H36.023v4.693H16.431a.783.783,0,1,0,0,1.566H36.023v2.346a.783.783,0,1,0,1.566,0v-8.605H40.2v10.952H14.085Zm-7.824,3.613v3.725L2.535,361.13ZM47.5,364.26a2.349,2.349,0,0,1-2.346,2.346H41.761V355.655H45.15A2.349,2.349,0,0,1,47.5,358v6.259Z" transform="translate(-0.002 -310.267)"/>
    </g>
  </g>
</svg>
