<svg xmlns="http://www.w3.org/2000/svg" width="76.563" height="76.563" viewBox="0 0 76.563 76.563">
  <g id="Grupo_1099398" data-name="Grupo 1099398" transform="translate(-1020.967 -3093)">
    <g id="Grupo_1098742" data-name="Grupo 1098742" transform="translate(1020.967 3093)">
      <rect id="Rect치ngulo_400898" data-name="Rect치ngulo 400898" width="76.563" height="76.563" rx="38.281" transform="translate(0 0)" fill="#aab8e3"/>
      <rect id="Rect치ngulo_400907" data-name="Rect치ngulo 400907" width="76.563" height="76.563" rx="38.281" transform="translate(0 0)" fill="none"/>
    </g>
    <g id="notificaciones" transform="translate(998.88 3103.331)">
      <g id="Grupo_1099431" data-name="Grupo 1099431" transform="translate(37.21 0.819)">
        <g id="Grupo_1099417" data-name="Grupo 1099417" transform="translate(20.086)">
          <path id="Trazado_875467" data-name="Trazado 875467" d="M232.874,15.146h-5.013V8.592A1.092,1.092,0,0,1,228.953,7.5h2.829a1.092,1.092,0,0,1,1.092,1.092Z" transform="translate(-227.861 -7.5)" fill="#4a80aa"/>
        </g>
        <g id="Grupo_1099418" data-name="Grupo 1099418" transform="translate(16.321 41.72)">
          <circle id="Elipse_11516" data-name="Elipse 11516" cx="6.272" cy="6.272" r="6.272" fill="#4a80aa"/>
        </g>
        <g id="Grupo_1099419" data-name="Grupo 1099419" transform="translate(16.321 41.72)">
          <path id="Trazado_875468" data-name="Trazado 875468" d="M196.009,395.884a6.273,6.273,0,0,1,4.955-6.132,6.272,6.272,0,1,0,0,12.264,6.273,6.273,0,0,1-4.955-6.132Z" transform="translate(-193.375 -389.612)" fill="#407093"/>
        </g>
        <g id="Grupo_1099421" data-name="Grupo 1099421" transform="translate(2.627 5.834)">
          <g id="Grupo_1099420" data-name="Grupo 1099420">
            <path id="Trazado_875469" data-name="Trazado 875469" d="M67.949,98.92l3.27-5.339a10.731,10.731,0,0,0,1.58-5.6V76.045a15.116,15.116,0,0,1,30.233,0V87.976a10.731,10.731,0,0,0,1.58,5.6l3.27,5.339Z" transform="translate(-67.949 -60.929)" fill="#ffd064"/>
          </g>
        </g>
        <g id="Grupo_1099423" data-name="Grupo 1099423" transform="translate(2.627 5.834)">
          <g id="Grupo_1099422" data-name="Grupo 1099422">
            <path id="Trazado_875470" data-name="Trazado 875470" d="M75.943,87.976V76.045A15.118,15.118,0,0,1,89.487,61.01a15.3,15.3,0,0,0-1.572-.081A15.117,15.117,0,0,0,72.8,76.045V87.976a10.731,10.731,0,0,1-1.58,5.6l-3.27,5.339h3.144l3.27-5.339A10.73,10.73,0,0,0,75.943,87.976Z" transform="translate(-67.949 -60.929)" fill="#ebb044"/>
          </g>
        </g>
        <g id="Grupo_1099425" data-name="Grupo 1099425" transform="translate(26.372 12.237)">
          <g id="Grupo_1099424" data-name="Grupo 1099424">
            <path id="Trazado_875471" data-name="Trazado 875471" d="M285.43,124.488v8.366a4.919,4.919,0,0,0,4.913,4.913h2.6l.981,1.718a3.282,3.282,0,0,0,2.845,1.652h.041c-.026-.3-.041-.61-.041-.916V128.288A15.047,15.047,0,0,0,294,119.575h-3.661A4.919,4.919,0,0,0,285.43,124.488Z" transform="translate(-285.43 -119.575)" fill="#ebb044"/>
          </g>
        </g>
        <g id="Grupo_1099426" data-name="Grupo 1099426" transform="translate(0 43.009)">
          <path id="Trazado_875472" data-name="Trazado 875472" d="M43.89,403.166v1.489a1.747,1.747,0,0,0,1.747,1.747H87.329a1.747,1.747,0,0,0,1.747-1.747v-1.489a1.747,1.747,0,0,0-1.747-1.747H45.637A1.747,1.747,0,0,0,43.89,403.166Z" transform="translate(-43.89 -401.419)" fill="#e29f33"/>
        </g>
        <g id="Grupo_1099427" data-name="Grupo 1099427" transform="translate(0 43.009)">
          <path id="Trazado_875473" data-name="Trazado 875473" d="M47.482,404.655v-1.489a1.747,1.747,0,0,1,1.747-1.747H45.637a1.747,1.747,0,0,0-1.747,1.747v1.489a1.747,1.747,0,0,0,1.747,1.747h3.592A1.747,1.747,0,0,1,47.482,404.655Z" transform="translate(-43.89 -401.419)" fill="#d68a1d"/>
        </g>
        <g id="Grupo_1099428" data-name="Grupo 1099428" transform="translate(29.102 14.966)">
          <path id="Trazado_875474" data-name="Trazado 875474" d="M325.462,144.575H312.614a2.184,2.184,0,0,0-2.184,2.184v8.366a2.184,2.184,0,0,0,2.184,2.184h3.549a1.092,1.092,0,0,1,.948.551l1.453,2.544a.546.546,0,0,0,.948,0l1.453-2.544a1.092,1.092,0,0,1,.948-.551h3.549a2.184,2.184,0,0,0,2.184-2.184v-8.366A2.184,2.184,0,0,0,325.462,144.575Z" transform="translate(-310.43 -144.575)" fill="#e8edf2"/>
        </g>
        <g id="Grupo_1099429" data-name="Grupo 1099429" transform="translate(29.101 14.966)">
          <path id="Trazado_875475" data-name="Trazado 875475" d="M312.633,155.124v-8.366a2.184,2.184,0,0,1,2.184-2.184h-2.2a2.184,2.184,0,0,0-2.184,2.184v8.366a2.184,2.184,0,0,0,2.184,2.184h2.2A2.184,2.184,0,0,1,312.633,155.124Z" transform="translate(-310.429 -144.575)" fill="#c5d3dd"/>
        </g>
        <g id="Grupo_1099430" data-name="Grupo 1099430" transform="translate(34.835 27.699)">
          <path id="Trazado_875476" data-name="Trazado 875476" d="M366.092,261.746a1.092,1.092,0,0,0-.948-.551h-2.2a1.092,1.092,0,0,1,.948.551l1.453,2.544a.546.546,0,0,0,.948,0l.628-1.1Z" transform="translate(-362.939 -261.195)" fill="#c5d3dd"/>
        </g>
      </g>
      <g id="Grupo_1099432" data-name="Grupo 1099432" transform="translate(36.391 0)">
        <path id="Trazado_875477" data-name="Trazado 875477" d="M80.649,43.009h-.92L77.2,38.877a9.881,9.881,0,0,1-1.278-3.291.819.819,0,1,0-1.608.311A11.51,11.51,0,0,0,75.8,39.732l2.007,3.277H55.994a.819.819,0,0,0,0,1.638H80.649a.929.929,0,0,1,.928.928v1.489a.929.929,0,0,1-.928.928H38.957a.929.929,0,0,1-.928-.928V45.575a.929.929,0,0,1,.928-.928H51.588a.819.819,0,0,0,0-1.638H41.8L43.8,39.732a11.545,11.545,0,0,0,1.7-6.032V21.769a14.3,14.3,0,0,1,25.117-9.347.819.819,0,0,0,1.239-1.071,15.936,15.936,0,0,0-8.733-5.166V1.911A1.913,1.913,0,0,0,61.218,0H58.388a1.913,1.913,0,0,0-1.911,1.911V6.184a15.962,15.962,0,0,0-12.61,15.585V33.7a9.908,9.908,0,0,1-1.459,5.177l-2.531,4.133h-.92a2.569,2.569,0,0,0-2.566,2.566v1.489a2.569,2.569,0,0,0,2.566,2.566H52.763a7.087,7.087,0,0,0,14.08,0H80.649a2.569,2.569,0,0,0,2.566-2.566V45.575a2.569,2.569,0,0,0-2.566-2.566ZM58.115,1.911a.273.273,0,0,1,.273-.273h2.829a.273.273,0,0,1,.273.273V5.923a15.931,15.931,0,0,0-3.375,0ZM59.8,54.264a5.459,5.459,0,0,1-5.389-4.634H65.191A5.459,5.459,0,0,1,59.8,54.264Z" transform="translate(-36.391 0)"/>
        <path id="Trazado_875478" data-name="Trazado 875478" d="M318.781,137.075H305.933a3.006,3.006,0,0,0-3,3v8.366a3.006,3.006,0,0,0,3,3h3.549a.273.273,0,0,1,.237.138l1.453,2.544a1.365,1.365,0,0,0,2.37,0l1.453-2.544a.274.274,0,0,1,.237-.138h3.549a3.006,3.006,0,0,0,3-3v-8.366A3.006,3.006,0,0,0,318.781,137.075Zm1.365,11.368a1.366,1.366,0,0,1-1.365,1.365h-3.549a1.915,1.915,0,0,0-1.659.963l-1.216,2.129-1.216-2.129a1.915,1.915,0,0,0-1.659-.963h-3.55a1.366,1.366,0,0,1-1.365-1.365v-8.366a1.366,1.366,0,0,1,1.365-1.365h12.849a1.366,1.366,0,0,1,1.365,1.365Z" transform="translate(-273.828 -122.109)"/>
        <path id="Trazado_875479" data-name="Trazado 875479" d="M342.332,195.385h-.789a.819.819,0,0,0,0,1.638h.789a.819.819,0,0,0,0-1.638Z" transform="translate(-307.496 -174.052)"/>
        <path id="Trazado_875480" data-name="Trazado 875480" d="M379.765,195.385h-.789a.819.819,0,0,0,0,1.638h.789a.819.819,0,0,0,0-1.638Z" transform="translate(-340.842 -174.052)"/>
        <path id="Trazado_875481" data-name="Trazado 875481" d="M417.2,195.385h-.789a.819.819,0,0,0,0,1.638h.789a.819.819,0,0,0,0-1.638Z" transform="translate(-374.187 -174.052)"/>
      </g>
    </g>
  </g>
</svg>
