<svg xmlns="http://www.w3.org/2000/svg" width="76.563" height="76.563" viewBox="0 0 76.563 76.563">
  <g id="Grupo_1099541" data-name="Grupo 1099541" transform="translate(-1020.967 -3093)">
    <g id="Grupo_1098742" data-name="Grupo 1098742" transform="translate(1020.967 3093)">
      <rect id="Rect치ngulo_400898" data-name="Rect치ngulo 400898" width="76.563" height="76.563" rx="38.281" transform="translate(0 0)" fill="#ffc148"/>
      <rect id="Rect치ngulo_400907" data-name="Rect치ngulo 400907" width="76.563" height="76.563" rx="38.281" transform="translate(0 0)" fill="none"/>
    </g>
    <g id="analitica" transform="translate(1067.074 3139.072)">
      <g id="Grupo_1099798" data-name="Grupo 1099798" transform="translate(-35.334 -35.298)">
        <g id="Grupo_1099793" data-name="Grupo 1099793" transform="translate(0 0)">
          <circle id="Elipse_11889" data-name="Elipse 11889" cx="10.515" cy="10.515" r="10.515" transform="translate(0 14.869) rotate(-45)" fill="#60b7ff"/>
          <circle id="Elipse_11890" data-name="Elipse 11890" cx="9.209" cy="9.209" r="9.209" transform="translate(1.847 14.869) rotate(-45)" fill="#8ac9fe"/>
          <path id="Trazado_1033716" data-name="Trazado 1033716" d="M112.608,112.62h10.515a10.511,10.511,0,0,1-5.257,9.108Z" transform="translate(-97.737 -97.751)" fill="#fd4755" fill-rule="evenodd"/>
          <path id="Trazado_1033717" data-name="Trazado 1033717" d="M112.608,112.62h9.209a9.2,9.2,0,0,1-4.6,7.976Z" transform="translate(-97.737 -97.751)" fill="#fe646f" fill-rule="evenodd"/>
          <path id="Trazado_1033718" data-name="Trazado 1033718" d="M123.123,18.525H112.608V8.01A10.515,10.515,0,0,1,123.123,18.525Z" transform="translate(-97.737 -3.657)" fill="#ffd064" fill-rule="evenodd"/>
          <path id="Trazado_1033719" data-name="Trazado 1033719" d="M121.817,30.217h-9.209V21.008A9.209,9.209,0,0,1,121.817,30.217Z" transform="translate(-97.737 -15.348)" fill="#ffe177" fill-rule="evenodd"/>
        </g>
        <g id="Grupo_1099794" data-name="Grupo 1099794" transform="translate(30.366 4.076)">
          <path id="Trazado_1033720" data-name="Trazado 1033720" d="M267.891,5.247H270.6a1.134,1.134,0,0,1,1.132,1.132V9.091a1.134,1.134,0,0,1-1.132,1.132h-2.712a1.134,1.134,0,0,1-1.132-1.132V6.379A1.134,1.134,0,0,1,267.891,5.247Z" transform="translate(-266.759 -5.247)" fill="#8ac9fe" fill-rule="evenodd"/>
          <path id="Trazado_1033721" data-name="Trazado 1033721" d="M267.891,87.873H270.6A1.134,1.134,0,0,1,271.734,89v2.712a1.134,1.134,0,0,1-1.132,1.132h-2.712a1.134,1.134,0,0,1-1.132-1.132V89A1.134,1.134,0,0,1,267.891,87.873Z" transform="translate(-266.759 -79.568)" fill="#ffe177" fill-rule="evenodd"/>
          <path id="Trazado_1033722" data-name="Trazado 1033722" d="M267.891,170.5H270.6a1.134,1.134,0,0,1,1.132,1.132v2.712a1.134,1.134,0,0,1-1.132,1.132h-2.712a1.134,1.134,0,0,1-1.132-1.132V171.63A1.134,1.134,0,0,1,267.891,170.5Z" transform="translate(-266.759 -153.887)" fill="#fe646f" fill-rule="evenodd"/>
        </g>
        <g id="Grupo_1099795" data-name="Grupo 1099795" transform="translate(4.356 31.157)">
          <path id="Trazado_1033723" data-name="Trazado 1033723" d="M198.017,348.361h3.339a1.007,1.007,0,0,1,1.005,1.005V363a1.007,1.007,0,0,1-1.005,1.005h-3.339A1.007,1.007,0,0,1,197.012,363V349.366A1.007,1.007,0,0,1,198.017,348.361Z" transform="translate(-178.013 -340.952)" fill="#ffe177" fill-rule="evenodd"/>
          <path id="Trazado_1033724" data-name="Trazado 1033724" d="M201.356,348.361a1.007,1.007,0,0,1,1.005,1.005V363a1.007,1.007,0,0,1-1.005,1.005h-3.339A1.007,1.007,0,0,1,197.012,363h3.339A1.007,1.007,0,0,0,201.356,362Z" transform="translate(-178.013 -340.952)" fill="#ffd064" fill-rule="evenodd"/>
          <path id="Trazado_1033725" data-name="Trazado 1033725" d="M294.6,348.361h3.339a1.007,1.007,0,0,1,1.005,1.005V363a1.007,1.007,0,0,1-1.005,1.005H294.6A1.007,1.007,0,0,1,293.6,363V349.366A1.007,1.007,0,0,1,294.6,348.361Z" transform="translate(-264.889 -340.952)" fill="#fe646f" fill-rule="evenodd"/>
          <path id="Trazado_1033726" data-name="Trazado 1033726" d="M297.941,348.361a1.007,1.007,0,0,1,1.005,1.005V363a1.007,1.007,0,0,1-1.005,1.005H294.6A1.007,1.007,0,0,1,293.6,363h3.339A1.007,1.007,0,0,0,297.941,362Z" transform="translate(-264.889 -340.952)" fill="#fd4755" fill-rule="evenodd"/>
          <path id="Trazado_1033727" data-name="Trazado 1033727" d="M9.005,321.361h3.339a1.007,1.007,0,0,1,1.005,1.005v16.35a1.007,1.007,0,0,1-1.005,1.005H9.005A1.007,1.007,0,0,1,8,338.716v-16.35A1.007,1.007,0,0,1,9.005,321.361Z" transform="translate(-8 -316.666)" fill="#6cf5c2" fill-rule="evenodd"/>
          <path id="Trazado_1033728" data-name="Trazado 1033728" d="M12.344,321.361a1.007,1.007,0,0,1,1.005,1.005v16.35a1.007,1.007,0,0,1-1.005,1.005H9.005A1.007,1.007,0,0,1,8,338.716h3.339a1.007,1.007,0,0,0,1.005-1.005Z" transform="translate(-8 -316.666)" fill="#00e499" fill-rule="evenodd"/>
          <path id="Trazado_1033729" data-name="Trazado 1033729" d="M101.431,274.658h3.339a1.007,1.007,0,0,1,1.005,1.005v21.044a1.007,1.007,0,0,1-1.005,1.005h-3.339a1.007,1.007,0,0,1-1.005-1.005V275.663A1.007,1.007,0,0,1,101.431,274.658Z" transform="translate(-91.135 -274.658)" fill="#8ac9fe" fill-rule="evenodd"/>
          <path id="Trazado_1033730" data-name="Trazado 1033730" d="M104.77,274.658a1.007,1.007,0,0,1,1.005,1.005v21.044a1.007,1.007,0,0,1-1.005,1.005h-3.339a1.007,1.007,0,0,1-1.005-1.005h3.339a1.007,1.007,0,0,0,1.005-1.005Z" transform="translate(-91.135 -274.658)" fill="#60b7ff" fill-rule="evenodd"/>
        </g>
        <g id="Grupo_1099796" data-name="Grupo 1099796" transform="translate(20.419 19.366)">
          <path id="Trazado_1033731" data-name="Trazado 1033731" d="M374.978,354.862a10.414,10.414,0,0,1-1.757,1.934L378,361.48l1.819-1.875Z" transform="translate(-352.572 -335.009)" fill="#a79ba7" fill-rule="evenodd"/>
          <path id="Trazado_1033732" data-name="Trazado 1033732" d="M386.369,354.541a1.2,1.2,0,0,1-.52.7l4.746,4.715.581-.637Z" transform="translate(-363.931 -334.721)" fill="#837683" fill-rule="evenodd"/>
          <path id="Trazado_1033733" data-name="Trazado 1033733" d="M415.607,398.6l2.053-2.116a.944.944,0,0,0-.02-1.331l-5.686-5.517a.944.944,0,0,0-1.331.02l-2.053,2.116a.944.944,0,0,0,.02,1.331l5.686,5.517A.944.944,0,0,0,415.607,398.6Z" transform="translate(-384.13 -366.048)" fill="#f1ba84" fill-rule="evenodd"/>
          <path id="Trazado_1033734" data-name="Trazado 1033734" d="M434.132,389.633l5.686,5.517a.944.944,0,0,1,.02,1.331l-2.053,2.116a.934.934,0,0,1-.255.186.945.945,0,0,0,1.1-.186l2.053-2.116a.944.944,0,0,0-.02-1.331l-5.686-5.517a.945.945,0,0,0-1.076-.166A.938.938,0,0,1,434.132,389.633Z" transform="translate(-407.149 -366.047)" fill="#e3a76f" fill-rule="evenodd"/>
          <circle id="Elipse_11891" data-name="Elipse 11891" cx="10.354" cy="10.354" r="10.354" transform="translate(0 14.64) rotate(-45)" fill="#eceff1"/>
          <path id="Trazado_1033735" data-name="Trazado 1033735" d="M309.017,200a10.354,10.354,0,1,1,0,20.708q-.253,0-.5-.012a10.354,10.354,0,0,0,0-20.683Q308.764,200,309.017,200Z" transform="translate(-294.37 -195.718)" fill="#d1d1d6" fill-rule="evenodd"/>
        </g>
        <g id="Grupo_1099797" data-name="Grupo 1099797" transform="translate(27.527 26.467)">
          <circle id="Elipse_11892" data-name="Elipse 11892" cx="7.539" cy="7.539" r="7.539" transform="translate(0 0)" fill="#837683"/>
          <path id="Trazado_1033736" data-name="Trazado 1033736" d="M313.714,235.544a7.54,7.54,0,0,1-6.869,7.509q.331.029.67.029a7.607,7.607,0,0,0,1.079-.077l.136-.021a7.54,7.54,0,0,0-1.215-14.98q-.339,0-.67.029A7.54,7.54,0,0,1,313.714,235.544Z" transform="translate(-299.976 -228.005)" fill="#685e68" fill-rule="evenodd"/>
          <path id="Trazado_1033737" data-name="Trazado 1033737" d="M266.671,310.239a5.267,5.267,0,0,0-5.235,4.7,7.514,7.514,0,0,0,5.235,2.114,7.614,7.614,0,0,0,1.079-.077,7.516,7.516,0,0,0,4.155-2.037A5.265,5.265,0,0,0,266.671,310.239Z" transform="translate(-259.132 -301.973)" fill="#8ac9fe" fill-rule="evenodd"/>
          <path id="Trazado_1033738" data-name="Trazado 1033738" d="M306.847,310.281c3.134.4,4.4,2.77,4.687,5.611a7.561,7.561,0,0,0,1.217-.955,5.265,5.265,0,0,0-5.234-4.7A5.323,5.323,0,0,0,306.847,310.281Z" transform="translate(-299.978 -301.973)" fill="#60b7ff" fill-rule="evenodd"/>
          <circle id="Elipse_11893" data-name="Elipse 11893" cx="2.662" cy="2.662" r="2.662" transform="translate(4.877 2.544)" fill="#f6dccd"/>
          <path id="Trazado_1033739" data-name="Trazado 1033739" d="M312.508,255.98a2.662,2.662,0,0,1-2.327,2.641,2.662,2.662,0,1,0,0-5.282A2.662,2.662,0,0,1,312.508,255.98Z" transform="translate(-302.977 -250.774)" fill="#f1cbbc" fill-rule="evenodd"/>
        </g>
      </g>
      <path id="Trazado_1033740" data-name="Trazado 1033740" d="M24.776,30.466a6.694,6.694,0,0,0,1.112,3.7,6.052,6.052,0,0,1,3.121-3.241,3.466,3.466,0,1,1,5.005,0,6.057,6.057,0,0,1,3.121,3.241,6.734,6.734,0,1,0-12.359-3.7Zm6.735-.077a1.858,1.858,0,1,1,1.858-1.858A1.86,1.86,0,0,1,31.511,30.389Zm0,6.812a6.7,6.7,0,0,1-4.373-1.62,4.461,4.461,0,0,1,8.748,0A6.706,6.706,0,0,1,31.511,37.2Zm-8.343-6.735a8.343,8.343,0,1,1,8.343,8.343A8.353,8.353,0,0,1,23.168,30.466Zm-8.53-2.046H10.9V49.866h3.742Zm1.608-.8V50.671a.8.8,0,0,1-.8.8h-5.35a.8.8,0,0,1-.8-.8V27.616a.8.8,0,0,1,.8-.8h5.35a.8.8,0,0,1,.8.8Zm33.568,17.89-5.686-5.517a.132.132,0,0,0-.094-.037h0a.135.135,0,0,0-.1.04l-2.053,2.116a.141.141,0,0,0,0,.194l5.685,5.518a.142.142,0,0,0,.194,0L49.818,45.7A.141.141,0,0,0,49.814,45.506ZM34.055,41.331a11.184,11.184,0,0,1-3.741.228v8.307h3.741Zm-9.709-2.319a11.238,11.238,0,0,1-2.616-3.183H20.6V49.867h3.741Zm-2.384-8.546a9.55,9.55,0,1,1,9.549,9.55A9.56,9.56,0,0,1,21.962,30.466ZM27.893,19.91a11.081,11.081,0,0,1,2.812-.573V18.228H27.893ZM40.079,37.605c-.214.257-.441.505-.677.742l2,1.942.7-.72ZM50.971,46.82l-2.052,2.116a1.748,1.748,0,0,1-2.469.037l-5.685-5.517a1.749,1.749,0,0,1-.395-1.927L38.182,39.4a11.152,11.152,0,0,1-2.519,1.418v9.848a.8.8,0,0,1-.8.8H29.51a.8.8,0,0,1-.8-.8v-9.4a11.072,11.072,0,0,1-2.751-1.127V50.671a.8.8,0,0,1-.8.8H19.8a.8.8,0,0,1-.8-.8V35.025a.8.8,0,0,1,.8-.8H21A11.157,11.157,0,0,1,26.285,20.61V17.424a.8.8,0,0,1,.8-.8h4.42a.8.8,0,0,1,.8.8v1.913a11.072,11.072,0,0,1,4.239,1.176h6.329a.8.8,0,1,1,0,1.608H38.91a11.139,11.139,0,0,1,2.118,14.164L43.31,38.5a1.751,1.751,0,0,1,1.939.335l5.686,5.518a1.747,1.747,0,0,1,.037,2.468ZM5.347,33.115H1.606V49.866H5.347Zm1.609-.8v18.36a.8.8,0,0,1-.8.8H.8a.8.8,0,0,1-.8-.8V32.311a.8.8,0,0,1,.8-.8h5.35a.8.8,0,0,1,.8.8ZM27.893,12.734H30.7V9.923H27.893Zm-1.608.8V9.118a.8.8,0,0,1,.8-.8h4.42a.8.8,0,0,1,.8.8v4.42a.8.8,0,0,1-.8.8h-4.42A.8.8,0,0,1,26.285,13.538Zm8.817.278h7.778a.8.8,0,0,0,0-1.609H35.1a.8.8,0,0,0,0,1.609Zm0-3.367H50.659a.8.8,0,0,0,0-1.609H35.1a.8.8,0,0,0,0,1.609ZM27.893,4.428H30.7V1.618H27.893Zm-1.608.8V.813a.8.8,0,0,1,.8-.8h4.42a.8.8,0,0,1,.8.8V5.233a.8.8,0,0,1-.8.8h-4.42A.8.8,0,0,1,26.285,5.233ZM35.1,5.51h7.778a.8.8,0,1,0,0-1.608H35.1a.8.8,0,0,0,0,1.608Zm0-3.366H50.659a.8.8,0,1,0,0-1.609H35.1a.8.8,0,0,0,0,1.609Zm-33.5,9.184a9.711,9.711,0,0,0,13.922,8.75l-4.9-8.342a.811.811,0,0,1-.11-.408V1.651a9.725,9.725,0,0,0-8.907,9.678ZM12.121,1.651a9.729,9.729,0,0,1,8.874,8.878l-8.874,0Zm8.873,10.486-8.272,0,4.191,7.128a9.713,9.713,0,0,0,4.081-7.124ZM0,11.328A11.32,11.32,0,1,0,11.317.009,11.333,11.333,0,0,0,0,11.328Zm34.3,6.622a.8.8,0,0,0,.8.8H50.659a.8.8,0,1,0,0-1.608H35.1A.8.8,0,0,0,34.3,17.951Z" transform="translate(-31.78 -31.758)" fill-rule="evenodd"/>
    </g>
  </g>
</svg>
