<svg xmlns="http://www.w3.org/2000/svg" width="76.563" height="76.563" viewBox="0 0 76.563 76.563">
  <g id="Grupo_1099367" data-name="Grupo 1099367" transform="translate(-1020.967 -3093)">
    <g id="Grupo_1098742" data-name="Grupo 1098742" transform="translate(1020.967 3093)">
      <rect id="Rect치ngulo_400898" data-name="Rect치ngulo 400898" width="76.563" height="76.563" rx="38.281" transform="translate(0 0)" fill="#ffc148"/>
      <rect id="Rect치ngulo_400907" data-name="Rect치ngulo 400907" width="76.563" height="76.563" rx="38.281" transform="translate(0 0)" fill="none"/>
    </g>
    <g id="_27-research" data-name="27-research" transform="translate(1033.873 3105.8)">
      <path id="Trazado_1033741" data-name="Trazado 1033741" d="M3,59.156V56.325q0-.341.022-.679a10.145,10.145,0,0,1,6.119-8.484L14.01,45v6.292l.786,7.865Z" transform="translate(-0.567 -9.499)" fill="#d4d2d2"/>
      <path id="Trazado_1033742" data-name="Trazado 1033742" d="M33.8,56.325v2.831H22l.527-5.246.26-2.619V45l1.5.668,3.366,1.494a10.145,10.145,0,0,1,6.119,8.486C33.789,55.877,33.8,56.1,33.8,56.325Z" transform="translate(-4.625 -9.499)" fill="#d4d2d2"/>
      <path id="Trazado_1033743" data-name="Trazado 1033743" d="M26.932,49.719l-2.43-4.05L23,45v5.505l1.8,1.348Z" transform="translate(-4.838 -9.499)" fill="#eeeded"/>
      <path id="Trazado_1033744" data-name="Trazado 1033744" d="M12,49.719l2.43-4.05,1.5-.668v5.505l-1.8,1.348Z" transform="translate(-2.489 -9.499)" fill="#eeeded"/>
      <path id="Trazado_1033745" data-name="Trazado 1033745" d="M22.835,52v.786l-.608,6.077,3.754-4.5Z" transform="translate(-4.673 -10.993)" fill="#fff"/>
      <path id="Trazado_1033746" data-name="Trazado 1033746" d="M16.146,52v.786l.608,6.077L13,54.359Z" transform="translate(-2.703 -10.993)" fill="#fff"/>
      <path id="Trazado_1033747" data-name="Trazado 1033747" d="M17,45v6.292l.786,7.865h3.146l.786-7.865V45A2.517,2.517,0,0,1,17,45Z" transform="translate(-3.557 -9.499)" fill="#789d96"/>
      <path id="Trazado_1033748" data-name="Trazado 1033748" d="M60.194,60.078a1.573,1.573,0,0,1-2.21.013l-4.741-4.624,2.224-2.224,4.713,4.6a1.573,1.573,0,0,1,.013,2.238Z" transform="translate(-11.296 -11.259)" fill="#606060"/>
      <path id="Trazado_1033749" data-name="Trazado 1033749" d="M54.349,7.454l-2.318,3.423a5.176,5.176,0,0,0,.179,6.05,5.175,5.175,0,0,0,5.683-2.083l2.318-3.423Z" transform="translate(-10.848 -1.481)" fill="#a16ba9"/>
      <path id="Trazado_1033750" data-name="Trazado 1033750" d="M44.645,21.53l-2.318,3.423,5.861,3.968L50.506,25.5a5.176,5.176,0,0,0-.179-6.049,5.175,5.175,0,0,0-5.683,2.083Z" transform="translate(-8.965 -4.001)" fill="#a16ba9"/>
      <path id="Trazado_1033751" data-name="Trazado 1033751" d="M52.719,49.382a7.894,7.894,0,0,1-3.337,3.337l2.48,2.48L55.2,51.862Z" transform="translate(-10.472 -10.434)" fill="#5588b5"/>
      <circle id="Elipse_11894" data-name="Elipse 11894" cx="7.865" cy="7.865" r="7.865" transform="translate(27.408 27.446)" fill="#606060"/>
      <circle id="Elipse_11895" data-name="Elipse 11895" cx="5.505" cy="5.505" r="5.505" transform="translate(29.768 29.805)" fill="#7fcae5"/>
      <path id="Trazado_1033752" data-name="Trazado 1033752" d="M29.78,13.3a3.107,3.107,0,0,0,.229-4.138l-.742-.927a1.668,1.668,0,0,1-.19-1.788,2.589,2.589,0,0,0-1.028-3.406L26.162,1.965a2.789,2.789,0,0,0-2.93.1,1.669,1.669,0,0,1-1.851,0,2.969,2.969,0,0,0-2.973-.186,3.588,3.588,0,0,1-3.209,0,3.446,3.446,0,0,0-3.083,0L11.88,2A3.053,3.053,0,0,1,9.148,2a3.721,3.721,0,0,0-3.508.1l-1.609.919A2.643,2.643,0,0,0,2.979,6.493,1.588,1.588,0,0,1,2.8,8.2l-.772.964a3.113,3.113,0,0,0,.236,4.148,1.659,1.659,0,0,1,0,2.35,1.671,1.671,0,0,0,0,2.366L4.22,19.985h.613A2.342,2.342,0,0,1,6.579,19.2a5.809,5.809,0,0,1,3.65-5.393,8.075,8.075,0,0,1,7.844,1.037l.508.381a8.075,8.075,0,0,0,4.845,1.615,2.027,2.027,0,0,1,2.027,2.027V19.2a2.342,2.342,0,0,1,1.747.786h.613l1.966-1.966a1.669,1.669,0,0,0,0-2.359,1.669,1.669,0,0,1,0-2.359Z" transform="translate(-0.214 -0.213)" fill="#6b3939"/>
      <path id="Trazado_1033753" data-name="Trazado 1033753" d="M21.719,40.58v3.476a2.517,2.517,0,0,1-4.719,0V40.58A8.591,8.591,0,0,0,21.719,40.58Z" transform="translate(-3.557 -8.555)" fill="#eaa492"/>
      <path id="Trazado_1033754" data-name="Trazado 1033754" d="M21.719,40.58v1.368a5.472,5.472,0,0,1-4.719,0V40.58A8.591,8.591,0,0,0,21.719,40.58Z" transform="translate(-3.557 -8.555)" fill="#e29383"/>
      <path id="Trazado_1033755" data-name="Trazado 1033755" d="M26.234,22.046v.333a2.359,2.359,0,0,1,0,4.719h-.786a8.651,8.651,0,0,1-17.3,0H7.359a2.359,2.359,0,1,1,0-4.719,5.809,5.809,0,0,1,3.65-5.393,8.075,8.075,0,0,1,7.844,1.037l.508.381a8.075,8.075,0,0,0,4.845,1.615A2.027,2.027,0,0,1,26.234,22.046Z" transform="translate(-0.994 -3.393)" fill="#f4b19a"/>
      <path id="Trazado_1033756" data-name="Trazado 1033756" d="M20.932,63.573H17.786a.786.786,0,1,1,0-1.573h3.146a.786.786,0,1,1,0,1.573Z" transform="translate(-3.557 -13.129)"/>
      <path id="Trazado_1033757" data-name="Trazado 1033757" d="M47.5,38.6a6.292,6.292,0,1,0,1.843,4.448A6.292,6.292,0,0,0,47.5,38.6Zm-1.112,7.786a4.719,4.719,0,1,1,1.382-3.337,4.719,4.719,0,0,1-1.382,3.337Z" transform="translate(-7.776 -7.738)"/>
      <path id="Trazado_1033758" data-name="Trazado 1033758" d="M44.786,40a.786.786,0,0,0,0,1.573,2.359,2.359,0,0,1,2.359,2.359.786.786,0,1,0,1.573,0A3.937,3.937,0,0,0,44.786,40Z" transform="translate(-9.322 -8.431)"/>
      <path id="Trazado_1033759" data-name="Trazado 1033759" d="M52.424,49.077a.786.786,0,0,0-.006-1.1l-2.093-2.093a8.646,8.646,0,1,0-4.445,4.453l2.09,2.089a.786.786,0,0,0,1.112,0l.006-.006L53.274,56.5a2.359,2.359,0,1,0,3.295-3.377ZM37.4,47.417a7.078,7.078,0,1,1,5,2.073,7.078,7.078,0,0,1-5-2.073Zm9.909,2.123a8.8,8.8,0,0,0,1.217-1.009,8.68,8.68,0,0,0,1.006-1.218l1.218,1.218-2.224,2.225Zm8.168,5.827a.791.791,0,0,1-1.106.006l-4.168-4.068.559-.559.551-.551,4.157,4.056a.786.786,0,0,1,.007,1.118Z" transform="translate(-7.135 -7.102)"/>
      <path id="Trazado_1033760" data-name="Trazado 1033760" d="M23.352,36.947l-4.4-1.957v-2.4a9.452,9.452,0,0,0,6.259-8.1h.033a3.146,3.146,0,0,0,2.96-4.208l1.921-1.921a2.453,2.453,0,0,0,0-3.471.881.881,0,0,1,0-1.247,3.887,3.887,0,0,0,.287-5.185l-.742-.927a.886.886,0,0,1-.1-.944,3.375,3.375,0,0,0-1.344-4.44L26.341,1.069a3.549,3.549,0,0,0-3.755.13.881.881,0,0,1-.979,0A3.758,3.758,0,0,0,17.843.963a2.819,2.819,0,0,1-2.506,0,4.251,4.251,0,0,0-3.786,0l-.236.119a2.274,2.274,0,0,1-2.029,0A4.5,4.5,0,0,0,5.04,1.2l-1.613.92A3.428,3.428,0,0,0,2.061,6.631a.8.8,0,0,1-.091.86L1.2,8.454a3.9,3.9,0,0,0,.29,5.2.874.874,0,0,1,0,1.236,2.461,2.461,0,0,0,0,3.48L3.4,20.283a3.146,3.146,0,0,0,2.96,4.208H6.4a9.452,9.452,0,0,0,6.259,8.1v2.4l-4.4,1.957A10.87,10.87,0,0,0,1.67,46.1c-.016.241-.024.485-.024.729v2.829a.786.786,0,0,0,.786.786h11.8a.786.786,0,0,0,.786-.865l-.786-7.786v-4.27a3.3,3.3,0,0,0,3.146,0v4.192l-.786,7.865a.786.786,0,0,0,.786.864h11.8a.786.786,0,0,0,.786-.786V46.826c0-.244-.008-.488-.024-.729a10.87,10.87,0,0,0-6.583-9.15ZM21.1,40.1l-1.218,1.218-.938-.7v-3.9l.168.075Zm-2.229,2.427,1.3.974L18.59,45.4ZM2.341,16.626A.88.88,0,0,1,2.6,16a2.447,2.447,0,0,0,0-3.46,2.327,2.327,0,0,1-.178-3.1l.772-.963a2.381,2.381,0,0,0,.273-2.541,1.856,1.856,0,0,1,.739-2.438l1.608-.926A2.93,2.93,0,0,1,8.58,2.488a3.858,3.858,0,0,0,3.435,0l.236-.119a2.667,2.667,0,0,1,2.38,0,4.4,4.4,0,0,0,3.912,0,2.188,2.188,0,0,1,2.188.136,2.449,2.449,0,0,0,2.723,0,1.992,1.992,0,0,1,2.1-.073l1.884,1.078a1.8,1.8,0,0,1,.717,2.372,2.463,2.463,0,0,0,.279,2.631l.742.927a2.318,2.318,0,0,1-.171,3.09,2.453,2.453,0,0,0,0,3.471.881.881,0,0,1,0,1.247L27.29,18.968A3.141,3.141,0,0,0,26,18.293a2.818,2.818,0,0,0-2.791-2.453,7.33,7.33,0,0,1-4.373-1.458L18.332,14a8.912,8.912,0,0,0-8.608-1.139,6.56,6.56,0,0,0-4.109,5.427,3.14,3.14,0,0,0-1.3.679L2.6,17.256a.88.88,0,0,1-.259-.629Zm5.6,7.078a.786.786,0,0,0-.786-.786H6.365a1.573,1.573,0,0,1,0-3.146.786.786,0,0,0,.786-.786,5,5,0,0,1,3.157-4.663,7.333,7.333,0,0,1,7.078.937l.508.381a8.918,8.918,0,0,0,5.318,1.773,1.242,1.242,0,0,1,1.241,1.24v.333a.786.786,0,0,0,.786.786,1.573,1.573,0,1,1,0,3.146h-.786a.786.786,0,0,0-.786.786,7.865,7.865,0,1,1-15.729,0ZM10.5,40.1l1.987-3.312.169-.079v3.906l-.944.708Zm2.225,2.429.287,2.869-1.582-1.9ZM3.219,48.871V46.826q0-.315.02-.629a9.3,9.3,0,0,1,5.653-7.816l1.094-.487-1.15,1.917a.786.786,0,0,0,.118.961l1.494,1.494-.624.47a.786.786,0,0,0-.132,1.133l3.6,4.319.072.682ZM15.8,36.35a1.7,1.7,0,0,1-1.573-1.006V33a8.957,8.957,0,0,0,3.146,0v2.344A1.7,1.7,0,0,1,15.8,36.35ZM28.386,48.871H18.241l.068-.681,3.6-4.32a.786.786,0,0,0-.129-1.133l-.623-.467,1.494-1.494a.786.786,0,0,0,.118-.961L21.622,37.9l1.094.486A9.3,9.3,0,0,1,28.365,46.2q.02.313.02.629Z" transform="translate(0)"/>
      <path id="Trazado_1033761" data-name="Trazado 1033761" d="M31.719,58H27.786a.786.786,0,1,0,0,1.573h3.932a.786.786,0,1,0,0-1.573Z" transform="translate(-5.692 -12.275)"/>
      <path id="Trazado_1033762" data-name="Trazado 1033762" d="M15.786,24a.786.786,0,0,0-.786.786v.786a.786.786,0,1,0,1.573,0v-.786A.786.786,0,0,0,15.786,24Z" transform="translate(-3.13 -5.014)"/>
      <path id="Trazado_1033763" data-name="Trazado 1033763" d="M23.786,26.359a.786.786,0,0,0,.786-.786v-.786a.786.786,0,1,0-1.573,0v.786A.786.786,0,0,0,23.786,26.359Z" transform="translate(-4.838 -5.014)"/>
      <path id="Trazado_1033764" data-name="Trazado 1033764" d="M44.936,16.79a.8.8,0,0,0-.094.086,5.926,5.926,0,0,0-1.063,1.169l-2.316,3.423a.787.787,0,1,0,1.3.882l.882-1.3,4.561,3.086-.882,1.3a.786.786,0,1,0,1.3.882l1.321-1.951.608-.9L53.1,26.008a.786.786,0,0,0,.555.226h1.573a.786.786,0,0,0,0-1.573H53.979L51.4,22.085a5.982,5.982,0,0,0,.229-.6.893.893,0,0,0,.049-.13,5.941,5.941,0,0,0-.138-3.984A5.938,5.938,0,0,0,55.3,16a.787.787,0,0,0,.175-.157,5.97,5.97,0,0,0,.966-1.081l2.319-3.426a.787.787,0,1,0-1.3-.882l-.881,1.307L52.021,8.677l.882-1.3a.786.786,0,1,0-1.3-.882L50.279,8.445l-.407.6-1.8-3.613A.786.786,0,0,0,47.362,5H45a.786.786,0,1,0,0,1.573h1.873l2.016,4.033a5.935,5.935,0,0,0-.205,4.832,5.935,5.935,0,0,0-3.751,1.352Zm-.406,2.956.551-.819a4.338,4.338,0,0,1,.366-.458L49.929,21.5a4.325,4.325,0,0,1-.289.51l-.551.819ZM50.594,15.7a4.363,4.363,0,0,1-.735-2.793l3.6,2.438a4.363,4.363,0,0,1-2.869.352Zm5.112-2.636-.551.819a4.339,4.339,0,0,1-.366.458l-4.483-3.033a4.325,4.325,0,0,1,.289-.51l.551-.819Zm-6.069,4.049a4.366,4.366,0,0,1,.735,2.794l-3.6-2.438A4.366,4.366,0,0,1,49.637,17.111Z" transform="translate(-8.752 -0.957)"/>
      <path id="Trazado_1033765" data-name="Trazado 1033765" d="M39.786,6.573h2.359a.786.786,0,1,0,0-1.573H39.786a.786.786,0,1,0,0,1.573Z" transform="translate(-8.255 -0.957)"/>
      <path id="Trazado_1033766" data-name="Trazado 1033766" d="M62.573,30h-.786a.786.786,0,1,0,0,1.573h.786a.786.786,0,1,0,0-1.573Z" transform="translate(-12.953 -6.295)"/>
    </g>
  </g>
</svg>
