<svg xmlns="http://www.w3.org/2000/svg" width="76.563" height="76.563" viewBox="0 0 76.563 76.563">
  <g id="Grupo_1099376" data-name="Grupo 1099376" transform="translate(-1020.967 -3092.999)">
    <g id="Grupo_1098742" data-name="Grupo 1098742" transform="translate(1020.967 3093)">
      <rect id="Rect치ngulo_400898" data-name="Rect치ngulo 400898" width="76.563" height="76.563" rx="38.281" transform="translate(0 0)" fill="#2f50ba"/>
      <rect id="Rect치ngulo_400907" data-name="Rect치ngulo 400907" width="76.563" height="76.563" rx="38.281" transform="translate(0 0)" fill="none"/>
    </g>
    <g id="team_5507895" transform="translate(1033.584 3105.615)">
      <path id="Trazado_1033794" data-name="Trazado 1033794" d="M37.106,22.867H20a7.477,7.477,0,0,1,.855-4.081,5.061,5.061,0,0,1,.445-.625,6.279,6.279,0,0,1,3.567-2,5.106,5.106,0,0,0,7.374,0,6.279,6.279,0,0,1,3.567,2,5.061,5.061,0,0,1,.445.625A7.477,7.477,0,0,1,37.106,22.867Z" transform="translate(-2.887 -2.335)" fill="#ef314c"/>
      <path id="Trazado_1033795" data-name="Trazado 1033795" d="M34.266,7.711v3.422a5.133,5.133,0,1,1-10.266,0V7.711S29.133,8.566,30.844,6a3.707,3.707,0,0,0,3.422,1.711Z" transform="translate(-3.468 -0.867)" fill="#ffe0b2"/>
      <path id="Trazado_1033796" data-name="Trazado 1033796" d="M34.266,6.133v.855a3.707,3.707,0,0,1-3.422-1.711C29.133,7.844,24,6.988,24,6.988V6.133a5.133,5.133,0,1,1,10.266,0Z" transform="translate(-3.468 -0.145)" fill="#ffdf00"/>
      <path id="Trazado_1033797" data-name="Trazado 1033797" d="M18.254,18.786a7.477,7.477,0,0,0-.855,4.081H2c0-2.695.582-3.841,1.3-4.705a6.279,6.279,0,0,1,3.567-2,5.106,5.106,0,0,0,7.374,0,6.279,6.279,0,0,1,3.567,2,5.061,5.061,0,0,1,.445.625Z" transform="translate(-0.289 -2.335)" fill="#e91e63"/>
      <path id="Trazado_1033798" data-name="Trazado 1033798" d="M16.266,7.711v3.422a5.124,5.124,0,0,1-8.82,3.559A5.061,5.061,0,0,1,6,11.133V7.711S11.133,8.566,12.844,6a3.707,3.707,0,0,0,3.422,1.711Z" transform="translate(-0.867 -0.867)" fill="#ffe0b2"/>
      <path id="Trazado_1033799" data-name="Trazado 1033799" d="M16.266,6.133v.855a3.707,3.707,0,0,1-3.422-1.711C11.133,7.844,6,6.988,6,6.988V6.133a5.133,5.133,0,1,1,10.266,0Z" transform="translate(-0.867 -0.145)" fill="sienna"/>
      <path id="Trazado_1033800" data-name="Trazado 1033800" d="M55.254,22.867h-15.4A7.477,7.477,0,0,0,39,18.786a5.061,5.061,0,0,1,.445-.625,6.279,6.279,0,0,1,3.567-2,5.106,5.106,0,0,0,7.374,0,6.279,6.279,0,0,1,3.567,2c.719.864,1.3,2.01,1.3,4.705Z" transform="translate(-5.636 -2.335)" fill="#e91e63"/>
      <path id="Trazado_1033801" data-name="Trazado 1033801" d="M55.751,18.162a6.279,6.279,0,0,0-3.567-2,4.962,4.962,0,0,1-.749.648,5.6,5.6,0,0,1,1.75,1.354c.719.864,1.3,2.01,1.3,4.705h2.566C57.051,20.172,56.469,19.026,55.751,18.162Z" transform="translate(-7.433 -2.335)" fill="#ad1457"/>
      <path id="Trazado_1033802" data-name="Trazado 1033802" d="M52.266,7.711v3.422a5.133,5.133,0,0,1-10.266,0V7.711A3.707,3.707,0,0,0,45.422,6C47.133,8.566,52.266,7.711,52.266,7.711Z" transform="translate(-6.07 -0.867)" fill="#ffe0b2"/>
      <path id="Trazado_1033803" data-name="Trazado 1033803" d="M50.35,8.117v3.3a5.153,5.153,0,0,1-3.85,4.962,5.105,5.105,0,0,0,6.416-4.962V8a13.378,13.378,0,0,1-2.566.117Z" transform="translate(-6.72 -1.156)" fill="#dfc49c"/>
      <path id="Trazado_1033804" data-name="Trazado 1033804" d="M52.266,6.133v.855s-5.133.855-6.844-1.711A3.707,3.707,0,0,1,42,6.988V6.133a5.133,5.133,0,0,1,10.266,0Z" transform="translate(-6.07 -0.145)" fill="sienna"/>
      <path id="Trazado_1033805" data-name="Trazado 1033805" d="M47.783,1a5.117,5.117,0,0,0-1.283.171,5.122,5.122,0,0,1,3.85,4.962v.855s-.223.036-.58.071a13.266,13.266,0,0,0,3.146-.071V6.133A5.126,5.126,0,0,0,47.783,1Z" transform="translate(-6.72 -0.145)" fill="#783e22"/>
      <path id="Trazado_1033822" data-name="Trazado 1033822" d="M1,0H49a1,1,0,0,1,1,1V2a1,1,0,0,1-1,1H1A1,1,0,0,1,0,2V1A1,1,0,0,1,1,0Z" transform="translate(0.665 20.665)" fill="#ffc148"/>
      <path id="Trazado_1033806" data-name="Trazado 1033806" d="M57.566,24H55a.855.855,0,0,1,.855.855v1.711a.855.855,0,0,1-.855.855h2.566a.855.855,0,0,0,.855-.855V24.855A.855.855,0,0,0,57.566,24Z" transform="translate(-7.948 -3.468)" fill="#b18632"/>
      <path id="Trazado_1033807" data-name="Trazado 1033807" d="M37.106,53.867H20a7.477,7.477,0,0,1,.855-4.081,5.061,5.061,0,0,1,.445-.625,6.279,6.279,0,0,1,3.567-2,5.106,5.106,0,0,0,7.374,0,6.279,6.279,0,0,1,3.567,2,5.062,5.062,0,0,1,.445.625,7.477,7.477,0,0,1,.855,4.081Z" transform="translate(-2.887 -6.815)" fill="#00bcd4"/>
      <path id="Trazado_1033808" data-name="Trazado 1033808" d="M34.266,38.711v3.422a5.133,5.133,0,1,1-10.266,0V38.711s5.133.855,6.844-1.711a3.707,3.707,0,0,0,3.422,1.711Z" transform="translate(-3.468 -5.347)" fill="#ffe0b2"/>
      <path id="Trazado_1033809" data-name="Trazado 1033809" d="M34.266,37.133v.855a3.707,3.707,0,0,1-3.422-1.711C29.133,38.844,24,37.988,24,37.988v-.855a5.133,5.133,0,0,1,10.266,0Z" transform="translate(-3.468 -4.624)" fill="#ff9801"/>
      <path id="Trazado_1033810" data-name="Trazado 1033810" d="M18.254,49.786a7.477,7.477,0,0,0-.855,4.081H2c0-2.695.582-3.841,1.3-4.705a6.279,6.279,0,0,1,3.567-2,5.106,5.106,0,0,0,7.374,0,6.279,6.279,0,0,1,3.567,2,5.061,5.061,0,0,1,.445.625Z" transform="translate(-0.289 -6.815)" fill="#02a9f4"/>
      <path id="Trazado_1033811" data-name="Trazado 1033811" d="M16.266,38.711v3.422a5.124,5.124,0,0,1-8.82,3.559A5.061,5.061,0,0,1,6,42.133V38.711s5.133.855,6.844-1.711a3.707,3.707,0,0,0,3.422,1.711Z" transform="translate(-0.867 -5.347)" fill="#ffe0b2"/>
      <path id="Trazado_1033812" data-name="Trazado 1033812" d="M16.266,37.133v.855a3.707,3.707,0,0,1-3.422-1.711C11.133,38.844,6,37.988,6,37.988v-.855a5.133,5.133,0,0,1,10.266,0Z" transform="translate(-0.867 -4.624)" fill="#825a2c"/>
      <path id="Trazado_1033813" data-name="Trazado 1033813" d="M55.254,53.867h-15.4A7.477,7.477,0,0,0,39,49.786a5.061,5.061,0,0,1,.445-.625,6.279,6.279,0,0,1,3.567-2,5.106,5.106,0,0,0,7.374,0,6.279,6.279,0,0,1,3.567,2c.719.864,1.3,2.01,1.3,4.705Z" transform="translate(-5.636 -6.815)" fill="#02a9f4"/>
      <path id="Trazado_1033814" data-name="Trazado 1033814" d="M55.751,49.162a6.279,6.279,0,0,0-3.567-2,4.963,4.963,0,0,1-.749.648,5.6,5.6,0,0,1,1.75,1.354c.719.864,1.3,2.01,1.3,4.705h2.566C57.051,51.172,56.469,50.026,55.751,49.162Z" transform="translate(-7.433 -6.815)" fill="#0377bc"/>
      <path id="Trazado_1033815" data-name="Trazado 1033815" d="M52.266,38.711v3.422a5.133,5.133,0,1,1-10.266,0V38.711A3.707,3.707,0,0,0,45.422,37C47.133,39.566,52.266,38.711,52.266,38.711Z" transform="translate(-6.07 -5.347)" fill="#ffe0b2"/>
      <path id="Trazado_1033816" data-name="Trazado 1033816" d="M50.35,39.117v3.3a5.153,5.153,0,0,1-3.85,4.962,5.105,5.105,0,0,0,6.416-4.962V39a13.378,13.378,0,0,1-2.566.117Z" transform="translate(-6.72 -5.636)" fill="#dfc49c"/>
      <path id="Trazado_1033817" data-name="Trazado 1033817" d="M52.266,37.133v.855s-5.133.855-6.844-1.711A3.707,3.707,0,0,1,42,37.988v-.855a5.133,5.133,0,0,1,10.266,0Z" transform="translate(-6.07 -4.624)" fill="#91562d"/>
      <path id="Trazado_1033818" data-name="Trazado 1033818" d="M47.783,32a5.118,5.118,0,0,0-1.283.171,5.122,5.122,0,0,1,3.85,4.962v.855s-.223.036-.58.071a13.266,13.266,0,0,0,3.146-.071v-.855A5.126,5.126,0,0,0,47.783,32Z" transform="translate(-6.72 -4.624)" fill="#6d4122"/>
      <path id="Trazado_1033823" data-name="Trazado 1033823" d="M1,0H49a1,1,0,0,1,1,1V3a1,1,0,0,1-1,1H1A1,1,0,0,1,0,3V1A1,1,0,0,1,1,0Z" transform="translate(0.665 46.665)" fill="#ffc148"/>
      <path id="Trazado_1033819" data-name="Trazado 1033819" d="M57.566,55H55a.855.855,0,0,1,.855.855v1.711a.855.855,0,0,1-.855.855h2.566a.855.855,0,0,0,.855-.855V55.855A.855.855,0,0,0,57.566,55Z" transform="translate(-7.948 -7.948)" fill="#b18632"/>
      <path id="Trazado_1033820" data-name="Trazado 1033820" d="M50.454,19.9a6.922,6.922,0,0,0-1.481-4.627,6.752,6.752,0,0,0-2.791-1.919,5.942,5.942,0,0,0,.87-3.092V5.988a5.988,5.988,0,1,0-11.977,0v4.277a5.94,5.94,0,0,0,.87,3.092,6.828,6.828,0,0,0-2.58,1.711,6.818,6.818,0,0,0-2.582-1.711,5.942,5.942,0,0,0,.87-3.092V5.988a5.988,5.988,0,1,0-11.977,0v4.277a5.942,5.942,0,0,0,.87,3.092,6.826,6.826,0,0,0-2.581,1.711,6.806,6.806,0,0,0-2.581-1.711,5.942,5.942,0,0,0,.87-3.092V5.988a5.988,5.988,0,1,0-11.977,0v4.277a5.942,5.942,0,0,0,.87,3.092,6.758,6.758,0,0,0-2.794,1.921A6.931,6.931,0,0,0,.875,19.9,1.706,1.706,0,0,0,0,21.387V23.1a1.711,1.711,0,0,0,1.711,1.711H49.618A1.711,1.711,0,0,0,51.329,23.1V21.387a1.706,1.706,0,0,0-.875-1.483ZM36.786,7.634a4.705,4.705,0,0,0,2.6-1.2,7.82,7.82,0,0,0,4.922,1.4c.385,0,.734-.016,1.033-.038v2.47a4.277,4.277,0,1,1-8.555,0Zm4.277-5.923a4.283,4.283,0,0,1,4.277,4.277v.1c-1.578.135-4.3.042-5.277-1.428a.82.82,0,0,0-.755-.374.867.867,0,0,0-.716.455,2.7,2.7,0,0,1-1.8,1.152,4.277,4.277,0,0,1,4.267-4.181ZM37.139,14.779a5.955,5.955,0,0,0,7.848,0,5.28,5.28,0,0,1,2.673,1.6,4.994,4.994,0,0,1,1.078,3.3H35.051a8.319,8.319,0,0,0-.679-3.165c.033-.041.063-.094.094-.132A5.281,5.281,0,0,1,37.139,14.779ZM21.387,7.8c.3.021.648.038,1.033.038a7.82,7.82,0,0,0,4.922-1.4,4.705,4.705,0,0,0,2.6,1.2v2.631a4.277,4.277,0,1,1-8.555,0Zm4.277-6.087a4.277,4.277,0,0,1,4.268,4.181,2.7,2.7,0,0,1-1.787-1.141.855.855,0,0,0-.716-.473.839.839,0,0,0-.77.379c-.972,1.465-3.693,1.56-5.272,1.428v-.1a4.283,4.283,0,0,1,4.277-4.277ZM21.74,14.779a5.955,5.955,0,0,0,7.848,0,5.28,5.28,0,0,1,2.673,1.6,4.994,4.994,0,0,1,1.078,3.3H17.989a4.991,4.991,0,0,1,1.075-3.3,5.281,5.281,0,0,1,2.676-1.6ZM5.988,7.8c.3.021.648.038,1.033.038a7.82,7.82,0,0,0,4.922-1.4,4.705,4.705,0,0,0,2.6,1.2v2.631a4.277,4.277,0,1,1-8.555,0Zm4.277-6.087a4.277,4.277,0,0,1,4.268,4.181,2.7,2.7,0,0,1-1.787-1.141.855.855,0,0,0-.716-.473.837.837,0,0,0-.77.379c-.972,1.465-3.693,1.56-5.272,1.428v-.1a4.283,4.283,0,0,1,4.277-4.277ZM6.342,14.779a5.955,5.955,0,0,0,7.848,0,5.275,5.275,0,0,1,2.668,1.589c.035.043.066.1.1.142a8.328,8.328,0,0,0-.678,3.165H2.593a4.991,4.991,0,0,1,1.075-3.3,5.281,5.281,0,0,1,2.673-1.6ZM1.711,23.1V21.387H49.618V23.1Z"/>
      <path id="Trazado_1033821" data-name="Trazado 1033821" d="M50.454,50.9a6.922,6.922,0,0,0-1.481-4.627,6.752,6.752,0,0,0-2.791-1.919,5.942,5.942,0,0,0,.87-3.092V36.988a5.988,5.988,0,1,0-11.977,0v4.277a5.94,5.94,0,0,0,.87,3.092,6.828,6.828,0,0,0-2.58,1.711,6.818,6.818,0,0,0-2.582-1.711,5.942,5.942,0,0,0,.87-3.092V36.988a5.988,5.988,0,1,0-11.977,0v4.277a5.942,5.942,0,0,0,.87,3.092,6.826,6.826,0,0,0-2.581,1.711,6.806,6.806,0,0,0-2.581-1.711,5.942,5.942,0,0,0,.87-3.092V36.988a5.988,5.988,0,0,0-11.977,0v4.277a5.942,5.942,0,0,0,.87,3.092,6.758,6.758,0,0,0-2.794,1.921A6.931,6.931,0,0,0,.875,50.9,1.706,1.706,0,0,0,0,52.387V54.1a1.711,1.711,0,0,0,1.711,1.711H49.618A1.711,1.711,0,0,0,51.329,54.1V52.387a1.706,1.706,0,0,0-.875-1.483ZM36.786,38.634a4.705,4.705,0,0,0,2.6-1.2,7.82,7.82,0,0,0,4.922,1.4c.385,0,.734-.016,1.033-.038v2.47a4.277,4.277,0,0,1-8.555,0Zm4.277-5.923a4.283,4.283,0,0,1,4.277,4.277v.1c-1.578.135-4.3.042-5.277-1.428a.832.832,0,0,0-.755-.374.867.867,0,0,0-.716.455,2.7,2.7,0,0,1-1.8,1.152,4.277,4.277,0,0,1,4.267-4.181ZM37.139,45.779a5.955,5.955,0,0,0,7.848,0,5.28,5.28,0,0,1,2.673,1.6,4.994,4.994,0,0,1,1.078,3.3H35.051a8.319,8.319,0,0,0-.679-3.165c.033-.041.063-.094.094-.132a5.281,5.281,0,0,1,2.673-1.6ZM21.387,38.8c.3.021.648.038,1.033.038a7.82,7.82,0,0,0,4.922-1.4,4.705,4.705,0,0,0,2.6,1.2v2.63a4.277,4.277,0,1,1-8.555,0Zm4.277-6.087a4.277,4.277,0,0,1,4.268,4.181,2.7,2.7,0,0,1-1.787-1.141.855.855,0,0,0-.716-.473.838.838,0,0,0-.77.379c-.976,1.464-3.7,1.559-5.277,1.426v-.094a4.283,4.283,0,0,1,4.282-4.277ZM21.74,45.779a5.955,5.955,0,0,0,7.848,0,5.28,5.28,0,0,1,2.673,1.6,4.994,4.994,0,0,1,1.078,3.3H17.989a4.991,4.991,0,0,1,1.075-3.3,5.281,5.281,0,0,1,2.676-1.6ZM5.988,38.8c.3.021.648.038,1.033.038a7.82,7.82,0,0,0,4.922-1.4,4.705,4.705,0,0,0,2.6,1.2v2.63a4.277,4.277,0,1,1-8.555,0Zm4.277-6.087a4.277,4.277,0,0,1,4.268,4.181,2.7,2.7,0,0,1-1.787-1.141.855.855,0,0,0-.716-.473.835.835,0,0,0-.77.379c-.972,1.465-3.693,1.56-5.272,1.428v-.1a4.283,4.283,0,0,1,4.277-4.277ZM6.342,45.779a5.955,5.955,0,0,0,7.848,0,5.275,5.275,0,0,1,2.668,1.589c.035.043.066.1.1.142a8.328,8.328,0,0,0-.678,3.165H2.593a4.991,4.991,0,0,1,1.075-3.3A5.281,5.281,0,0,1,6.342,45.779ZM1.711,54.1V52.387H49.618V54.1Z" transform="translate(0 -4.48)"/>
    </g>
  </g>
</svg>
