<svg xmlns="http://www.w3.org/2000/svg" width="76.563" height="76.563" viewBox="0 0 76.563 76.563">
  <g id="Grupo_1099552" data-name="Grupo 1099552" transform="translate(-1020.967 -3093)">
    <g id="Grupo_1098742" data-name="Grupo 1098742" transform="translate(1020.967 3093)">
      <rect id="Rectángulo_400898" data-name="Rectángulo 400898" width="76.563" height="76.563" rx="38.281" transform="translate(0 0)" fill="#ffc148"/>
      <rect id="Rectángulo_400907" data-name="Rectángulo 400907" width="76.563" height="76.563" rx="38.281" transform="translate(0 0)" fill="none"/>
    </g>
    <g id="investigar" transform="translate(1017.538 3084.428)">
      <rect id="Rectángulo_405220" data-name="Rectángulo 405220" width="50" height="41" transform="translate(17 27)" fill="#eb423f"/>
      <rect id="Rectángulo_405221" data-name="Rectángulo 405221" width="43" height="3" transform="translate(20 61)" fill="#dadcde"/>
      <path id="Trazado_1033950" data-name="Trazado 1033950" d="M98.851,32V67.995H84.281a6.851,6.851,0,0,0-5.143,2.324q-.179.2-.342.419l-.514.686-.514-.686c-.109-.146-.223-.285-.343-.42a6.851,6.851,0,0,0-5.142-2.323H56V32H72.283a6.851,6.851,0,0,1,5.143,2.324q.179.2.342.419l.514.686.514-.686c.109-.146.223-.285.343-.42A6.851,6.851,0,0,1,84.281,32Z" transform="translate(-35.715 -7.143)" fill="#e9eef2"/>
      <rect id="Rectángulo_405222" data-name="Rectángulo 405222" width="3" height="7" transform="translate(24 49)" fill="#c3c6c7"/>
      <rect id="Rectángulo_405223" data-name="Rectángulo 405223" width="5" height="4" transform="translate(53 33)" fill="#c3c6c7"/>
      <path id="Trazado_1033951" data-name="Trazado 1033951" d="M103.426,89.427V86h-1.964a5.962,5.962,0,0,0-.422-1.043l1.528-1.528L100,80.857,98.47,82.385a5.963,5.963,0,0,0-1.043-.422V80H94v1.964a5.963,5.963,0,0,0-1.043.422l-1.528-1.528-2.571,2.571,1.528,1.528A5.963,5.963,0,0,0,89.964,86H88v3.428h1.964a5.963,5.963,0,0,0,.422,1.043L88.857,92l2.571,2.571,1.528-1.528A5.962,5.962,0,0,0,94,93.462v1.964h3.428V93.462a5.963,5.963,0,0,0,1.043-.422L100,94.569,102.569,92l-1.528-1.528a5.963,5.963,0,0,0,.422-1.043Z" transform="translate(-64.287 -50.001)" fill="#3397e8"/>
      <circle id="Elipse_11904" data-name="Elipse 11904" cx="2.5" cy="2.5" r="2.5" transform="translate(29 35)" fill="#e9eef2"/>
      <rect id="Rectángulo_405224" data-name="Rectángulo 405224" width="3.636" height="9.09" transform="translate(51.138 59.995) rotate(-45)" fill="#2978b8"/>
      <circle id="Elipse_11905" data-name="Elipse 11905" cx="12" cy="12" r="12" transform="translate(34 40)" fill="#3397e8"/>
      <ellipse id="Elipse_11906" data-name="Elipse 11906" cx="9" cy="8.5" rx="9" ry="8.5" transform="translate(37 44)" fill="#e9eef2"/>
      <path id="Trazado_1033952" data-name="Trazado 1033952" d="M401.427,393.427h0a2.926,2.926,0,0,1-2.069.857h0a3.281,3.281,0,0,1-2.32-.961L392,388.285,396.285,384l5.038,5.038a3.281,3.281,0,0,1,.961,2.32h0a2.926,2.926,0,0,1-.857,2.069Z" transform="translate(-335.72 -321.434)" fill="#3397e8"/>
      <path id="Trazado_1033953" data-name="Trazado 1033953" d="M67.421,67.708V26.571a.857.857,0,0,0-.857-.857H63.993v-.857A.857.857,0,0,0,63.136,24H48.567a7.753,7.753,0,0,0-6,2.865,7.753,7.753,0,0,0-6-2.865H20.285a.857.857,0,0,0-.857.857v.857H16.857a.857.857,0,0,0-.857.857V67.708a.857.857,0,0,0,.857.857H56.782l3.93,3.93a4.111,4.111,0,0,0,2.926,1.212,3.783,3.783,0,0,0,3.783-3.783,4.133,4.133,0,0,0-.3-1.562A.855.855,0,0,0,67.421,67.708Zm-1.714-40.28V66.5l-1.714-1.714V27.428Zm-8.57,37.354-2.76-2.76a12.96,12.96,0,0,0,1.359-1.359l2.76,2.76ZM21.142,61.709H37.266a12.932,12.932,0,0,0,2.322,1.714H21.142Zm13.712-9.427A11.141,11.141,0,1,1,46,63.423,11.141,11.141,0,0,1,34.854,52.281Zm-4.9-9.641a5.118,5.118,0,0,1-.893-.361.857.857,0,0,0-1,.155l-.922.923L25.782,42l.923-.922a.857.857,0,0,0,.155-1,5.121,5.121,0,0,1-.361-.893.857.857,0,0,0-.821-.612H24.57V36.855h1.107a.857.857,0,0,0,.821-.613,5.121,5.121,0,0,1,.361-.893.857.857,0,0,0-.155-1l-.923-.922,1.359-1.359.922.922a.857.857,0,0,0,1,.155,5.118,5.118,0,0,1,.893-.361.857.857,0,0,0,.612-.821V30.856h1.714v1.107a.857.857,0,0,0,.613.821,5.118,5.118,0,0,1,.893.361.857.857,0,0,0,1-.155l.922-.923,1.359,1.359-.923.922a.857.857,0,0,0-.155,1,5.121,5.121,0,0,1,.361.893.857.857,0,0,0,.821.612h1.107v1.714H37.176a.857.857,0,0,0-.821.613,5.121,5.121,0,0,1-.361.893.857.857,0,0,0,.155,1L37.07,42l-1.359,1.359-.922-.922a.857.857,0,0,0-1-.155,5.118,5.118,0,0,1-.893.361.857.857,0,0,0-.612.821v1.107H30.569V43.462a.857.857,0,0,0-.613-.821ZM52.992,63.061l.362.362H52.4Q52.7,63.25,52.992,63.061Zm6.967-1.1-.251.251-.5-.5h3.073v1.359L61.171,61.96a.857.857,0,0,0-1.212,0ZM48.567,25.714H62.279V59.995H57.492l-.717-.717a12.829,12.829,0,0,0-.5-14.709h1.721a.857.857,0,0,0,0-1.714H54.725A12.932,12.932,0,0,0,52.4,41.14h5.59a.857.857,0,0,0,0-1.714H46a12.863,12.863,0,0,0-2.571.258V28.571l.343-.457A6.028,6.028,0,0,1,48.567,25.714Zm-12,0a6.028,6.028,0,0,1,4.8,2.4l.343.457V40.162a12.815,12.815,0,0,0-2.724,1.349.859.859,0,0,0-.1-.119l-1.107-1.107h1.358A.857.857,0,0,0,40,39.427V36a.857.857,0,0,0-.857-.857H37.782l1.107-1.107a.857.857,0,0,0,0-1.212L36.318,30.25a.857.857,0,0,0-1.212,0L34,31.357h0V30a.857.857,0,0,0-.857-.857H29.712a.857.857,0,0,0-.857.857v1.357h0L27.747,30.25a.857.857,0,0,0-1.212,0l-2.571,2.571a.857.857,0,0,0,0,1.212l1.107,1.107H23.713a.857.857,0,0,0-.857.857v3.428a.857.857,0,0,0,.857.857h1.357l-1.106,1.107a.857.857,0,0,0,0,1.212l2.571,2.571a.857.857,0,0,0,1.212,0l1.107-1.107h0v1.358a.857.857,0,0,0,.857.857H33.14A.857.857,0,0,0,34,45.425V44.068h0l1.107,1.107a.863.863,0,0,0,.119.1A12.814,12.814,0,0,0,33.876,48H32.283a.857.857,0,0,0,0,1.714H33.4a12.814,12.814,0,0,0-.229,1.714h-2.6a.857.857,0,0,0,0,1.714h2.6a12.814,12.814,0,0,0,.229,1.714h-2.83a.857.857,0,0,0,0,1.714h3.306a12.841,12.841,0,0,0,1.843,3.428H21.142V25.714ZM17.714,66.851V27.428h1.714V64.28a.857.857,0,0,0,.857.857H55.068l.857.857-.251.251a.854.854,0,0,0-.251.606ZM65.1,71.387a2.055,2.055,0,0,1-1.463.606,2.408,2.408,0,0,1-1.714-.71l-4.432-4.432,3.073-3.073L65,68.21a2.408,2.408,0,0,1,.71,1.714,2.055,2.055,0,0,1-.606,1.463Z"/>
      <path id="Trazado_1033954" data-name="Trazado 1033954" d="M80.857,256.57h3.428a.857.857,0,0,0,.857-.857v-6.856a.857.857,0,0,0-.857-.857H80.857a.857.857,0,0,0-.857.857v6.856A.857.857,0,0,0,80.857,256.57Zm.857-6.856h1.714v5.142H81.714Z" transform="translate(-57.144 -200.004)"/>
      <path id="Trazado_1033955" data-name="Trazado 1033955" d="M304.857,73.714h1.714a.857.857,0,1,0,0-1.714h-1.714a.857.857,0,1,0,0,1.714Z" transform="translate(-257.147 -42.858)"/>
      <path id="Trazado_1033956" data-name="Trazado 1033956" d="M352.857,73.714H358A.857.857,0,1,0,358,72h-5.142a.857.857,0,1,0,0,1.714Z" transform="translate(-300.005 -42.858)"/>
      <path id="Trazado_1033957" data-name="Trazado 1033957" d="M288.857,105.714h3.428a.857.857,0,1,0,0-1.714h-3.428a.857.857,0,1,0,0,1.714Z" transform="translate(-242.861 -71.43)"/>
      <path id="Trazado_1033958" data-name="Trazado 1033958" d="M288.857,137.714h3.428a.857.857,0,1,0,0-1.714h-3.428a.857.857,0,1,0,0,1.714Z" transform="translate(-242.861 -100.002)"/>
      <path id="Trazado_1033959" data-name="Trazado 1033959" d="M352.857,109.142H358a.857.857,0,0,0,.857-.857v-3.428A.857.857,0,0,0,358,104h-5.142a.857.857,0,0,0-.857.857v3.428A.857.857,0,0,0,352.857,109.142Zm.857-3.428h3.428v1.714h-3.428Z" transform="translate(-300.005 -71.43)"/>
      <path id="Trazado_1033960" data-name="Trazado 1033960" d="M217.427,200a9.427,9.427,0,1,0,9.427,9.427A9.427,9.427,0,0,0,217.427,200Zm0,17.14a7.713,7.713,0,1,1,7.713-7.713A7.713,7.713,0,0,1,217.427,217.14Z" transform="translate(-171.432 -157.146)"/>
      <path id="Trazado_1033961" data-name="Trazado 1033961" d="M134.856,123.428a3.428,3.428,0,1,0-3.428,3.428A3.428,3.428,0,0,0,134.856,123.428Zm-5.142,0a1.714,1.714,0,1,1,1.714,1.714,1.714,1.714,0,0,1-1.714-1.714Z" transform="translate(-100.002 -85.716)"/>
    </g>
  </g>
</svg>
